<svg xmlns="http://www.w3.org/2000/svg" xmlns:xlink="http://www.w3.org/1999/xlink" width="114.078" height="58" viewBox="0 0 114.078 58">
  <defs>
    <filter id="Uni贸n_1" x="0" y="0" width="114.078" height="58" filterUnits="userSpaceOnUse">
      <feOffset dy="2" input="SourceAlpha"/>
      <feGaussianBlur stdDeviation="4" result="blur"/>
      <feFlood flood-opacity="0.161"/>
      <feComposite operator="in" in2="blur"/>
      <feComposite in="SourceGraphic"/>
    </filter>
  </defs>
  <g id="Hex_button" transform="translate(12 10)">
    <g transform="matrix(1, 0, 0, 1, -12, -10)" filter="url(#Uni贸n_1)">
      <path id="Uni贸n_1-2" data-name="Uni贸n 1" d="M-2925.568-1078h-52a6,6,0,0,1-5.171-2.957l-6.471-11a6,6,0,0,1,0-6.084l6.471-11a6,6,0,0,1,5.171-2.958h65.136a6,6,0,0,1,5.171,2.958l6.471,11a6,6,0,0,1,0,6.084l-6.471,11a6,6,0,0,1-5.171,2.957Z" transform="translate(3002.04 1122)" fill="#fff"/>
    </g>
  </g>
</svg>
