<svg xmlns="http://www.w3.org/2000/svg" xmlns:xlink="http://www.w3.org/1999/xlink" width="90.315" height="84" viewBox="0 0 90.315 84">
  <defs>
    <filter id="Trazado_81" x="0" y="0" width="90.315" height="84" filterUnits="userSpaceOnUse">
      <feOffset dy="2" input="SourceAlpha"/>
      <feGaussianBlur stdDeviation="4" result="blur"/>
      <feFlood flood-opacity="0.161"/>
      <feComposite operator="in" in2="blur"/>
      <feComposite in="SourceGraphic"/>
    </filter>
  </defs>
  <g id="logo_menu" transform="translate(12 10)">
    <g transform="matrix(1, 0, 0, 1, -12, -10)" filter="url(#Trazado_81)">
      <path id="Trazado_81-2" data-name="Trazado 81" d="M52.581,3.716A10.675,10.675,0,0,0,46.133,0L20.1.022A10.655,10.655,0,0,0,13.65,3.75L.658,26.3a10.675,10.675,0,0,0,0,7.444L13.7,56.284A10.675,10.675,0,0,0,20.151,60l26.034-.022a10.655,10.655,0,0,0,6.449-3.727l13-22.555a10.675,10.675,0,0,0,0-7.444Zm1.092,28.925L45.642,46.392a3.654,3.654,0,0,1-1.059,1.368,4.555,4.555,0,0,1-.89.667,4.423,4.423,0,0,1-1.185.483,3.69,3.69,0,0,1-1.621.122l-15.926-.047a4.744,4.744,0,0,1-3.494-1.47A5.057,5.057,0,0,1,20.029,44.1v-.067a4.768,4.768,0,0,1,1.47-3.521,5.064,5.064,0,0,1,3.287-1.443h.16l13.484.04q.336-.574.64-1.1.667-1.165,1.334-2.293.222-.363.427-.734l-24.214-.1a4.67,4.67,0,0,1-2.626-.923,4.893,4.893,0,0,1-1.521-1.893A5.373,5.373,0,0,1,11.978,30a4.759,4.759,0,0,1,.512-2.333l.089-.167,8.3-14.066a4.687,4.687,0,0,1,2.647-2.253c.4-.107.667-.171.792-.2l.276-.058L41.363,11a4.826,4.826,0,0,1,3.612,1.588,5.4,5.4,0,0,1,1.392,3.236l.018.2-.016.2a4.933,4.933,0,0,1-2.54,4.054,5.7,5.7,0,0,1-2.142.692L41.512,21l-13.633-.093c-.222.378-.445.743-.636,1.094-.445.767-.872,1.521-1.292,2.255-.14.249-.282.5-.427.747l23.943.1a4.226,4.226,0,0,1,2.462.743,5.171,5.171,0,0,1,1.623,1.75,5.927,5.927,0,0,1,.716,2.088,4.555,4.555,0,0,1-.6,2.962Z" transform="translate(12.01 10)" fill="#ecf5e5"/>
    </g>
  </g>
</svg>
