<svg xmlns="http://www.w3.org/2000/svg" xmlns:xlink="http://www.w3.org/1999/xlink" width="382.27" height="84" viewBox="0 0 382.27 84">
  <defs>
    <filter id="Trazado_403" x="0" y="0" width="382.27" height="84" filterUnits="userSpaceOnUse">
      <feOffset dy="2" input="SourceAlpha"/>
      <feGaussianBlur stdDeviation="4" result="blur"/>
      <feFlood flood-opacity="0.161"/>
      <feComposite operator="in" in2="blur"/>
      <feComposite in="SourceGraphic"/>
    </filter>
  </defs>
  <g id="logo_button" transform="translate(12 10)">
    <g transform="matrix(1, 0, 0, 1, -12, -10)" filter="url(#Trazado_403)">
      <path id="Trazado_403-2" data-name="Trazado 403" d="M-2967.262-1052.609l-20.38-11.823a9.648,9.648,0,0,1-3.358-5.849l.05-23.558a9.648,9.648,0,0,1,3.378-5.824l20.436-11.729a9.649,9.649,0,0,1,6.736,0l20.38,11.829a9.656,9.656,0,0,1,3.358,5.829l-.05,23.558a9.655,9.655,0,0,1-3.378,5.829l-20.436,11.739a9.609,9.609,0,0,1-3.368.609A9.615,9.615,0,0,1-2967.262-1052.609Zm-9.273-26.264a4.46,4.46,0,0,0-3.769,2.135l-.1.156-.075.166a4.888,4.888,0,0,0-.275,3.2,4.36,4.36,0,0,0,2.19,2.817l13.323,7.258.246.076c.115.035.351.094.717.185a4.291,4.291,0,0,0,3.077-.642l12.661-7.619.14-.1a4.371,4.371,0,0,0,1.418-1.634,4.951,4.951,0,0,0,.5-1.864,4.466,4.466,0,0,0-.417-2.181,4.256,4.256,0,0,0-1.694-1.824l-19.242-10.526.656-.4q1.018-.621,2.046-1.257l1-.6,10.715,5.834.136.066a4.607,4.607,0,0,0,3.238.266,4.287,4.287,0,0,0,2.681-2.171l.03-.055a4.562,4.562,0,0,0,.336-3.338,4.284,4.284,0,0,0-2.15-2.677l-12.656-6.881a3.268,3.268,0,0,0-1.348-.612,4.009,4.009,0,0,0-1.153-.125,4.049,4.049,0,0,0-1,.146,3.3,3.3,0,0,0-1.434.636l-12.31,7.474a4.134,4.134,0,0,0-1.755,2.125,5.36,5.36,0,0,0-.33,1.975,4.705,4.705,0,0,0,.542,2.09,3.826,3.826,0,0,0,1.639,1.65l19.021,10.385-.657.411q-.972.606-2.005,1.237-.466.294-.977.6l-10.822-5.96-.145-.055a5.2,5.2,0,0,0-1.93-.371Zm101.734,18.621-.05-.031-16-9.177a3.568,3.568,0,0,1-1.153-1,3.448,3.448,0,0,1-.7-2v-18.986a2.743,2.743,0,0,1,.5-1.82,9.368,9.368,0,0,1,.918-.922,1.054,1.054,0,0,1,.14-.1l16.47-9.454a3.229,3.229,0,0,1,1.288-.42,2.9,2.9,0,0,1,2.1.42l16.6,9.574a2.738,2.738,0,0,1,1.128,1.2,3.471,3.471,0,0,1,.376,1.549,3.59,3.59,0,0,1-.371,1.559,3.2,3.2,0,0,1-1.219,1.338l-11.452,6.6q2.576,1.5,5.042,2.9,3.054,1.748,6.24,3.543a3.513,3.513,0,0,1,1.6,2.105,3.155,3.155,0,0,1-.236,2.346.94.94,0,0,1-.066.16,3.194,3.194,0,0,1-1.3,1.3,3.625,3.625,0,0,1-3.3.1l-.049-.031-11.282-6.516v12.962a3.216,3.216,0,0,1-1.5,2.812,3.588,3.588,0,0,1-1.885.592A3.268,3.268,0,0,1-2874.8-1060.252Zm-5.894-32.124c-1.629.947-3.374,1.97-5.193,3.007v14.9c.857.486,1.7.968,2.506,1.438l2.6,1.529,2.637,1.553,1.769,1,0-25.988C-2877.889-1094.05-2879.342-1093.193-2880.695-1092.376Zm11.127,4.586c1.033-.591,2.015-1.163,2.928-1.7v-.025c.947-.561,2.029-1.193,3.218-1.864-1.032-.591-1.99-1.148-2.928-1.7s-2.014-1.183-3.218-1.875Zm181.663,27.026a3.366,3.366,0,0,1-.962-2.341v-31.848l-11.358,6.516a3.644,3.644,0,0,1-2.847.161,3.9,3.9,0,0,1-.6-.2h-.051l-3.223-1.875-3.007-1.714q-1.505-.842-3.009-1.714l-2.064-1.183v31.858a3.372,3.372,0,0,1-.967,2.341,3.327,3.327,0,0,1-2.442,1.068,3.324,3.324,0,0,1-2.441-1.068,3.373,3.373,0,0,1-.967-2.341v-31.858l-9.112,5.293v21.553a3.41,3.41,0,0,1-1.664,3.06,3.41,3.41,0,0,1-3.484,0,3.41,3.41,0,0,1-1.664-3.06V-1085.6c-1.629.937-3.288,1.879-4.952,2.812-2.08,1.168-4.116,2.335-6.12,3.479a2.889,2.889,0,0,1-1.855.5,4.138,4.138,0,0,1-1.654-.5l-3.213-1.84-2.871-1.654-4.967-2.812v17.5a3.41,3.41,0,0,1-1.664,3.06,3.41,3.41,0,0,1-3.484,0,3.409,3.409,0,0,1-1.664-3.06V-1092.1a2.819,2.819,0,0,1,1.67-2.366l16.349-9.357a3.183,3.183,0,0,1,1.5-.427,3.4,3.4,0,0,1,1.75.416l14.4,8.305,14.505-8.345a3.484,3.484,0,0,1,1.414-.366,3.061,3.061,0,0,1,2.035.5l14.636,8.416,14.856-8.551a3.48,3.48,0,0,1,1.413-.366,3.012,3.012,0,0,1,2.036.5l14.705,8.436,14.721-8.52a3.507,3.507,0,0,1,3.3-.031l16.5,9.5a3.422,3.422,0,0,1,1.218,1.253,3.3,3.3,0,0,1,.467,1.644v18.871a3.32,3.32,0,0,1-.5,1.679,3.764,3.764,0,0,1-1.148,1.254l-16.54,9.583a4.054,4.054,0,0,1-1.564.371,4.324,4.324,0,0,1-1.639-.351l-.055-.03-16.074-9.413-.1-.04a2.975,2.975,0,0,1-1.379-1.288,3.516,3.516,0,0,1-.5-1.754v-16.776l-1.749-1c-1.028-.581-2.005-1.153-3.008-1.714s-2-1.132-3.007-1.714l-2.065-1.183v31.858a3.373,3.373,0,0,1-.968,2.341,3.323,3.323,0,0,1-2.441,1.068A3.327,3.327,0,0,1-2687.905-1060.763Zm29-32.445q-3.158,1.814-6.546,3.724v15.008l13.032,7.443,12.865-7.519v-14.9l-6.385-3.734c-2.025-1.193-4.14-2.421-6.45-3.749Zm-101.208,1.714c1.464.857,2.907,1.684,4.3,2.466,1.644.942,3.389,1.9,5.217,2.948l9.524-5.433c-1.479-.868-2.922-1.695-4.3-2.466q-2.472-1.389-5.223-2.942Zm-73.724,31.447-.06-.03-16.134-9.413-.1-.04a3.008,3.008,0,0,1-1.378-1.288,3.555,3.555,0,0,1-.476-1.754v-18.867a3.428,3.428,0,0,1,.5-1.7,2.978,2.978,0,0,1,1.378-1.288l.1-.035,16.115-9.357a3.508,3.508,0,0,1,3.293-.031l16.5,9.509a3.379,3.379,0,0,1,1.218,1.243,3.3,3.3,0,0,1,.456,1.644v18.871a3.26,3.26,0,0,1-.5,1.679,3.7,3.7,0,0,1-1.128,1.254l-16.571,9.583a4.034,4.034,0,0,1-1.563.371A4.316,4.316,0,0,1-2833.841-1060.047Zm-4.758-33.161q-3.156,1.816-6.546,3.725v15l13.032,7.443,12.851-7.5v-14.912l-6.37-3.734c-2.021-1.187-4.19-2.451-6.451-3.749Zm45.953,33.061-16.22-9.418c-.341-.235-.687-.491-1.1-.812a2.655,2.655,0,0,1-.922-2.255v-18.856a3.507,3.507,0,0,1,1.75-3.008l16.31-9.382a3.736,3.736,0,0,1,3.278-.031l16.45,9.448a3.4,3.4,0,0,1,1.734,2.928,3.078,3.078,0,0,1-1.85,3.007l-.111.041-11.072,6.385,11.182,6.436a.612.612,0,0,1,.205.085,3.35,3.35,0,0,1,1.644,2.932,3.073,3.073,0,0,1-1.855,3.008l-.1.04-16.155,9.393a3.5,3.5,0,0,1-1.558.426h-.192A2.928,2.928,0,0,1-2792.645-1060.147Zm-11.4-29.4v14.88c.876.491,1.719.973,2.506,1.434l2.612,1.574q1.3.782,2.636,1.564l1.77,1.032.045-26Zm16.335,20.475,6.1-3.554h.014c-1.052-.6-2.025-1.153-2.957-1.709s-1.99-1.173-3.163-1.859Zm.014-18.877.942-.536c.687-.386,1.364-.771,2.005-1.157s1.313-.787,2.005-1.213c.355-.215.751-.441,1.128-.667-1.048-.6-1.985-1.138-2.918-1.694s-1.99-1.173-3.163-1.859Zm-125.857,28.134a4.193,4.193,0,0,1-1.584-.351l-.056-.03-16.419-9.549a3.788,3.788,0,0,1-1.184-1.267,3.267,3.267,0,0,1-.5-1.679v-18.881a3.176,3.176,0,0,1,.5-1.625,3.713,3.713,0,0,1,1.143-1.243c1.309-.732,2.606-1.473,4.01-2.291l4.24-2.471,4.241-2.466c1.383-.806,2.716-1.573,3.965-2.275a3.509,3.509,0,0,1,3.283-.025l16.44,9.524a3.172,3.172,0,0,1,1.558,2,3.7,3.7,0,0,1-.25,2.542,3.282,3.282,0,0,1-2.16,1.563,3.5,3.5,0,0,1-2.506-.275l-3.218-1.875-3.008-1.709q-1.5-.842-3.007-1.714l-2.08-1.187v26l11.242-6.466a3.177,3.177,0,0,1,2.581-.366,3.458,3.458,0,0,1,2.1,1.639,3.511,3.511,0,0,1,.285,2.546,3.137,3.137,0,0,1-1.569,2.005l-16.43,9.553a6.983,6.983,0,0,1-.7.25,3.2,3.2,0,0,1-.868.121Zm-7.7-32.765c-1.643.983-3.388,2.005-5.2,3.037v14.877c.877.49,1.719.972,2.507,1.433.9.526,1.769,1.053,2.626,1.58s1.734,1.057,2.6,1.559l1.77,1.032.01-26.074C-2918.413-1094.266-2919.865-1093.408-2921.25-1092.577Z" transform="translate(3003 1122)" fill="#ecf5e5"/>
    </g>
  </g>
</svg>
