<svg xmlns="http://www.w3.org/2000/svg" viewBox="0 0 1777.88 1285.93"><defs><style>.cls-1{fill:#2e94bc;}.cls-2{fill:#153b60;}</style></defs><g id="Capa_2" data-name="Capa 2"><g id="Capa_1-2" data-name="Capa 1"><path class="cls-1" d="M245.64,511.44q3.06,1.77,6.06,3.47l6,3.46c2,1.17,4.18,2.42,6.51,3.78a7,7,0,0,0,5.11.56,6.65,6.65,0,0,0,4.37-3.17,7.42,7.42,0,0,0,.51-5.13,6.33,6.33,0,0,0-3.16-4.09l-33.21-19.2a7.09,7.09,0,0,0-6.64.05c-2.52,1.42-5.21,3-8,4.59s-5.67,3.31-8.56,5l-8.58,5c-2.83,1.66-5.45,3.16-8.06,4.63a7.58,7.58,0,0,0-2.31,2.51,6.51,6.51,0,0,0-1,3.28v38.16a6.66,6.66,0,0,0,1,3.39,7.77,7.77,0,0,0,2.39,2.57l33.19,19.29.11.06a8.39,8.39,0,0,0,3.2.7,6.61,6.61,0,0,0,1.86-.24c.46-.14.9-.29,1.41-.5l33.2-19.3a6.38,6.38,0,0,0,3.17-4.11,7.16,7.16,0,0,0-.58-5.14,7,7,0,0,0-4.24-3.31,6.38,6.38,0,0,0-5.22.74l-22.72,13.06V509.05ZM227.7,561.65l-3.58-2.08c-1.75-1-3.52-2.09-5.25-3.15s-3.5-2.13-5.31-3.19c-1.59-.93-3.3-1.91-5.08-2.91V520.26c3.65-2.08,7.18-4.14,10.49-6.13,2.81-1.68,5.74-3.42,8.73-5.17Z"/><path class="cls-1" d="M355.79,519.61h0a7.24,7.24,0,0,0,.75-3.15,7,7,0,0,0-.76-3.13,5.6,5.6,0,0,0-2.28-2.43L320,491.56a5.85,5.85,0,0,0-4.24-.86,6.49,6.49,0,0,0-2.61.86l-33.28,19.1a1.62,1.62,0,0,0-.28.2,19.07,19.07,0,0,0-1.86,1.86,5.56,5.56,0,0,0-1,3.68v38.36a7,7,0,0,0,1.4,4.08,7.41,7.41,0,0,0,2.33,2l32.34,18.54.09.07a6.65,6.65,0,0,0,3.71,1.21,7.23,7.23,0,0,0,3.8-1.2,6.5,6.5,0,0,0,3.08-5.69V547.58l22.8,13.21.11.05a7.26,7.26,0,0,0,6.66-.19,6.47,6.47,0,0,0,2.63-2.63,1.22,1.22,0,0,0,.14-.33,6.33,6.33,0,0,0,.47-4.74A7.12,7.12,0,0,0,353,548.7q-6.45-3.65-12.61-7.16-5-2.87-10.22-5.88l23.14-13.33A6.54,6.54,0,0,0,355.79,519.61Zm-46.13,42.28c-1.26-.74-2.46-1.43-3.57-2.09l-5.32-3.13-5.25-3.09c-1.62-1-3.33-1.93-5.08-2.9V520.61c3.68-2.09,7.21-4.16,10.49-6.13,2.74-1.64,5.67-3.37,8.73-5.16Zm19.69-41.59c-1.84,1.1-3.83,2.25-5.92,3.45V509.29c2.43,1.39,4.61,2.66,6.5,3.79s3.83,2.24,5.92,3.44C333.44,517.9,331.26,519.17,329.35,520.3Z"/><path class="cls-1" d="M435.49,510.56l-33.36-19.2a7.07,7.07,0,0,0-6.66.06l-32.53,18.87-.2.07A6,6,0,0,0,360,513a7,7,0,0,0-1,3.43v38.15a7.19,7.19,0,0,0,1,3.55,6,6,0,0,0,2.78,2.6l.2.08,32.61,19,.11.06a8.67,8.67,0,0,0,3.32.71,8.31,8.31,0,0,0,3.16-.75l33.41-19.36a7.59,7.59,0,0,0,2.31-2.51,6.6,6.6,0,0,0,1-3.4V516.4a6.61,6.61,0,0,0-.92-3.32A6.79,6.79,0,0,0,435.49,510.56Zm-10.41,40-26,15.16-26.34-15V520.38q6.86-3.87,13.23-7.53l13.11-7.52c4.58,2.63,9,5.17,13.05,7.57s8.52,5,12.94,7.59Z"/><path class="cls-1" d="M518.12,522.31a6.21,6.21,0,0,0,3.75-6,6.9,6.9,0,0,0-3.51-6l-33.24-19.08a7.57,7.57,0,0,0-6.62.06l-33,19a7,7,0,0,0-3.53,6v38.15a5.37,5.37,0,0,0,1.86,4.56c.84.64,1.54,1.16,2.22,1.64l32.78,19a6,6,0,0,0,2.95.74h.31a7.11,7.11,0,0,0,3.14-.86l32.65-19,.2-.07a6.22,6.22,0,0,0,3.75-6,6.75,6.75,0,0,0-3.33-5.92,1.33,1.33,0,0,0-.42-.18l-22.59-13,22.37-12.91Zm-43,39.34-3.58-2.08c-1.79-1.06-3.57-2.11-5.32-3.16s-3.55-2.12-5.36-3.18c-1.59-.93-3.29-1.91-5.08-2.91V520.26l19.34-11.19Zm26.1-7.2-12.33,7.18V547.24l6.39,3.76C497.09,552.08,499.08,553.24,501.21,554.45Zm-2.32-36.83c-1.4.85-2.77,1.67-4.09,2.45s-2.67,1.56-4,2.33l-1.89,1.09V509.08l6.39,3.76c1.8,1.07,3.78,2.22,5.89,3.43C500.36,516.73,499.6,517.18,498.89,517.62Z"/><path class="cls-1" d="M801.07,513.08h0a6.79,6.79,0,0,0-2.46-2.53l-33.34-19.19a7.05,7.05,0,0,0-6.65.06l-29.75,17.25-29.72-17.08a6.13,6.13,0,0,0-4.11-1,7.09,7.09,0,0,0-2.86.74l-30,17.29-29.57-17a6.18,6.18,0,0,0-4.12-1,7,7,0,0,0-2.85.74L596.3,508.18l-29.11-16.79a7,7,0,0,0-3.54-.84,6.34,6.34,0,0,0-3.07.86l-33,18.91c-2.23,1.32-3.37,2.93-3.37,4.79v48.45a6.89,6.89,0,1,0,13.77,0V528.18l10,5.69,5.8,3.34c2,1.14,4.12,2.37,6.49,3.72a8.24,8.24,0,0,0,3.34,1,5.86,5.86,0,0,0,3.75-1c4-2.31,8.16-4.67,12.37-7,3.35-1.89,6.71-3.79,10-5.68v35.36a6.89,6.89,0,1,0,13.77,0V520L622,509.3v64.39a6.76,6.76,0,0,0,2,4.72,6.71,6.71,0,0,0,9.86,0,6.76,6.76,0,0,0,2-4.72v-64.4l4.18,2.39,6.05,3.47q3,1.7,6,3.46l6.52,3.78.09.05a8.33,8.33,0,0,0,1.22.41,7.38,7.38,0,0,0,5.76-.32l22.94-13.23v64.39a6.8,6.8,0,0,0,2,4.72,6.71,6.71,0,0,0,9.86,0,6.77,6.77,0,0,0,2-4.72v-64.4c1.45.83,2.85,1.62,4.17,2.39l6.06,3.47q3,1.7,6,3.46c1.14.65,2.32,1.33,3.54,2v33.89a7.19,7.19,0,0,0,1,3.55,6.06,6.06,0,0,0,2.78,2.6l.2.08,32.61,19,.11.06a8.67,8.67,0,0,0,3.32.71,8.16,8.16,0,0,0,3.16-.75l33.42-19.36A7.57,7.57,0,0,0,801,558a6.6,6.6,0,0,0,1-3.4V516.4A6.72,6.72,0,0,0,801.07,513.08ZM563.84,527.24q-5.55-3.16-10.55-6c-2.82-1.58-5.73-3.25-8.69-5l19.24-11q5.55,3.17,10.55,6c2.78,1.56,5.69,3.23,8.68,5Zm224.37,23.34-26,15.16-26.34-15V520.38q6.86-3.87,13.23-7.53l13.12-7.52c4.67,2.68,8.94,5.17,13,7.57s8.52,5,12.94,7.59Z"/><path class="cls-1" d="M181.07,500l-41.19-23.9a19.55,19.55,0,0,0-13.61,0L85,499.81a19.51,19.51,0,0,0-6.83,11.77l-.1,47.62A19.52,19.52,0,0,0,84.83,571L126,594.9a19.52,19.52,0,0,0,13.62,0l41.28-23.72a19.49,19.49,0,0,0,6.83-11.77l.1-47.62A19.52,19.52,0,0,0,181.07,500Zm-13,50.16a10.06,10.06,0,0,1-1,3.77,8.79,8.79,0,0,1-2.86,3.31l-.29.19-25.59,15.39a8.63,8.63,0,0,1-6.22,1.33c-.73-.18-1.21-.31-1.44-.38l-.49-.15L103.2,558.92a8.79,8.79,0,0,1-4.43-5.69,9.85,9.85,0,0,1,.57-6.42l.15-.34.2-.32a9,9,0,0,1,7.61-4.31,10.4,10.4,0,0,1,4,.75l.3.12,21.85,12,2-1.21,4.05-2.5c.44-.28.88-.56,1.33-.83l-38.44-21a7.77,7.77,0,0,1-3.31-3.33A9.36,9.36,0,0,1,98,521.64a10.88,10.88,0,0,1,.66-4,8.38,8.38,0,0,1,3.54-4.27l24.89-15.13A6.6,6.6,0,0,1,130,497a7.86,7.86,0,0,1,2-.3,8.1,8.1,0,0,1,2.32.25,6.8,6.8,0,0,1,2.72,1.21l25.58,13.93a8.66,8.66,0,0,1,4.34,5.41,9.21,9.21,0,0,1-.68,6.74l-.06.12a8.66,8.66,0,0,1-5.42,4.38,9.26,9.26,0,0,1-6.55-.53l-.26-.14-21.66-11.79-2,1.22L126.25,520l-1.33.81L163.8,542a8.57,8.57,0,0,1,3.42,3.77A9,9,0,0,1,168,550.17Z"/><path class="cls-1" d="M528.75,383.17,588,280.45a48.59,48.59,0,0,0,0-33.9L528.55,143.92A48.6,48.6,0,0,0,499.18,127l-118.56.1a48.54,48.54,0,0,0-29.34,17L292.08,246.8a48.67,48.67,0,0,0,0,33.89l59.37,102.64a48.65,48.65,0,0,0,29.37,16.92l118.56-.1A48.55,48.55,0,0,0,528.75,383.17ZM497,338.27a16.69,16.69,0,0,1-4.82,6.23,20.67,20.67,0,0,1-4.11,3.07,19.67,19.67,0,0,1-5.39,2.19,17,17,0,0,1-7.39.57l-72.52-.22a21.62,21.62,0,0,1-15.92-6.7,23.1,23.1,0,0,1-6.5-15.57v-.33a21.6,21.6,0,0,1,6.69-16,23,23,0,0,1,15-6.58l.73,0,61.4.18c1-1.74,2-3.41,2.92-5q3-5.3,6-10.43l1.95-3.35-110.27-.43a21.35,21.35,0,0,1-12-4.21,22.37,22.37,0,0,1-6.93-8.61,24.59,24.59,0,0,1-2.23-9.45,21.79,21.79,0,0,1,2.32-10.63l.41-.76,37.83-64c1.32-2.17,5.09-8.39,12-10.26,1.82-.49,3-.77,3.61-.89l1.26-.26,76.38.34a22,22,0,0,1,16.45,7.23,24.6,24.6,0,0,1,6.34,14.74l.08.93-.07.92a22.45,22.45,0,0,1-11.56,18.47,26.09,26.09,0,0,1-9.75,3.15l-.81.09-62.09-.46c-1,1.72-2,3.38-2.89,5-2,3.5-4,6.93-5.89,10.28-.64,1.12-1.28,2.26-1.94,3.4l109,.44a19.24,19.24,0,0,1,11.21,3.37,23.48,23.48,0,0,1,7.39,8,27,27,0,0,1,3.27,9.5,20.87,20.87,0,0,1-2.71,13.54Z"/><path class="cls-1" d="M1663,173.53a23.48,23.48,0,0,0-7.39-8,19.24,19.24,0,0,0-11.21-3.37l-109-.44c.66-1.14,1.3-2.28,1.94-3.4l5.89-10.28q1.36-2.4,2.9-5l62.08.45.81-.09a26.09,26.09,0,0,0,9.75-3.15,22.45,22.45,0,0,0,11.56-18.47l.07-.92-.07-.93a24.68,24.68,0,0,0-6.35-14.74A22,22,0,0,0,1607.46,98l-76.39-.34-1.26.26c-.59.12-1.79.4-3.61.89-7,1.87-10.73,8.09-12,10.26l-37.83,64-.41.76a21.79,21.79,0,0,0-2.32,10.63,24.59,24.59,0,0,0,2.23,9.45,22.37,22.37,0,0,0,6.93,8.61,21.35,21.35,0,0,0,12,4.21l110.27.43-2,3.35q-3,5.15-6,10.43-1.38,2.42-2.92,5l-61.4-.18-.73,0a23,23,0,0,0-15,6.58,21.6,21.6,0,0,0-6.69,16v.33a23.1,23.1,0,0,0,6.5,15.57,21.62,21.62,0,0,0,15.92,6.7l72.52.22a17,17,0,0,0,7.39-.57,19.85,19.85,0,0,0,5.4-2.19,20.9,20.9,0,0,0,4.1-3.07,16.69,16.69,0,0,0,4.82-6.23l36.58-62.62a20.87,20.87,0,0,0,2.71-13.54A27,27,0,0,0,1663,173.53Z"/><path class="cls-1" d="M1362.13,0V369.15h415.75V0Zm355.81,201.37-59.2,102.72a48.55,48.55,0,0,1-29.34,17l-118.56.1a48.65,48.65,0,0,1-29.37-16.92L1422.1,201.61a48.67,48.67,0,0,1,0-33.89L1481.27,65a48.54,48.54,0,0,1,29.34-17l118.56-.1a48.6,48.6,0,0,1,29.37,16.92l59.37,102.63A48.59,48.59,0,0,1,1717.94,201.37Z"/><path class="cls-1" d="M1658.54,428.39a48.65,48.65,0,0,0-29.37-16.92l-118.56.1a48.55,48.55,0,0,0-29.34,17l-59.19,102.72a48.64,48.64,0,0,0,0,33.9l59.37,102.63a48.6,48.6,0,0,0,29.37,16.92l118.56-.1a48.54,48.54,0,0,0,29.34-17l59.2-102.73a48.56,48.56,0,0,0,0-33.89Zm5,131.74-36.58,62.62a16.77,16.77,0,0,1-4.82,6.23,20.9,20.9,0,0,1-4.1,3.07,20.18,20.18,0,0,1-5.4,2.19,17,17,0,0,1-7.39.57l-72.52-.23a21.57,21.57,0,0,1-15.92-6.69,23.11,23.11,0,0,1-6.5-15.58V612a21.64,21.64,0,0,1,6.69-16,23,23,0,0,1,15-6.57l.73,0,61.4.17c1-1.73,2-3.41,2.92-5q3-5.29,6-10.43l2-3.35-110.27-.43a21.42,21.42,0,0,1-12-4.21,22.37,22.37,0,0,1-6.93-8.61,24.64,24.64,0,0,1-2.23-9.46,21.78,21.78,0,0,1,2.32-10.62l.41-.76,37.83-64c1.32-2.16,5.09-8.38,12-10.25,1.82-.49,3-.78,3.61-.9l1.26-.26,76.39.35a22,22,0,0,1,16.44,7.23,24.68,24.68,0,0,1,6.35,14.74l.07.92-.07.93a22.45,22.45,0,0,1-11.56,18.47,26.08,26.08,0,0,1-9.75,3.14l-.81.1-62.08-.46q-1.53,2.58-2.9,5l-5.89,10.28c-.64,1.12-1.28,2.25-1.94,3.39l109,.45a19.24,19.24,0,0,1,11.21,3.37,23.54,23.54,0,0,1,7.39,8,27.14,27.14,0,0,1,3.27,9.51A20.88,20.88,0,0,1,1663.52,560.13Z"/><path class="cls-2" d="M1201,173.53a23.48,23.48,0,0,0-7.39-8,19.25,19.25,0,0,0-11.22-3.37l-109-.44,1.94-3.4q2.87-5,5.88-10.28,1.38-2.4,2.9-5l62.09.45.8-.09a26,26,0,0,0,9.75-3.15,22.49,22.49,0,0,0,11.57-18.47l.06-.92-.07-.93a24.62,24.62,0,0,0-6.35-14.74A22,22,0,0,0,1145.51,98l-76.39-.34-1.26.26c-.58.12-1.78.4-3.6.89-7,1.87-10.74,8.09-12,10.26l-37.83,64-.41.76a21.8,21.8,0,0,0-2.33,10.63,24.6,24.6,0,0,0,2.24,9.45,22.28,22.28,0,0,0,6.93,8.61,21.29,21.29,0,0,0,12,4.21l110.27.43c-.65,1.12-1.29,2.24-1.94,3.35q-3,5.15-6,10.43c-.92,1.61-1.9,3.28-2.92,5l-61.41-.18-.73,0a23.08,23.08,0,0,0-15,6.58,21.64,21.64,0,0,0-6.69,16v.33a23,23,0,0,0,6.5,15.57,21.62,21.62,0,0,0,15.92,6.7l72.51.22a17,17,0,0,0,7.39-.57,19.73,19.73,0,0,0,5.4-2.19,20.61,20.61,0,0,0,4.1-3.07,16.59,16.59,0,0,0,4.82-6.23l36.58-62.62a20.8,20.8,0,0,0,2.71-13.54A27,27,0,0,0,1201,173.53Z"/><path class="cls-2" d="M900.19,0V369.15h415.75V0ZM1256,201.37,1196.8,304.09a48.61,48.61,0,0,1-29.35,17l-118.56.1a48.62,48.62,0,0,1-29.36-16.92L960.16,201.61a48.56,48.56,0,0,1,0-33.89L1019.32,65a48.59,48.59,0,0,1,29.35-17l118.56-.1a48.55,48.55,0,0,1,29.36,16.92L1256,167.47A48.64,48.64,0,0,1,1256,201.37Z"/><path class="cls-2" d="M1196.59,428.39a48.59,48.59,0,0,0-29.36-16.92l-118.56.1a48.61,48.61,0,0,0-29.35,17L960.13,531.27a48.59,48.59,0,0,0,0,33.9l59.37,102.63a48.57,48.57,0,0,0,29.36,16.92l118.56-.1a48.59,48.59,0,0,0,29.35-17L1256,564.92a48.61,48.61,0,0,0,0-33.89Zm5,131.74L1165,622.75a16.67,16.67,0,0,1-4.82,6.23,20.61,20.61,0,0,1-4.1,3.07,20,20,0,0,1-5.4,2.19,17,17,0,0,1-7.39.57l-72.51-.23a21.57,21.57,0,0,1-15.92-6.69,23,23,0,0,1-6.5-15.58V612a21.68,21.68,0,0,1,6.69-16,23.07,23.07,0,0,1,15-6.57l.73,0,61.41.17c1-1.73,2-3.41,2.92-5q3-5.29,6-10.43c.65-1.11,1.29-2.23,1.94-3.35l-110.27-.43a21.36,21.36,0,0,1-12-4.21,22.28,22.28,0,0,1-6.93-8.61,24.65,24.65,0,0,1-2.24-9.46,21.79,21.79,0,0,1,2.33-10.62l.41-.76,37.83-64c1.31-2.16,5.08-8.38,12-10.25,1.82-.49,3-.78,3.6-.9l1.26-.26,76.39.35A22,22,0,0,1,1162,468.8a24.62,24.62,0,0,1,6.35,14.74l.07.92-.06.93a22.49,22.49,0,0,1-11.57,18.47A26,26,0,0,1,1147,507l-.8.1-62.09-.46q-1.51,2.58-2.9,5-3,5.25-5.88,10.28l-1.94,3.39,109,.45a19.25,19.25,0,0,1,11.22,3.37,23.54,23.54,0,0,1,7.39,8,27.13,27.13,0,0,1,3.26,9.51A20.82,20.82,0,0,1,1201.57,560.13Z"/><path class="cls-2" d="M323.43,850.36v14.46c2.09-1.2,4.08-2.35,5.92-3.44s4.09-2.41,6.5-3.79c-2.09-1.19-4.08-2.35-5.92-3.44S325.86,851.76,323.43,850.36Z"/><path class="cls-2" d="M399.09,846.4,386,853.93q-6.37,3.66-13.23,7.53v30.3l26.34,15,26-15.16V861.56L412.14,854C408.05,851.58,403.67,849,399.09,846.4Z"/><path class="cls-2" d="M488.88,888.31V902.7l12.33-7.18c-2.13-1.21-4.12-2.37-5.94-3.45Z"/><path class="cls-2" d="M455.77,891.4c1.79,1,3.49,2,5.08,2.9,1.81,1.06,3.59,2.12,5.36,3.18s3.53,2.11,5.32,3.16l3.58,2.08V850.15l-19.34,11.18Z"/><path class="cls-2" d="M163.8,883.11l-38.88-21.22,1.33-.81,4.12-2.53,2-1.21L154,869.13l.26.13a9.32,9.32,0,0,0,6.55.54,8.71,8.71,0,0,0,5.42-4.39l.06-.11a9.24,9.24,0,0,0,.68-6.75,8.64,8.64,0,0,0-4.34-5.4l-25.58-13.93a6.66,6.66,0,0,0-2.72-1.21,7.75,7.75,0,0,0-2.32-.26,7.86,7.86,0,0,0-2,.3,6.72,6.72,0,0,0-2.89,1.28l-24.89,15.14a8.36,8.36,0,0,0-3.54,4.26,10.88,10.88,0,0,0-.66,4,9.36,9.36,0,0,0,1.09,4.23,7.74,7.74,0,0,0,3.31,3.34l38.44,21-1.33.83-4.05,2.51c-.62.38-1.28.79-2,1.2l-21.85-12-.3-.12a10.4,10.4,0,0,0-4-.75,9,9,0,0,0-7.61,4.32l-.2.31-.15.34a9.85,9.85,0,0,0-.57,6.42A8.77,8.77,0,0,0,103.2,900l26.92,14.72.49.15c.23.07.71.19,1.44.37,2.82.67,5.34-.81,6.22-1.32l25.59-15.4.29-.19A8.79,8.79,0,0,0,167,895a10.06,10.06,0,0,0,1-3.76,9,9,0,0,0-.8-4.37A8.57,8.57,0,0,0,163.8,883.11Z"/><path class="cls-2" d="M290.44,861.69v30.06c1.75,1,3.46,2,5.08,2.9l5.25,3.09c1.76,1,3.52,2.08,5.32,3.14l3.57,2.08V850.39c-3.06,1.79-6,3.52-8.73,5.16C297.65,857.53,294.12,859.59,290.44,861.69Z"/><path class="cls-2" d="M208.48,861.34V891.4c1.78,1,3.49,2,5.08,2.9,1.81,1.06,3.58,2.13,5.31,3.19s3.5,2.12,5.25,3.15l3.58,2.08V850c-3,1.75-5.92,3.48-8.73,5.16C215.66,857.19,212.13,859.25,208.48,861.34Z"/><path class="cls-2" d="M762.23,846.4l-13.12,7.53q-6.37,3.66-13.23,7.53v30.3l26.34,15,26-15.16V861.56L775.27,854C771.17,851.57,766.9,849.09,762.23,846.4Z"/><path class="cls-2" d="M488.88,850.16v14.4l1.89-1.08c1.36-.78,2.71-1.56,4-2.34s2.69-1.6,4.09-2.45c.71-.44,1.47-.89,2.27-1.35-2.11-1.2-4.09-2.35-5.89-3.43S491.25,851.54,488.88,850.16Z"/><path class="cls-2" d="M563.84,846.4l-19.24,11c3,1.73,5.87,3.4,8.69,5q5,2.8,10.55,6l19.23-11c-3-1.75-5.9-3.42-8.68-5Q569.4,849.56,563.84,846.4Z"/><path class="cls-2" d="M1.17,750.79v251.58H878.86V750.79ZM187.75,900.5a19.46,19.46,0,0,1-6.83,11.77L139.64,936A19.58,19.58,0,0,1,126,936l-41.19-23.9a19.52,19.52,0,0,1-6.78-11.8l.1-47.62A19.56,19.56,0,0,1,85,840.88l41.29-23.72a19.44,19.44,0,0,1,13.61,0l41.19,23.89a19.52,19.52,0,0,1,6.78,11.8Zm76.44-11a6.38,6.38,0,0,1,5.22-.74,7,7,0,0,1,4.24,3.31,7.18,7.18,0,0,1,.58,5.15,6.36,6.36,0,0,1-3.17,4.1l-33.2,19.3a12.71,12.71,0,0,1-1.41.5,6.25,6.25,0,0,1-1.86.25,8.41,8.41,0,0,1-3.2-.71l-.11-.06-33.19-19.29a7.77,7.77,0,0,1-2.39-2.57,6.63,6.63,0,0,1-1-3.39V857.23a6.47,6.47,0,0,1,1-3.27,7.62,7.62,0,0,1,2.31-2.52c2.61-1.47,5.23-3,8.06-4.63l8.58-5,8.56-5c2.8-1.64,5.49-3.18,8-4.6a7.09,7.09,0,0,1,6.64,0l33.21,19.2a6.33,6.33,0,0,1,3.16,4.09,7.46,7.46,0,0,1-.51,5.14,6.63,6.63,0,0,1-4.37,3.16,7,7,0,0,1-5.11-.56c-2.33-1.36-4.47-2.61-6.51-3.78l-6-3.46c-2-1.13-4-2.29-6.06-3.46q-2-1.15-4.17-2.4V902.6Zm76.22-6.93q6.15,3.52,12.61,7.16a7.12,7.12,0,0,1,3.22,4.25,6.33,6.33,0,0,1-.47,4.74,1.22,1.22,0,0,1-.14.33,6.41,6.41,0,0,1-2.63,2.63,7.26,7.26,0,0,1-6.66.19l-.11,0-22.8-13.21v26.23a6.48,6.48,0,0,1-3.08,5.68,7.23,7.23,0,0,1-3.8,1.2,6.65,6.65,0,0,1-3.71-1.21l-.09-.06-32.34-18.55a7.28,7.28,0,0,1-2.33-2,7,7,0,0,1-1.4-4.08V857.47a5.51,5.51,0,0,1,1-3.67,18,18,0,0,1,1.86-1.87,1.62,1.62,0,0,1,.28-.2l33.28-19.1a6.49,6.49,0,0,1,2.61-.86,5.9,5.9,0,0,1,4.24.86L353.5,852a5.52,5.52,0,0,1,2.28,2.42,7,7,0,0,1,.76,3.13,7.17,7.17,0,0,1-.75,3.15h0a6.54,6.54,0,0,1-2.46,2.72l-23.14,13.33Q335.4,879.75,340.41,882.61Zm98.44,13a6.6,6.6,0,0,1-1,3.4,7.59,7.59,0,0,1-2.31,2.51l-33.41,19.36a8.12,8.12,0,0,1-3.16.75,8.67,8.67,0,0,1-3.32-.71l-.11,0-32.61-19-.2-.08a6,6,0,0,1-2.78-2.6,7.19,7.19,0,0,1-1-3.55V857.47a7,7,0,0,1,1-3.43,6,6,0,0,1,2.78-2.61l.2-.07,32.53-18.87a7.1,7.1,0,0,1,6.66-.06l33.36,19.21a6.76,6.76,0,0,1,2.44,2.51,6.61,6.61,0,0,1,.92,3.32Zm79.27-6.22a1.33,1.33,0,0,1,.42.18,6.75,6.75,0,0,1,3.33,5.93,6.21,6.21,0,0,1-3.75,6l-.2.08-32.65,19a7,7,0,0,1-3.14.86h-.31a6.08,6.08,0,0,1-2.95-.73l-32.78-19c-.68-.48-1.38-1-2.22-1.64a5.35,5.35,0,0,1-1.86-4.55V857.35a7,7,0,0,1,3.53-6l33-19a7.54,7.54,0,0,1,6.62-.07l33.24,19.09a6.88,6.88,0,0,1,3.51,6,6.2,6.2,0,0,1-3.75,6,1.45,1.45,0,0,1-.22.09l-22.37,12.9ZM802,895.62a6.6,6.6,0,0,1-1,3.4,7.57,7.57,0,0,1-2.3,2.51l-33.42,19.36a8.16,8.16,0,0,1-3.16.75,8.67,8.67,0,0,1-3.32-.71l-.11,0-32.61-19-.2-.07a6.09,6.09,0,0,1-2.78-2.61,7.19,7.19,0,0,1-1-3.55V861.73c-1.22-.71-2.4-1.4-3.54-2.05q-3-1.77-6-3.46c-2-1.14-4-2.29-6.06-3.47l-4.17-2.39v64.4a6.81,6.81,0,0,1-2,4.73,6.73,6.73,0,0,1-9.86,0,6.84,6.84,0,0,1-2-4.73V850.38L665.61,863.6a7.38,7.38,0,0,1-5.76.32,6.49,6.49,0,0,1-1.22-.41l-.09,0L652,859.68q-3-1.77-6-3.46c-2-1.14-4-2.29-6.05-3.47l-4.18-2.39v64.4a6.8,6.8,0,0,1-2,4.73,6.73,6.73,0,0,1-9.86,0,6.8,6.8,0,0,1-2-4.73V850.38l-18.51,10.67v43.58a6.89,6.89,0,1,1-13.77,0V869.28c-3.29,1.88-6.65,3.79-10,5.67-4.21,2.36-8.37,4.72-12.37,7a5.8,5.8,0,0,1-3.75,1,8.24,8.24,0,0,1-3.34-1q-3.56-2-6.49-3.72l-5.8-3.34-10-5.68v35.37a6.89,6.89,0,1,1-13.77,0V856.18c0-1.85,1.14-3.46,3.37-4.78l33-18.91a6.23,6.23,0,0,1,3.07-.86,6.84,6.84,0,0,1,3.54.84l29.11,16.78,29.31-16.88a6.9,6.9,0,0,1,2.85-.73,6.17,6.17,0,0,1,4.12,1l29.57,17,30-17.29a7,7,0,0,1,2.86-.73,6.13,6.13,0,0,1,4.11,1l29.72,17.08,29.75-17.25a7.05,7.05,0,0,1,6.65-.06l33.34,19.19a6.86,6.86,0,0,1,2.46,2.53h0a6.72,6.72,0,0,1,.91,3.32Z"/><path class="cls-1" d="M322.26,1133.93v14.45c2.09-1.19,4.08-2.35,5.92-3.44s4.1-2.41,6.5-3.79c-2.09-1.19-4.07-2.34-5.91-3.44S324.69,1135.32,322.26,1133.93Z"/><path class="cls-1" d="M397.93,1130l-13.12,7.53q-6.37,3.66-13.22,7.53v30.31l26.33,15,26-15.15v-30.1q-6.63-3.87-12.95-7.58C406.88,1135.14,402.5,1132.59,397.93,1130Z"/><path class="cls-1" d="M207.31,1144.9V1175c1.79,1,3.49,2,5.08,2.91q2.72,1.59,5.31,3.18c1.73,1.06,3.5,2.13,5.26,3.16l3.57,2.08V1133.6c-3,1.75-5.92,3.48-8.72,5.17C214.49,1140.75,211,1142.82,207.31,1144.9Z"/><path class="cls-1" d="M162.63,1166.67l-38.88-21.21,1.33-.81,4.13-2.54,2-1.21,21.65,11.79.27.13a9.24,9.24,0,0,0,6.54.54,8.71,8.71,0,0,0,5.43-4.38l.06-.12a9.21,9.21,0,0,0,.67-6.74,8.66,8.66,0,0,0-4.34-5.41l-25.58-13.93a6.8,6.8,0,0,0-2.72-1.21,8.09,8.09,0,0,0-2.32-.26,8.82,8.82,0,0,0-2,.3,6.72,6.72,0,0,0-2.89,1.28L101.05,1138a8.37,8.37,0,0,0-3.55,4.26,10.9,10.9,0,0,0-.66,4,9.52,9.52,0,0,0,1.09,4.23,7.73,7.73,0,0,0,3.32,3.33l38.43,21-1.33.83-4,2.51-2,1.2-21.85-12-.3-.12a10.39,10.39,0,0,0-4-.75,9,9,0,0,0-7.62,4.32l-.2.31-.15.34a9.93,9.93,0,0,0-.57,6.42,8.81,8.81,0,0,0,4.43,5.7L129,1198.27l.49.15c.23.07.71.2,1.45.37,2.81.67,5.33-.81,6.21-1.32l25.6-15.39.29-.19a8.93,8.93,0,0,0,2.85-3.31,9.88,9.88,0,0,0,1-3.77,8.85,8.85,0,0,0-.8-4.37A8.63,8.63,0,0,0,162.63,1166.67Z"/><path class="cls-1" d="M289.27,1145.25v30.06c1.75,1,3.46,2,5.08,2.91l5.25,3.09,5.32,3.13c1.11.66,2.31,1.35,3.58,2.08V1134c-3.06,1.79-6,3.52-8.73,5.17C296.48,1141.09,293,1143.15,289.27,1145.25Z"/><path class="cls-1" d="M454.6,1175c1.79,1,3.49,2,5.08,2.91,1.81,1.06,3.59,2.11,5.36,3.17s3.53,2.11,5.33,3.17l3.57,2.08v-52.58l-19.34,11.18Z"/><path class="cls-1" d="M562.67,1130l-19.23,11c2.95,1.73,5.87,3.4,8.69,5q5,2.79,10.54,5.95l19.23-11c-3-1.74-5.9-3.42-8.68-5Q568.22,1133.12,562.67,1130Z"/><path class="cls-1" d="M761.06,1130l-13.12,7.53q-6.37,3.66-13.22,7.53v30.31l26.33,15,26-15.15v-30.1q-6.63-3.87-12.95-7.58C770,1135.13,765.73,1132.65,761.06,1130Z"/><path class="cls-1" d="M487.71,1171.88v14.39l12.33-7.18c-2.13-1.22-4.12-2.37-5.94-3.46S490.08,1173.26,487.71,1171.88Z"/><path class="cls-1" d="M0,1034.35v251.58H877.7V1034.35Zm186.59,149.71a19.52,19.52,0,0,1-6.84,11.78l-41.28,23.72a19.47,19.47,0,0,1-13.62,0l-41.18-23.89a19.53,19.53,0,0,1-6.79-11.8l.1-47.62a19.56,19.56,0,0,1,6.83-11.78l41.29-23.72a19.58,19.58,0,0,1,13.62,0l41.18,23.89a19.47,19.47,0,0,1,6.78,11.8Zm76.44-11a6.43,6.43,0,0,1,5.21-.74,7,7,0,0,1,4.24,3.32,7.11,7.11,0,0,1,.58,5.14,6.4,6.4,0,0,1-3.17,4.11l-33.2,19.3c-.51.2-.94.36-1.4.5a6.68,6.68,0,0,1-1.87.24,8.41,8.41,0,0,1-3.2-.71l-.11,0-33.19-19.3a7.74,7.74,0,0,1-2.39-2.56,6.68,6.68,0,0,1-1-3.4V1140.8a6.49,6.49,0,0,1,1-3.28,7.69,7.69,0,0,1,2.31-2.51c2.61-1.48,5.23-3,8.07-4.63s5.67-3.31,8.57-5l8.57-5c2.79-1.63,5.48-3.18,8-4.59a7.06,7.06,0,0,1,6.64,0L269.91,1135a6.39,6.39,0,0,1,3.15,4.1,7.38,7.38,0,0,1-.51,5.13,6.61,6.61,0,0,1-4.37,3.16,7.07,7.07,0,0,1-5.11-.55l-6.5-3.79-6-3.45-6.06-3.47c-1.32-.77-2.71-1.56-4.17-2.39v52.48Zm76.21-6.92q6.17,3.51,12.61,7.15a7.14,7.14,0,0,1,3.22,4.26,6.34,6.34,0,0,1-.47,4.74,2.26,2.26,0,0,1-.13.33,6.55,6.55,0,0,1-2.64,2.63,7.31,7.31,0,0,1-6.66.19l-.11-.06-22.8-13.2v26.22a6.48,6.48,0,0,1-3.07,5.68,7.28,7.28,0,0,1-3.81,1.2,6.66,6.66,0,0,1-3.71-1.2l-.09-.07-32.33-18.54a7.24,7.24,0,0,1-2.34-2,7.07,7.07,0,0,1-1.4-4.07V1141a5.53,5.53,0,0,1,1-3.67,19.06,19.06,0,0,1,1.86-1.87,2.43,2.43,0,0,1,.28-.2l33.28-19.1a6.56,6.56,0,0,1,2.61-.85,5.84,5.84,0,0,1,4.24.85l33.54,19.35a5.58,5.58,0,0,1,2.27,2.43,6.94,6.94,0,0,1,.76,3.12,7.3,7.3,0,0,1-.74,3.15h0a6.52,6.52,0,0,1-2.46,2.71L329,1160.29Q334.23,1163.32,339.24,1166.18Zm98.44,13a6.64,6.64,0,0,1-1,3.39,7.73,7.73,0,0,1-2.31,2.52L401,1204.46a8.31,8.31,0,0,1-3.16.75,8.71,8.71,0,0,1-3.32-.71l-.11-.06-32.61-19-.2-.07a6,6,0,0,1-2.78-2.61,7.12,7.12,0,0,1-1-3.54V1141a7,7,0,0,1,1-3.43,6,6,0,0,1,2.79-2.6l.19-.08,32.54-18.87A7.08,7.08,0,0,1,401,1116l33.36,19.21a6.89,6.89,0,0,1,2.45,2.52,6.69,6.69,0,0,1,.91,3.31ZM517,1173a1.74,1.74,0,0,1,.41.18,6.78,6.78,0,0,1,3.33,5.93,6.2,6.2,0,0,1-3.75,6l-.2.08-32.65,19a7.11,7.11,0,0,1-3.14.86h-.31a6,6,0,0,1-2.95-.74l-32.78-19c-.68-.48-1.38-1-2.22-1.64a5.4,5.4,0,0,1-1.86-4.56v-38.15a7.05,7.05,0,0,1,3.53-6l33-19a7.57,7.57,0,0,1,6.62-.07L517.2,1135a6.87,6.87,0,0,1,3.5,6,6.22,6.22,0,0,1-3.75,6l-.22.08-22.37,12.9Zm283.85,6.23a6.64,6.64,0,0,1-1,3.39,7.73,7.73,0,0,1-2.31,2.52l-33.42,19.36a8.16,8.16,0,0,1-3.16.75,8.62,8.62,0,0,1-3.31-.71l-.12-.06-32.61-19-.19-.07a6.06,6.06,0,0,1-2.79-2.61,7.12,7.12,0,0,1-1-3.54v-33.9l-3.54-2-6-3.46q-3-1.69-6.06-3.47l-4.17-2.39v64.4a6.84,6.84,0,0,1-1.95,4.73,6.71,6.71,0,0,1-9.86,0,6.77,6.77,0,0,1-2-4.73v-64.38l-22.94,13.23a7.35,7.35,0,0,1-5.75.31,7.06,7.06,0,0,1-1.23-.4l-.09,0c-2.34-1.37-4.49-2.62-6.52-3.79l-6-3.46q-3-1.69-6-3.47l-4.18-2.39v64.4a6.8,6.8,0,0,1-2,4.73,6.71,6.71,0,0,1-9.86,0,6.81,6.81,0,0,1-1.95-4.73v-64.38l-18.51,10.67v43.58a6.89,6.89,0,1,1-13.77,0v-35.35c-3.29,1.88-6.64,3.79-10,5.67-4.21,2.36-8.37,4.73-12.37,7a5.86,5.86,0,0,1-3.75,1,8.37,8.37,0,0,1-3.33-1c-2.38-1.34-4.54-2.58-6.5-3.71s-3.89-2.25-5.8-3.35l-10-5.68v35.37a6.89,6.89,0,1,1-13.77,0v-48.45c0-1.85,1.14-3.46,3.37-4.78l33-18.91a6.23,6.23,0,0,1,3.07-.86,6.84,6.84,0,0,1,3.54.84l29.11,16.78,29.31-16.88a7.29,7.29,0,0,1,2.85-.73,6.21,6.21,0,0,1,4.12,1l29.57,17,30-17.29a7.29,7.29,0,0,1,2.86-.73,6.13,6.13,0,0,1,4.11,1l29.72,17.09,29.75-17.26a7.1,7.1,0,0,1,6.66-.06l33.33,19.2a6.89,6.89,0,0,1,2.47,2.53h0a6.59,6.59,0,0,1,.91,3.31Z"/><path class="cls-1" d="M487.71,1133.72v14.4l1.89-1.08c1.36-.78,2.71-1.56,4-2.34s2.69-1.59,4.09-2.45c.72-.44,1.48-.89,2.27-1.34-2.11-1.21-4.09-2.36-5.89-3.43Z"/><path class="cls-1" d="M1144.66,1136.08l6.06,3.47,6,3.45,6.5,3.79a7.09,7.09,0,0,0,5.12.55,6.59,6.59,0,0,0,4.36-3.16,7.44,7.44,0,0,0,.52-5.13,6.41,6.41,0,0,0-3.16-4.1l-33.22-19.19a7,7,0,0,0-6.63,0c-2.52,1.41-5.22,3-8,4.59l-8.57,5-8.57,5c-2.84,1.65-5.45,3.15-8.07,4.63a7.56,7.56,0,0,0-2.3,2.51,6.41,6.41,0,0,0-1,3.28V1179a6.6,6.6,0,0,0,1,3.4,7.54,7.54,0,0,0,2.39,2.56l33.18,19.3.12,0a8.37,8.37,0,0,0,3.19.71,6.63,6.63,0,0,0,1.87-.24c.46-.14.89-.3,1.4-.5l33.21-19.3a6.43,6.43,0,0,0,3.17-4.11,7.16,7.16,0,0,0-.58-5.14,7,7,0,0,0-4.24-3.32,6.46,6.46,0,0,0-5.22.74l-22.72,13.07v-52.48Zm-17.94,50.21-3.58-2.08c-1.76-1-3.52-2.1-5.25-3.16s-3.51-2.12-5.31-3.18c-1.59-.94-3.3-1.91-5.08-2.91V1144.9c3.65-2.08,7.18-4.15,10.49-6.13,2.8-1.69,5.73-3.42,8.73-5.17Z"/><path class="cls-1" d="M1254.81,1144.25h0a7.3,7.3,0,0,0,.74-3.15,6.92,6.92,0,0,0-.75-3.12,5.54,5.54,0,0,0-2.28-2.43L1219,1116.19a5.86,5.86,0,0,0-4.25-.85,6.48,6.48,0,0,0-2.6.85l-33.28,19.1a1.79,1.79,0,0,0-.28.2,17.05,17.05,0,0,0-1.86,1.87,5.52,5.52,0,0,0-1,3.67v38.37a7,7,0,0,0,1.4,4.07,7.33,7.33,0,0,0,2.33,2l32.34,18.54.09.07a6.63,6.63,0,0,0,3.7,1.2,7.26,7.26,0,0,0,3.81-1.2,6.49,6.49,0,0,0,3.08-5.68v-26.22l22.79,13.2.11.06a7.34,7.34,0,0,0,6.67-.19,6.53,6.53,0,0,0,2.63-2.63,2.33,2.33,0,0,0,.14-.33,6.34,6.34,0,0,0,.47-4.74,7.14,7.14,0,0,0-3.22-4.26q-6.45-3.63-12.61-7.15-5-2.87-10.22-5.89l23.14-13.33A6.52,6.52,0,0,0,1254.81,1144.25Zm-46.13,42.27-3.58-2.08-5.32-3.13-5.24-3.09c-1.63-1-3.33-1.93-5.08-2.91v-30.06c3.68-2.1,7.2-4.16,10.49-6.13,2.74-1.65,5.67-3.38,8.73-5.17Zm19.68-41.58c-1.84,1.09-3.82,2.25-5.91,3.44v-14.45c2.43,1.39,4.61,2.66,6.5,3.78s3.83,2.25,5.92,3.44C1232.46,1142.53,1230.28,1143.81,1228.36,1144.94Z"/><path class="cls-1" d="M1334.51,1135.2,1301.15,1116a7.1,7.1,0,0,0-6.66.06L1262,1134.92l-.2.08a6,6,0,0,0-2.78,2.6,6.91,6.91,0,0,0-1,3.43v38.16a7,7,0,0,0,1,3.54,6,6,0,0,0,2.78,2.61l.19.07,32.62,19,.11.06a8.66,8.66,0,0,0,3.31.71,8.31,8.31,0,0,0,3.17-.75l33.41-19.36a7.63,7.63,0,0,0,2.31-2.52,6.66,6.66,0,0,0,1-3.39V1141a6.6,6.6,0,0,0-.92-3.31A6.86,6.86,0,0,0,1334.51,1135.2Zm-10.41,40-26,15.15-26.33-15V1145q6.86-3.87,13.23-7.53l13.11-7.53c4.57,2.63,9,5.18,13,7.58l12.95,7.58Z"/><path class="cls-1" d="M1417.14,1147a6.21,6.21,0,0,0,3.74-6,6.87,6.87,0,0,0-3.5-6l-33.24-19.09a7.57,7.57,0,0,0-6.62.07l-33,19a7.05,7.05,0,0,0-3.53,6v38.15a5.37,5.37,0,0,0,1.87,4.56c.84.64,1.53,1.16,2.22,1.64l32.78,19a6,6,0,0,0,2.95.74h.3a7,7,0,0,0,3.14-.86l32.65-19,.2-.08a6.19,6.19,0,0,0,3.75-6,6.77,6.77,0,0,0-3.32-5.93,2,2,0,0,0-.42-.18l-22.59-13,22.37-12.9Zm-43,39.34-3.58-2.08c-1.79-1.06-3.57-2.11-5.33-3.17s-3.55-2.11-5.35-3.17c-1.59-.94-3.3-1.91-5.08-2.91v-30.07l19.34-11.18Zm26.1-7.2-12.33,7.18v-14.39q3.55,2.07,6.38,3.75C1396.11,1176.72,1398.1,1177.87,1400.23,1179.09Zm-2.33-36.84c-1.4.86-2.76,1.67-4.08,2.45l-4,2.34-1.89,1.08v-14.4q3.55,2.08,6.38,3.76c1.81,1.07,3.78,2.22,5.9,3.43C1399.38,1141.36,1398.62,1141.81,1397.9,1142.25Z"/><path class="cls-1" d="M1700.08,1137.72h0a6.81,6.81,0,0,0-2.47-2.53l-33.33-19.2a7.1,7.1,0,0,0-6.66.06l-29.75,17.26-29.71-17.09a6.14,6.14,0,0,0-4.12-1,7.29,7.29,0,0,0-2.85.73l-30,17.29-29.58-17a6.18,6.18,0,0,0-4.11-1,7.35,7.35,0,0,0-2.86.73l-29.3,16.88L1466.2,1116a6.8,6.8,0,0,0-3.53-.84,6.2,6.2,0,0,0-3.07.86l-33,18.91c-2.24,1.32-3.37,2.93-3.37,4.78v48.45a6.89,6.89,0,1,0,13.77,0v-35.37l10,5.68c1.91,1.1,3.85,2.21,5.8,3.35s4.12,2.37,6.49,3.71a8.42,8.42,0,0,0,3.34,1,5.86,5.86,0,0,0,3.75-1c4-2.31,8.16-4.68,12.37-7,3.35-1.88,6.71-3.79,10-5.67v35.35a6.88,6.88,0,1,0,13.76,0v-43.58l18.51-10.67v64.38a6.77,6.77,0,0,0,2,4.73,6.71,6.71,0,0,0,9.86,0,6.84,6.84,0,0,0,2-4.73v-64.4l4.17,2.39q3.06,1.77,6.06,3.47l6,3.46c2,1.17,4.18,2.42,6.51,3.79l.1,0a6.7,6.7,0,0,0,1.22.4,7.35,7.35,0,0,0,5.75-.31l23-13.23v64.38a6.81,6.81,0,0,0,2,4.73,6.71,6.71,0,0,0,9.86,0,6.8,6.8,0,0,0,1.95-4.73v-64.4l4.18,2.39c2,1.18,4,2.34,6,3.47l6,3.46,3.54,2v33.9a7,7,0,0,0,1,3.54,6,6,0,0,0,2.78,2.61l.2.07,32.61,19,.11.06a8.67,8.67,0,0,0,3.32.71,8.16,8.16,0,0,0,3.16-.75l33.41-19.36a7.63,7.63,0,0,0,2.31-2.52,6.56,6.56,0,0,0,1-3.39V1141A6.6,6.6,0,0,0,1700.08,1137.72Zm-237.23,14.15q-5.55-3.15-10.54-5.95c-2.82-1.58-5.73-3.25-8.69-5l19.24-11q5.55,3.16,10.54,6c2.79,1.56,5.7,3.24,8.69,5Zm224.38,23.35-26,15.15-26.34-15V1145q6.86-3.87,13.23-7.53l13.11-7.53c4.68,2.69,9,5.17,13,7.58l13,7.58Z"/><path class="cls-1" d="M1080.09,1124.64l-41.19-23.89a19.55,19.55,0,0,0-13.61,0L984,1124.44a19.51,19.51,0,0,0-6.83,11.78l-.1,47.62a19.52,19.52,0,0,0,6.78,11.8l41.19,23.89a19.44,19.44,0,0,0,13.61,0l41.29-23.72a19.51,19.51,0,0,0,6.83-11.78l.1-47.62A19.52,19.52,0,0,0,1080.09,1124.64Zm-13,50.17a9.89,9.89,0,0,1-1,3.77,8.75,8.75,0,0,1-2.85,3.31l-.29.19-25.59,15.39c-.88.51-3.4,2-6.22,1.32-.73-.17-1.21-.3-1.44-.37l-.5-.15-26.92-14.71a8.87,8.87,0,0,1-4.43-5.7,9.87,9.87,0,0,1,.58-6.42l.15-.34.2-.31a9,9,0,0,1,7.61-4.32,10.4,10.4,0,0,1,4,.75l.3.12,21.85,12,2-1.2,4-2.51,1.34-.83-38.44-21a7.79,7.79,0,0,1-3.32-3.33,9.38,9.38,0,0,1-1.08-4.23,10.69,10.69,0,0,1,.66-4,8.4,8.4,0,0,1,3.54-4.26l24.89-15.14a6.67,6.67,0,0,1,2.89-1.28,8.82,8.82,0,0,1,2-.3,8.12,8.12,0,0,1,2.33.26,6.92,6.92,0,0,1,2.72,1.21l25.58,13.93a8.69,8.69,0,0,1,4.34,5.41,9.26,9.26,0,0,1-.68,6.74l-.06.12a8.7,8.7,0,0,1-5.42,4.38,9.27,9.27,0,0,1-6.55-.54l-.26-.13-21.66-11.79-2,1.21c-1.39.86-2.76,1.71-4.13,2.54l-1.32.81,38.87,21.21a8.59,8.59,0,0,1,3.43,3.77A9.08,9.08,0,0,1,1067,1174.81Z"/><path class="cls-2" d="M1144.66,852.52c2,1.17,4.06,2.33,6.06,3.46l6,3.46c2,1.17,4.18,2.42,6.5,3.78a7,7,0,0,0,5.12.56,6.59,6.59,0,0,0,4.36-3.16,7.46,7.46,0,0,0,.52-5.14,6.36,6.36,0,0,0-3.16-4.09l-33.22-19.2a7.07,7.07,0,0,0-6.63,0c-2.52,1.42-5.22,3-8,4.6l-8.57,5-8.57,5c-2.84,1.66-5.45,3.16-8.07,4.63a7.6,7.6,0,0,0-2.3,2.52,6.38,6.38,0,0,0-1,3.27v38.16a6.54,6.54,0,0,0,1,3.39,7.57,7.57,0,0,0,2.39,2.57l33.18,19.29.12.06a8.37,8.37,0,0,0,3.19.71,6.27,6.27,0,0,0,1.87-.25,12.58,12.58,0,0,0,1.4-.5l33.21-19.3a6.39,6.39,0,0,0,3.17-4.1,7.18,7.18,0,0,0-.58-5.15,7,7,0,0,0-4.24-3.31,6.38,6.38,0,0,0-5.22.74l-22.72,13.06V850.12Zm-17.94,50.2-3.58-2.08c-1.76-1-3.52-2.09-5.25-3.15s-3.51-2.13-5.31-3.19c-1.59-.93-3.3-1.91-5.08-2.9V861.34c3.65-2.09,7.18-4.15,10.49-6.14,2.8-1.68,5.73-3.41,8.73-5.16Z"/><path class="cls-2" d="M1254.81,860.68h0a7.3,7.3,0,0,0,.74-3.15,7,7,0,0,0-.75-3.13,5.52,5.52,0,0,0-2.28-2.42L1219,832.63a5.91,5.91,0,0,0-4.25-.86,6.42,6.42,0,0,0-2.6.86l-33.28,19.1a1.31,1.31,0,0,0-.28.2,17.05,17.05,0,0,0-1.86,1.87,5.51,5.51,0,0,0-1,3.67v38.36a7,7,0,0,0,1.4,4.08,7.28,7.28,0,0,0,2.33,2l32.34,18.55.09.06a6.65,6.65,0,0,0,3.7,1.21,7.26,7.26,0,0,0,3.81-1.2,6.5,6.5,0,0,0,3.08-5.68V888.65l22.79,13.21.11,0a7.27,7.27,0,0,0,6.67-.19,6.41,6.41,0,0,0,2.63-2.63,1.64,1.64,0,0,0,.14-.33,6.33,6.33,0,0,0,.47-4.74,7.12,7.12,0,0,0-3.22-4.25q-6.45-3.63-12.61-7.16-5-2.86-10.22-5.88l23.14-13.33A6.54,6.54,0,0,0,1254.81,860.68ZM1208.68,903l-3.58-2.08c-1.8-1.06-3.56-2.09-5.32-3.14l-5.24-3.09c-1.63-.95-3.33-1.92-5.08-2.9V861.69c3.68-2.1,7.2-4.16,10.49-6.14,2.74-1.64,5.67-3.37,8.73-5.16Zm19.68-41.58c-1.84,1.09-3.82,2.24-5.91,3.44V850.36c2.43,1.4,4.61,2.67,6.5,3.79s3.83,2.25,5.92,3.44C1232.46,859,1230.28,860.24,1228.36,861.38Z"/><path class="cls-2" d="M1334.51,851.64l-33.36-19.21a7.1,7.1,0,0,0-6.66.06L1262,851.36l-.2.07A6,6,0,0,0,1259,854a6.88,6.88,0,0,0-1,3.43v38.15a7.08,7.08,0,0,0,1,3.55,6,6,0,0,0,2.78,2.6l.19.08,32.62,19,.11,0a8.66,8.66,0,0,0,3.31.71,8.13,8.13,0,0,0,3.17-.75l33.41-19.36a7.59,7.59,0,0,0,2.31-2.51,6.69,6.69,0,0,0,1-3.4V857.47a6.61,6.61,0,0,0-.92-3.32A6.84,6.84,0,0,0,1334.51,851.64Zm-10.41,40-26,15.16-26.33-15v-30.3q6.86-3.87,13.23-7.53l13.11-7.53c4.57,2.63,9,5.18,13,7.58l12.95,7.58Z"/><path class="cls-2" d="M1417.14,863.38a6.19,6.19,0,0,0,3.74-6,6.87,6.87,0,0,0-3.5-6l-33.24-19.09a7.53,7.53,0,0,0-6.62.07l-33,19a7,7,0,0,0-3.53,6v38.16a5.35,5.35,0,0,0,1.87,4.55c.84.65,1.53,1.16,2.22,1.64l32.78,19a6.08,6.08,0,0,0,2.95.73h.3a6.91,6.91,0,0,0,3.14-.86l32.65-19,.2-.08a6.2,6.2,0,0,0,3.75-6,6.74,6.74,0,0,0-3.32-5.93,1.33,1.33,0,0,0-.42-.18l-22.59-13,22.37-12.9A1.45,1.45,0,0,0,1417.14,863.38Zm-43,39.34-3.58-2.08c-1.79-1-3.57-2.11-5.33-3.16s-3.55-2.12-5.35-3.18c-1.59-.93-3.3-1.91-5.08-2.9V861.33l19.34-11.18Zm26.1-7.2-12.33,7.18V888.31q3.55,2.09,6.38,3.76C1396.11,893.15,1398.1,894.31,1400.23,895.52Zm-2.33-36.83q-2.1,1.27-4.08,2.45l-4,2.34-1.89,1.08v-14.4c2.37,1.38,4.5,2.64,6.38,3.75s3.78,2.23,5.9,3.43Q1399,858,1397.9,858.69Z"/><path class="cls-2" d="M1700.08,854.15h0a6.89,6.89,0,0,0-2.47-2.53l-33.33-19.19a7.07,7.07,0,0,0-6.66.06l-29.75,17.25-29.71-17.08a6.14,6.14,0,0,0-4.12-1,7,7,0,0,0-2.85.73l-30,17.29-29.58-17a6.13,6.13,0,0,0-4.11-1,7,7,0,0,0-2.86.73l-29.3,16.88-29.12-16.78a6.8,6.8,0,0,0-3.53-.84,6.2,6.2,0,0,0-3.07.86l-33,18.91c-2.24,1.32-3.37,2.93-3.37,4.78v48.45a6.89,6.89,0,1,0,13.77,0V869.26l10,5.68,5.8,3.34q2.94,1.71,6.49,3.72a8.24,8.24,0,0,0,3.34,1,5.8,5.8,0,0,0,3.75-1c4-2.31,8.16-4.67,12.37-7,3.35-1.88,6.71-3.79,10-5.67v35.35a6.88,6.88,0,1,0,13.76,0V861.05L1521,850.38v64.38a6.81,6.81,0,0,0,2,4.73,6.73,6.73,0,0,0,9.86,0,6.84,6.84,0,0,0,2-4.73v-64.4l4.17,2.39c2,1.18,4.06,2.33,6.06,3.47s4,2.28,6,3.46l6.51,3.78.1,0a6,6,0,0,0,1.22.41,7.35,7.35,0,0,0,5.75-.32l23-13.22v64.38a6.84,6.84,0,0,0,2,4.73,6.73,6.73,0,0,0,9.86,0,6.8,6.8,0,0,0,1.95-4.73v-64.4l4.18,2.39,6,3.47q3,1.69,6,3.46c1.14.65,2.31,1.34,3.54,2.05v33.89a7.08,7.08,0,0,0,1,3.55,6,6,0,0,0,2.78,2.61l.2.07,32.61,19,.11,0a8.67,8.67,0,0,0,3.32.71,8.16,8.16,0,0,0,3.16-.75l33.41-19.36A7.59,7.59,0,0,0,1700,899a6.6,6.6,0,0,0,1-3.4V857.47A6.63,6.63,0,0,0,1700.08,854.15Zm-237.23,14.16q-5.55-3.15-10.54-6c-2.82-1.58-5.73-3.25-8.69-5l19.24-11q5.55,3.15,10.54,6c2.79,1.56,5.7,3.23,8.69,5Zm224.38,23.34-26,15.16-26.34-15v-30.3q6.86-3.87,13.23-7.53l13.11-7.53c4.68,2.69,9,5.17,13,7.58l13,7.58Z"/><path class="cls-2" d="M1080.09,841.08l-41.19-23.89a19.44,19.44,0,0,0-13.61,0L984,840.88a19.51,19.51,0,0,0-6.83,11.77l-.1,47.62a19.52,19.52,0,0,0,6.78,11.8L1025,936a19.55,19.55,0,0,0,13.61,0l41.29-23.73a19.46,19.46,0,0,0,6.83-11.77l.1-47.62A19.52,19.52,0,0,0,1080.09,841.08Zm-13,50.17a9.89,9.89,0,0,1-1,3.76,8.67,8.67,0,0,1-2.85,3.31l-.29.19-25.59,15.4c-.88.51-3.4,2-6.22,1.32-.73-.18-1.21-.3-1.44-.37l-.5-.15L1002.21,900a8.83,8.83,0,0,1-4.43-5.69,9.86,9.86,0,0,1,.58-6.42l.15-.34.2-.31a9,9,0,0,1,7.61-4.32,10.4,10.4,0,0,1,4,.75l.3.12,21.85,12,2-1.2,4-2.51,1.34-.83-38.44-21a7.76,7.76,0,0,1-3.32-3.34,9.35,9.35,0,0,1-1.08-4.23,10.67,10.67,0,0,1,.66-4,8.36,8.36,0,0,1,3.54-4.26l24.89-15.14a6.67,6.67,0,0,1,2.89-1.28,8.55,8.55,0,0,1,4.36,0,6.78,6.78,0,0,1,2.72,1.21l25.58,13.93a8.68,8.68,0,0,1,4.34,5.4,9.29,9.29,0,0,1-.68,6.75l-.06.11a8.71,8.71,0,0,1-5.42,4.39,9.32,9.32,0,0,1-6.55-.54l-.26-.13-21.66-11.79-2,1.21-4.13,2.53-1.32.81,38.87,21.22a8.54,8.54,0,0,1,3.43,3.77A9,9,0,0,1,1067,891.25Z"/></g></g></svg>