<svg xmlns="http://www.w3.org/2000/svg" viewBox="0 0 714.76 119.73"><defs><style>.cls-1{fill:#5c54fc;}</style></defs><g id="Capa_2" data-name="Capa 2"><g id="Capa_1-2" data-name="Capa 1"><path class="cls-1" d="M165.47,36.11q3,1.74,6,3.42l6,3.41,6.42,3.74a7,7,0,0,0,5,.55,6.55,6.55,0,0,0,4.31-3.12,7.38,7.38,0,0,0,.5-5.07,6.33,6.33,0,0,0-3.11-4l-32.8-19a7,7,0,0,0-6.55.05c-2.49,1.4-5.15,2.93-7.91,4.54l-8.46,4.92-8.46,4.93c-2.8,1.63-5.39,3.11-8,4.57a7.4,7.4,0,0,0-2.28,2.48,6.33,6.33,0,0,0-1,3.24V78.44a6.51,6.51,0,0,0,1,3.35,7.55,7.55,0,0,0,2.36,2.53l32.76,19.05.11.06a8.39,8.39,0,0,0,3.16.7,6.41,6.41,0,0,0,1.84-.24,13.9,13.9,0,0,0,1.39-.5l32.78-19.06a6.26,6.26,0,0,0,3.13-4,7,7,0,0,0-.57-5.08,6.89,6.89,0,0,0-4.19-3.27,6.34,6.34,0,0,0-5.15.73l-22.43,12.9V33.74ZM147.75,85.68l-3.53-2.06c-1.73-1-3.48-2.06-5.19-3.11s-3.45-2.1-5.24-3.15c-1.57-.92-3.25-1.88-5-2.86V44.82c3.61-2.06,7.09-4.1,10.37-6.06,2.76-1.66,5.66-3.37,8.61-5.1Z"/><path class="cls-1" d="M274.22,44.17h0a7.16,7.16,0,0,0,.74-3.11,6.93,6.93,0,0,0-.75-3.09,5.46,5.46,0,0,0-2.25-2.4l-33.11-19.1a5.79,5.79,0,0,0-4.19-.84,6.46,6.46,0,0,0-2.57.84L199.23,35.33a2.12,2.12,0,0,0-.28.2,18.45,18.45,0,0,0-1.83,1.84,5.48,5.48,0,0,0-1,3.63V78.88a6.9,6.9,0,0,0,1.39,4,7.14,7.14,0,0,0,2.3,2l31.92,18.31.1.06a6.52,6.52,0,0,0,3.65,1.19,7.15,7.15,0,0,0,3.76-1.18,6.41,6.41,0,0,0,3-5.61V71.79l22.51,13,.1.06a7.23,7.23,0,0,0,6.59-.19,6.38,6.38,0,0,0,2.6-2.6,1.79,1.79,0,0,0,.13-.32,6.28,6.28,0,0,0,.47-4.68,7,7,0,0,0-3.19-4.2q-6.36-3.58-12.45-7.07Q254.08,63,248.94,60l22.85-13.16A6.37,6.37,0,0,0,274.22,44.17ZM228.68,85.91l-3.53-2-5.26-3.1-5.18-3.05c-1.6-.94-3.29-1.9-5-2.87V45.16c3.63-2.07,7.11-4.11,10.36-6,2.7-1.63,5.6-3.34,8.62-5.1Zm19.43-41c-1.82,1.08-3.78,2.22-5.84,3.4V34c2.4,1.38,4.55,2.63,6.42,3.74s3.78,2.22,5.84,3.4C252.16,42.48,250,43.74,248.11,44.86Z"/><path class="cls-1" d="M352.91,35.24,320,16.27a7,7,0,0,0-6.57.06L281.28,35l-.19.07a5.94,5.94,0,0,0-2.75,2.57,6.85,6.85,0,0,0-1,3.39V78.67a7.09,7.09,0,0,0,.95,3.5,6,6,0,0,0,2.75,2.57l.2.08,32.19,18.78.12.06a8.64,8.64,0,0,0,3.27.7,8.06,8.06,0,0,0,3.12-.74L353,84.5A7.41,7.41,0,0,0,355.25,82a6.51,6.51,0,0,0,1-3.35V41a6.58,6.58,0,0,0-.91-3.28A6.75,6.75,0,0,0,352.91,35.24ZM342.64,74.75,317,89.71,291,74.86V44.93q6.76-3.81,13.06-7.43l13-7.43c4.51,2.59,8.84,5.11,12.87,7.48L342.64,45Z"/><path class="cls-1" d="M434.5,46.84a6.14,6.14,0,0,0,3.69-6A6.78,6.78,0,0,0,434.73,35L401.91,16.15a7.46,7.46,0,0,0-6.54.06L362.83,34.93a7,7,0,0,0-3.49,6V78.55a5.3,5.3,0,0,0,1.84,4.5c.83.64,1.52,1.15,2.2,1.62l32.36,18.79a5.85,5.85,0,0,0,2.91.73h.3a7,7,0,0,0,3.11-.85l32.23-18.74.2-.08a6.13,6.13,0,0,0,3.7-6,6.68,6.68,0,0,0-3.28-5.85,1.26,1.26,0,0,0-.41-.17L412.19,59.66l22.09-12.74ZM392,85.68l-3.53-2.06q-2.67-1.56-5.26-3.12L378,77.36c-1.57-.92-3.25-1.88-5-2.86V44.81l19.09-11Zm25.77-7.11-12.18,7.09V71.45c2.34,1.37,4.45,2.6,6.31,3.71S415.7,77.37,417.8,78.57ZM415.5,42.2c-1.38.85-2.72,1.65-4,2.42s-2.63,1.54-4,2.31L405.62,48V33.78c2.34,1.37,4.45,2.6,6.31,3.71s3.73,2.19,5.82,3.38C417,41.32,416.21,41.77,415.5,42.2Z"/><path class="cls-1" d="M713.86,37.72h0a6.85,6.85,0,0,0-2.43-2.5L678.51,16.27a7,7,0,0,0-6.58.06l-29.37,17L613.22,16.5a6,6,0,0,0-4.06-1,6.94,6.94,0,0,0-2.82.73L576.7,33.29,547.5,16.5a6.11,6.11,0,0,0-4.06-1,6.94,6.94,0,0,0-2.82.73L511.68,32.88,482.94,16.31a6.77,6.77,0,0,0-3.49-.83,6.36,6.36,0,0,0-3,.85L443.83,35c-2.21,1.31-3.33,2.89-3.33,4.72V87.56a6.8,6.8,0,1,0,13.59,0V52.64L464,58.25l5.73,3.3,6.41,3.67a8.25,8.25,0,0,0,3.3,1,5.77,5.77,0,0,0,3.7-1c4-2.28,8.06-4.61,12.21-6.94,3.32-1.86,6.63-3.74,9.88-5.61V87.56a6.8,6.8,0,1,0,13.59,0v-43L537,34V97.56a6.73,6.73,0,0,0,1.93,4.67,6.63,6.63,0,0,0,9.74,0,6.73,6.73,0,0,0,1.93-4.67V34l4.12,2.36q3,1.74,6,3.42l6,3.42,6.43,3.74.1,0a7.68,7.68,0,0,0,1.2.4,7.27,7.27,0,0,0,5.68-.32l22.66-13V97.56a6.71,6.71,0,0,0,1.92,4.67,6.63,6.63,0,0,0,9.74,0,6.73,6.73,0,0,0,1.93-4.67V34l4.12,2.36q3,1.74,6,3.42c2,1.12,3.95,2.26,6,3.42l3.49,2V78.67a7,7,0,0,0,1,3.5,5.93,5.93,0,0,0,2.75,2.57l.19.08L672,103.6l.11.06a8.64,8.64,0,0,0,3.27.7,8.1,8.1,0,0,0,3.12-.74l33-19.12A7.51,7.51,0,0,0,713.79,82a6.59,6.59,0,0,0,1-3.35V41A6.59,6.59,0,0,0,713.86,37.72Zm-234.23,14c-3.65-2.08-7.13-4-10.41-5.88-2.78-1.56-5.66-3.21-8.58-4.92l19-10.83q5.49,3.1,10.42,5.87c2.74,1.54,5.62,3.19,8.57,4.92Zm221.54,23-25.67,15-26-14.85V44.93q6.76-3.81,13.06-7.43l13-7.43c4.61,2.65,8.83,5.1,12.87,7.48L701.17,45Z"/><path class="cls-1" d="M101.71,24.82,61.05,1.22a19.25,19.25,0,0,0-13.44,0L6.84,24.62A19.25,19.25,0,0,0,.1,36.24l-.1,47A19.25,19.25,0,0,0,6.7,94.91L47.36,118.5a19.19,19.19,0,0,0,13.44,0l40.77-23.42a19.27,19.27,0,0,0,6.74-11.63l.1-47A19.25,19.25,0,0,0,101.71,24.82ZM88.83,74.35a9.85,9.85,0,0,1-1,3.72A8.7,8.7,0,0,1,85,81.33l-.28.19L59.46,96.72A8.56,8.56,0,0,1,53.32,98c-.73-.18-1.2-.3-1.43-.37l-.49-.15L24.82,83a8.7,8.7,0,0,1-4.37-5.62A9.75,9.75,0,0,1,21,71l.15-.33.19-.31a8.9,8.9,0,0,1,7.52-4.26,10.36,10.36,0,0,1,4,.74l.29.11L54.74,78.84c.68-.4,1.33-.8,1.95-1.19q2.06-1.26,4-2.47L62,74.36,24.05,53.64a7.64,7.64,0,0,1-3.27-3.29,9.4,9.4,0,0,1-1.08-4.17,10.67,10.67,0,0,1,.66-3.94A8.25,8.25,0,0,1,23.86,38L48.42,23.09a6.59,6.59,0,0,1,2.86-1.27,8.13,8.13,0,0,1,2-.29,8,8,0,0,1,2.3.25A6.54,6.54,0,0,1,58.27,23L83.52,36.73a8.55,8.55,0,0,1,4.29,5.34,9.11,9.11,0,0,1-.67,6.66l-.06.11a8.55,8.55,0,0,1-5.35,4.33,9.18,9.18,0,0,1-6.46-.53L75,52.51,53.62,40.87l-2,1.19q-2.05,1.27-4.08,2.51l-1.31.79,38.39,21A8.5,8.5,0,0,1,88,70,8.91,8.91,0,0,1,88.83,74.35Z"/></g></g></svg>