<svg xmlns="http://www.w3.org/2000/svg" viewBox="0 0 298.12 269.79"><g id="Capa_2" data-name="Capa 2"><g id="Capa_1-2" data-name="Capa 1"><path d="M236.47,16.71A48,48,0,0,0,207.48,0L90.42.1a47.91,47.91,0,0,0-29,16.76L3,118.28a48,48,0,0,0,0,33.47L61.65,253.08a48,48,0,0,0,29,16.71l117.06-.1a47.91,47.91,0,0,0,29-16.76l58.45-101.42a48,48,0,0,0,0-33.47Zm4.91,130.06L205.27,208.6a16.43,16.43,0,0,1-4.76,6.15,20.48,20.48,0,0,1-4,3,19.89,19.89,0,0,1-5.33,2.17,16.59,16.59,0,0,1-7.29.55l-71.61-.21a21.33,21.33,0,0,1-15.71-6.61A22.74,22.74,0,0,1,90.1,198.3V198a21.44,21.44,0,0,1,6.61-15.83,22.77,22.77,0,0,1,14.78-6.49l.72,0,60.63.18q1.51-2.58,2.88-4.95,3-5.24,6-10.31,1-1.63,1.92-3.3l-108.88-.43a21,21,0,0,1-11.81-4.15,22,22,0,0,1-6.84-8.51,24.16,24.16,0,0,1-2.21-9.33,21.4,21.4,0,0,1,2.3-10.49l.4-.75L93.91,60.39c1.3-2.15,5-8.28,11.9-10.13,1.8-.48,3-.77,3.56-.88l1.24-.26,75.42.34a21.7,21.7,0,0,1,16.24,7.14,24.28,24.28,0,0,1,6.26,14.55l.08.92-.07.91a22.18,22.18,0,0,1-11.42,18.23,25.63,25.63,0,0,1-9.63,3.11l-.79.1L125.4,94c-1,1.7-2,3.34-2.86,4.92-2,3.45-3.92,6.84-5.81,10.14-.63,1.12-1.27,2.23-1.92,3.36l107.66.43a19,19,0,0,1,11.07,3.34,23.25,23.25,0,0,1,7.3,7.87,26.65,26.65,0,0,1,3.22,9.39A20.48,20.48,0,0,1,241.38,146.77Z"/></g></g></svg>