<svg xmlns="http://www.w3.org/2000/svg" viewBox="0 0 410.49 364.47"><defs><style>.cls-1{fill:#d4ea00;}</style></defs><g id="Capa_2" data-name="Capa 2"><g id="Capa_1-2" data-name="Capa 1"><path class="cls-1" d="M297,171.33a23.25,23.25,0,0,0-7.29-7.88,19.16,19.16,0,0,0-11.08-3.33L171,159.69q1-1.69,1.92-3.36l5.8-10.15q1.36-2.35,2.86-4.91l61.31.46.79-.1a25.63,25.63,0,0,0,9.63-3.11,22.2,22.2,0,0,0,11.42-18.23l.06-.92-.07-.91a24.27,24.27,0,0,0-6.27-14.55,21.7,21.7,0,0,0-16.23-7.14l-75.42-.34-1.25.26c-.58.11-1.76.4-3.56.88-6.87,1.85-10.59,8-11.89,10.13l-37.35,63.21-.41.75a21.6,21.6,0,0,0-2.3,10.49,24.35,24.35,0,0,0,2.21,9.33A22,22,0,0,0,119.1,200a21,21,0,0,0,11.81,4.15l108.87.43-1.92,3.3q-3,5.08-6,10.3c-.91,1.59-1.88,3.24-2.89,5L168.39,223l-.72,0a22.8,22.8,0,0,0-14.79,6.49,21.41,21.41,0,0,0-6.6,15.82v.33A22.79,22.79,0,0,0,152.7,261a21.33,21.33,0,0,0,15.72,6.61l71.6.22a16.62,16.62,0,0,0,7.3-.56,19.6,19.6,0,0,0,5.32-2.16,20.48,20.48,0,0,0,4.05-3,16.33,16.33,0,0,0,4.76-6.15l36.12-61.83a20.53,20.53,0,0,0,2.67-13.36A26.65,26.65,0,0,0,297,171.33Z"/><path class="cls-1" d="M0,0V364.47H410.49V0ZM351.3,198.82,292.86,300.24a48,48,0,0,1-29,16.76l-117,.1a48,48,0,0,1-29-16.71L59.21,199.06a48.06,48.06,0,0,1,0-33.47L117.63,64.17a48,48,0,0,1,29-16.76l117.06-.1a47.94,47.94,0,0,1,29,16.71l58.62,101.33A48,48,0,0,1,351.3,198.82Z"/></g></g></svg>