<svg xmlns="http://www.w3.org/2000/svg" viewBox="0 0 1755.38 1269.66"><defs><style>.cls-1{fill:#d4ea00;}.cls-2{fill:#828716;}</style></defs><g id="Capa_2" data-name="Capa 2"><g id="Capa_1-2" data-name="Capa 1"><path class="cls-1" d="M242.53,505l6,3.42c2,1.13,4,2.26,6,3.42l6.42,3.73a7,7,0,0,0,5.05.55,6.53,6.53,0,0,0,4.31-3.12,7.32,7.32,0,0,0,.51-5.07,6.27,6.27,0,0,0-3.12-4l-32.79-18.95a7,7,0,0,0-6.56,0c-2.48,1.4-5.14,2.93-7.9,4.54l-8.46,4.92-8.46,4.93c-2.81,1.63-5.39,3.12-8,4.57a7.6,7.6,0,0,0-2.28,2.48,6.41,6.41,0,0,0-1,3.24V547.3a6.56,6.56,0,0,0,1,3.35,7.52,7.52,0,0,0,2.37,2.54l32.76,19,.11,0a8.39,8.39,0,0,0,3.16.7,6.41,6.41,0,0,0,1.84-.24c.46-.14.88-.29,1.39-.5l32.78-19a6.31,6.31,0,0,0,3.13-4.06,7,7,0,0,0-.58-5.07A6.8,6.8,0,0,0,266,540.8a6.3,6.3,0,0,0-5.15.73l-22.44,12.89V502.61Zm-17.71,49.57c-1.25-.72-2.43-1.4-3.53-2-1.74-1-3.48-2.07-5.19-3.12s-3.46-2.09-5.24-3.14c-1.57-.92-3.26-1.89-5-2.87V513.68c3.61-2.06,7.09-4.09,10.36-6.06,2.77-1.66,5.66-3.37,8.62-5.1Z"/><path class="cls-1" d="M351.29,513h0a7.15,7.15,0,0,0,.73-3.11,7,7,0,0,0-.74-3.09,5.6,5.6,0,0,0-2.25-2.39l-33.11-19.11a5.84,5.84,0,0,0-4.19-.84,6.16,6.16,0,0,0-2.57.85L276.3,504.19a2.43,2.43,0,0,0-.28.2,21.15,21.15,0,0,0-1.84,1.84,5.5,5.5,0,0,0-1,3.63v37.88a6.87,6.87,0,0,0,1.38,4,7,7,0,0,0,2.31,2l31.92,18.31.09.07a6.57,6.57,0,0,0,3.66,1.19,7.17,7.17,0,0,0,3.76-1.19,6.41,6.41,0,0,0,3-5.61V540.65l22.5,13,.11,0a7.18,7.18,0,0,0,6.58-.18,6.44,6.44,0,0,0,2.6-2.6,1.92,1.92,0,0,0,.14-.33,6.22,6.22,0,0,0,.46-4.68,7,7,0,0,0-3.18-4.2q-6.37-3.59-12.45-7.06-5-2.84-10.09-5.81l22.85-13.16A6.53,6.53,0,0,0,351.29,513Zm-45.55,41.74c-1.25-.72-2.43-1.4-3.53-2L297,549.63l-5.18-3c-1.6-.94-3.29-1.91-5-2.87V514c3.64-2.08,7.12-4.11,10.36-6.06,2.71-1.62,5.6-3.33,8.62-5.1Zm19.44-41c-1.82,1.08-3.78,2.22-5.84,3.4V502.85c2.39,1.37,4.55,2.62,6.42,3.73s3.77,2.22,5.84,3.4C329.22,511.34,327.07,512.6,325.18,513.72Z"/><path class="cls-1" d="M430,504.1l-32.94-19a7,7,0,0,0-6.57.06l-32.12,18.63-.2.07a6,6,0,0,0-2.75,2.58,6.88,6.88,0,0,0-.95,3.38v37.67a7.06,7.06,0,0,0,.95,3.5,6,6,0,0,0,2.75,2.58l.19.07,32.2,18.79.11,0a8.46,8.46,0,0,0,3.28.7,8.06,8.06,0,0,0,3.12-.74l33-19.11a7.5,7.5,0,0,0,2.28-2.48,6.53,6.53,0,0,0,1-3.36V509.86a6.53,6.53,0,0,0-.9-3.27A6.86,6.86,0,0,0,430,504.1ZM419.7,543.61l-25.66,15-26-14.86V513.8q6.75-3.82,13-7.44l13-7.43c4.52,2.6,8.85,5.11,12.88,7.48s8.42,4.94,12.78,7.49Z"/><path class="cls-1" d="M511.57,515.7a6.13,6.13,0,0,0,3.69-6,6.81,6.81,0,0,0-3.46-5.9L479,485a7.46,7.46,0,0,0-6.54.07L439.9,503.8a7,7,0,0,0-3.49,5.95v37.67a5.32,5.32,0,0,0,1.84,4.5c.83.63,1.52,1.14,2.19,1.62l32.37,18.79a6,6,0,0,0,2.91.72h.3a7,7,0,0,0,3.1-.85l32.24-18.75.2-.08a6.12,6.12,0,0,0,3.7-6,6.69,6.69,0,0,0-3.28-5.86,1.53,1.53,0,0,0-.41-.17l-22.31-12.87,22.09-12.74ZM469.1,554.54c-1.25-.72-2.43-1.4-3.53-2q-2.67-1.56-5.26-3.12T455,546.23c-1.57-.92-3.25-1.89-5-2.87V513.67l19.1-11Zm25.76-7.11-12.17,7.09V540.31L489,544C490.8,545.09,492.77,546.24,494.86,547.43Zm-2.29-36.37q-2.07,1.28-4,2.42l-4,2.31-1.87,1.07V502.64l6.31,3.71c1.78,1.06,3.73,2.19,5.82,3.39Q493.64,510.42,492.57,511.06Z"/><path class="cls-1" d="M790.93,506.59h0a6.73,6.73,0,0,0-2.44-2.5l-32.91-18.95a7,7,0,0,0-6.58.06l-29.37,17-29.34-16.86a6,6,0,0,0-4.06-1,7.16,7.16,0,0,0-2.82.73l-29.64,17.07-29.2-16.78a6.06,6.06,0,0,0-4.06-1,7.11,7.11,0,0,0-2.82.73l-28.94,16.67L560,485.17a6.86,6.86,0,0,0-3.49-.82,6.25,6.25,0,0,0-3,.84l-32.59,18.67c-2.2,1.31-3.32,2.9-3.32,4.73v47.84a6.8,6.8,0,1,0,13.59,0V521.5l9.86,5.61,5.73,3.3,6.41,3.67a8.25,8.25,0,0,0,3.3,1,5.77,5.77,0,0,0,3.7-1c4-2.27,8.06-4.61,12.21-6.94,3.32-1.86,6.63-3.74,9.88-5.6v34.91a6.8,6.8,0,1,0,13.59,0v-43l18.27-10.53v63.57a6.68,6.68,0,0,0,1.93,4.66,6.63,6.63,0,0,0,9.74,0,6.7,6.7,0,0,0,1.93-4.66V502.84l4.12,2.36c2,1.16,4,2.31,6,3.43l6,3.41c2,1.16,4.13,2.39,6.43,3.74l.1.05a6.76,6.76,0,0,0,1.2.4,7.27,7.27,0,0,0,5.68-.31l22.66-13.06v63.57a6.68,6.68,0,0,0,1.93,4.66,6.62,6.62,0,0,0,9.73,0,6.72,6.72,0,0,0,1.93-4.66V502.84l4.12,2.36c2,1.16,4,2.31,6,3.43l6,3.41,3.49,2v33.46a7,7,0,0,0,1,3.5,6,6,0,0,0,2.75,2.58l.19.07,32.2,18.79.11,0a8.45,8.45,0,0,0,3.27.7,7.92,7.92,0,0,0,3.12-.74l33-19.11a7.61,7.61,0,0,0,2.28-2.48,6.65,6.65,0,0,0,1-3.36V509.86A6.53,6.53,0,0,0,790.93,506.59Zm-234.23,14-10.41-5.88c-2.78-1.56-5.66-3.21-8.58-4.91l19-10.84q5.49,3.12,10.42,5.88c2.74,1.54,5.62,3.19,8.57,4.91Zm221.54,23.05-25.67,15-26-14.86V513.8q6.76-3.82,13.06-7.44l13-7.43c4.61,2.65,8.83,5.1,12.88,7.48s8.41,4.94,12.78,7.49Z"/><path class="cls-1" d="M178.78,493.68l-40.67-23.59a19.19,19.19,0,0,0-13.44,0L83.91,493.48a19.29,19.29,0,0,0-6.75,11.63l-.1,47a19.35,19.35,0,0,0,6.7,11.66l40.67,23.59a19.3,19.3,0,0,0,13.44,0L178.63,564a19.26,19.26,0,0,0,6.75-11.62l.09-47A19.23,19.23,0,0,0,178.78,493.68Zm-12.89,49.53a9.62,9.62,0,0,1-1,3.72,8.61,8.61,0,0,1-2.81,3.27l-.29.18-25.27,15.2a8.49,8.49,0,0,1-6.14,1.31c-.72-.17-1.2-.3-1.42-.37l-.49-.15-26.58-14.52a8.68,8.68,0,0,1-4.37-5.63,9.72,9.72,0,0,1,.56-6.33l.15-.34.2-.31A8.9,8.9,0,0,1,106,535a10.32,10.32,0,0,1,4,.74l.3.12,21.57,11.87,1.95-1.19,4-2.48,1.32-.82-37.95-20.71a7.63,7.63,0,0,1-3.28-3.3A9.25,9.25,0,0,1,96.77,515a10.78,10.78,0,0,1,.65-3.93,8.27,8.27,0,0,1,3.5-4.21L125.49,492a6.63,6.63,0,0,1,2.86-1.26,8.57,8.57,0,0,1,2-.3,7.89,7.89,0,0,1,2.29.25,6.92,6.92,0,0,1,2.69,1.2l25.25,13.75a8.57,8.57,0,0,1,4.29,5.34,9.15,9.15,0,0,1-.67,6.66l-.06.11a8.59,8.59,0,0,1-5.36,4.33,9.13,9.13,0,0,1-6.46-.53l-.26-.13-21.38-11.64c-.69.41-1.34.81-2,1.2l-4.07,2.5-1.31.8,38.38,20.95a8.36,8.36,0,0,1,3.38,3.72A8.72,8.72,0,0,1,165.89,543.21Z"/><path class="cls-1" d="M522.06,378.32,580.51,276.9a48,48,0,0,0,0-33.47L521.86,142.1a48,48,0,0,0-29-16.71l-117.06.1a47.91,47.91,0,0,0-29,16.76L288.39,243.67a48,48,0,0,0,0,33.47L347,378.47a48,48,0,0,0,29,16.71l117.06-.1A47.91,47.91,0,0,0,522.06,378.32ZM490.66,334a16.43,16.43,0,0,1-4.76,6.15,20.48,20.48,0,0,1-4,3,19.89,19.89,0,0,1-5.33,2.17,16.59,16.59,0,0,1-7.29.55l-71.61-.21a21.33,21.33,0,0,1-15.71-6.61,22.74,22.74,0,0,1-6.42-15.38v-.32a21.44,21.44,0,0,1,6.61-15.83,22.77,22.77,0,0,1,14.78-6.49l.72,0,60.63.18q1.51-2.58,2.88-4.95,3-5.24,6-10.31c.65-1.09,1.29-2.19,1.93-3.3l-108.88-.43a21,21,0,0,1-11.81-4.15,22,22,0,0,1-6.84-8.51,24.16,24.16,0,0,1-2.21-9.33,21.38,21.38,0,0,1,2.3-10.49l.4-.75,37.35-63.21c1.3-2.15,5-8.28,11.9-10.13,1.8-.48,3-.77,3.56-.88l1.24-.26,75.42.34A21.7,21.7,0,0,1,487.66,182a24.28,24.28,0,0,1,6.26,14.55l.08.92-.07.91a22.18,22.18,0,0,1-11.42,18.23,25.63,25.63,0,0,1-9.63,3.11l-.79.1-61.3-.46c-1,1.7-2,3.34-2.86,4.92-2,3.45-3.92,6.84-5.81,10.14l-1.92,3.36,107.66.43a19.07,19.07,0,0,1,11.07,3.34,23.25,23.25,0,0,1,7.3,7.87,26.65,26.65,0,0,1,3.22,9.39,20.54,20.54,0,0,1-2.68,13.36Z"/><path class="cls-1" d="M1641.92,171.33a23.25,23.25,0,0,0-7.3-7.87,19,19,0,0,0-11.07-3.33l-107.66-.44c.65-1.13,1.29-2.24,1.92-3.35q2.84-5,5.81-10.15c.9-1.58,1.86-3.22,2.86-4.92l61.3.46.79-.1a25.63,25.63,0,0,0,9.63-3.11,22.16,22.16,0,0,0,11.42-18.23l.07-.91-.08-.92a24.3,24.3,0,0,0-6.26-14.55,21.7,21.7,0,0,0-16.24-7.14l-75.42-.34-1.24.26c-.58.12-1.76.4-3.56.88-6.88,1.85-10.6,8-11.9,10.13l-37.35,63.21-.4.75a21.4,21.4,0,0,0-2.3,10.49,24.16,24.16,0,0,0,2.21,9.33A21.93,21.93,0,0,0,1464,200a21,21,0,0,0,11.81,4.15l108.88.43c-.64,1.11-1.28,2.21-1.93,3.31q-3,5.07-6,10.3-1.36,2.37-2.88,4.95l-60.63-.18-.72,0a22.79,22.79,0,0,0-14.78,6.5,21.4,21.4,0,0,0-6.61,15.82v.32A22.74,22.74,0,0,0,1497.6,261a21.33,21.33,0,0,0,15.71,6.61l71.61.22a16.73,16.73,0,0,0,7.29-.56,20.18,20.18,0,0,0,5.33-2.16,20.93,20.93,0,0,0,4-3,16.43,16.43,0,0,0,4.76-6.15l36.11-61.83a20.53,20.53,0,0,0,2.68-13.36A26.65,26.65,0,0,0,1641.92,171.33Z"/><path class="cls-1" d="M1344.89,0V364.48h410.49V0ZM1696.2,198.82l-58.45,101.42a47.91,47.91,0,0,1-29,16.76l-117.06.1a48,48,0,0,1-29-16.71L1404.1,199.06a48,48,0,0,1,0-33.47l58.44-101.42a48,48,0,0,1,29-16.76l117.07-.1a48,48,0,0,1,29,16.71l58.62,101.33A48,48,0,0,1,1696.2,198.82Z"/><path class="cls-1" d="M1637.55,423a48,48,0,0,0-29-16.7l-117.06.09a48,48,0,0,0-29,16.76l-58.44,101.43a48,48,0,0,0,0,33.46l58.62,101.34a48,48,0,0,0,29,16.71l117.06-.1a48,48,0,0,0,29-16.76l58.45-101.43a48,48,0,0,0,0-33.46ZM1642.46,553l-36.11,61.83a16.43,16.43,0,0,1-4.76,6.15,20.48,20.48,0,0,1-4,3,19.52,19.52,0,0,1-5.33,2.16,16.73,16.73,0,0,1-7.29.56l-71.61-.22a21.29,21.29,0,0,1-15.71-6.61,22.71,22.71,0,0,1-6.42-15.37v-.33a21.4,21.4,0,0,1,6.61-15.82,22.77,22.77,0,0,1,14.78-6.49l.72,0,60.63.17q1.52-2.57,2.88-5,3-5.22,6-10.3c.65-1.09,1.29-2.2,1.93-3.3l-108.88-.43a21,21,0,0,1-11.81-4.16,22,22,0,0,1-6.84-8.5,24.16,24.16,0,0,1-2.21-9.33,21.35,21.35,0,0,1,2.3-10.49l.4-.75L1495,466.65c1.3-2.14,5-8.27,11.9-10.13,1.8-.48,3-.76,3.56-.88l1.24-.25,75.42.34a21.67,21.67,0,0,1,16.24,7.14,24.25,24.25,0,0,1,6.26,14.55l.08.91-.07.91a22.18,22.18,0,0,1-11.42,18.24,25.63,25.63,0,0,1-9.63,3.11l-.79.09-61.3-.45c-1,1.7-2,3.34-2.86,4.91q-3,5.19-5.81,10.15l-1.92,3.36,107.66.43a19.06,19.06,0,0,1,11.07,3.33,23.19,23.19,0,0,1,7.3,7.88,26.53,26.53,0,0,1,3.22,9.38A20.56,20.56,0,0,1,1642.46,553Z"/><path class="cls-2" d="M1185.82,171.33a23.25,23.25,0,0,0-7.3-7.87,19,19,0,0,0-11.07-3.33l-107.66-.44c.65-1.13,1.29-2.24,1.92-3.35q2.83-5,5.81-10.15c.9-1.58,1.86-3.22,2.86-4.92l61.3.46.79-.1a25.63,25.63,0,0,0,9.63-3.11,22.16,22.16,0,0,0,11.42-18.23l.07-.91-.08-.92a24.3,24.3,0,0,0-6.26-14.55A21.7,21.7,0,0,0,1131,96.77l-75.42-.34-1.24.26c-.58.12-1.76.4-3.56.88-6.88,1.85-10.6,8-11.9,10.13l-37.35,63.21-.4.75a21.4,21.4,0,0,0-2.3,10.49,24.16,24.16,0,0,0,2.21,9.33,21.93,21.93,0,0,0,6.84,8.51,21,21,0,0,0,11.81,4.15l108.88.43c-.64,1.11-1.28,2.21-1.93,3.31q-3,5.07-6,10.3-1.37,2.37-2.88,4.95l-60.63-.18-.72,0a22.79,22.79,0,0,0-14.78,6.5,21.4,21.4,0,0,0-6.61,15.82v.32A22.74,22.74,0,0,0,1041.5,261a21.33,21.33,0,0,0,15.71,6.61l71.61.22a16.73,16.73,0,0,0,7.29-.56,20.18,20.18,0,0,0,5.33-2.16,20.93,20.93,0,0,0,4-3,16.43,16.43,0,0,0,4.76-6.15l36.11-61.83a20.53,20.53,0,0,0,2.68-13.36A26.65,26.65,0,0,0,1185.82,171.33Z"/><path class="cls-2" d="M888.79,0V364.48h410.49V0ZM1240.1,198.82l-58.45,101.42a47.91,47.91,0,0,1-29,16.76l-117.06.1a48,48,0,0,1-29-16.71L948,199.06a48,48,0,0,1,0-33.47l58.44-101.42a48,48,0,0,1,29-16.76l117.06-.1a48,48,0,0,1,29,16.71l58.62,101.33A48,48,0,0,1,1240.1,198.82Z"/><path class="cls-2" d="M1181.45,423a48,48,0,0,0-29-16.7l-117.06.09a48,48,0,0,0-29,16.76L948,524.55A48,48,0,0,0,948,558l58.62,101.34a48,48,0,0,0,29,16.71l117.06-.1a48,48,0,0,0,29-16.76l58.45-101.43a47.92,47.92,0,0,0,0-33.46ZM1186.36,553l-36.11,61.83a16.43,16.43,0,0,1-4.76,6.15,20.48,20.48,0,0,1-4,3,19.52,19.52,0,0,1-5.33,2.16,16.73,16.73,0,0,1-7.29.56l-71.61-.22a21.29,21.29,0,0,1-15.71-6.61,22.71,22.71,0,0,1-6.42-15.37v-.33a21.4,21.4,0,0,1,6.61-15.82,22.77,22.77,0,0,1,14.78-6.49l.72,0,60.63.17q1.51-2.57,2.88-5,3-5.22,6-10.3c.65-1.09,1.29-2.2,1.93-3.3l-108.88-.43a21,21,0,0,1-11.81-4.16,22,22,0,0,1-6.84-8.5,24.16,24.16,0,0,1-2.21-9.33,21.35,21.35,0,0,1,2.3-10.49l.4-.75,37.35-63.22c1.3-2.14,5-8.27,11.9-10.13,1.8-.48,3-.76,3.56-.88l1.24-.25,75.42.34a21.67,21.67,0,0,1,16.24,7.14,24.25,24.25,0,0,1,6.26,14.55l.08.91-.07.91a22.18,22.18,0,0,1-11.42,18.24,25.63,25.63,0,0,1-9.63,3.11l-.79.09-61.3-.45c-1,1.7-2,3.34-2.86,4.91q-3,5.19-5.81,10.15l-1.92,3.36,107.66.43a19,19,0,0,1,11.07,3.33,23.19,23.19,0,0,1,7.3,7.88,26.53,26.53,0,0,1,3.22,9.38A20.56,20.56,0,0,1,1186.36,553Z"/><path class="cls-2" d="M319.34,839.6v14.27c2.06-1.17,4-2.31,5.84-3.39s4-2.38,6.42-3.74c-2.07-1.18-4-2.32-5.84-3.4S321.73,841,319.34,839.6Z"/><path class="cls-2" d="M394,835.69l-13,7.43q-6.29,3.61-13,7.43v29.93l26,14.85,25.66-15V850.65q-6.54-3.81-12.78-7.48C402.89,840.8,398.56,838.28,394,835.69Z"/><path class="cls-2" d="M482.69,877.07v14.21l12.17-7.09c-2.09-1.2-4.06-2.34-5.86-3.41S485,878.44,482.69,877.07Z"/><path class="cls-2" d="M450,880.12c1.77,1,3.45,1.94,5,2.86l5.29,3.14q2.6,1.56,5.26,3.12l3.53,2.06V839.39l-19.1,11Z"/><path class="cls-2" d="M161.72,871.93,123.34,851l1.31-.8c1.34-.81,2.7-1.65,4.07-2.5l2-1.19,21.38,11.64.26.13a9.18,9.18,0,0,0,6.46.53,8.59,8.59,0,0,0,5.36-4.33l.06-.12a9.12,9.12,0,0,0,.67-6.65,8.55,8.55,0,0,0-4.29-5.34L135.34,828.6a6.64,6.64,0,0,0-2.69-1.2,7.89,7.89,0,0,0-2.29-.25,8.07,8.07,0,0,0-2,.29,6.54,6.54,0,0,0-2.86,1.27l-24.57,14.94a8.35,8.35,0,0,0-3.5,4.21,10.87,10.87,0,0,0-.65,3.94A9.25,9.25,0,0,0,97.84,856a7.61,7.61,0,0,0,3.28,3.29L139.07,880l-1.32.82-4,2.47c-.62.39-1.27.78-1.95,1.19l-21.57-11.87-.3-.11a10.13,10.13,0,0,0-4-.74A8.87,8.87,0,0,0,98.43,876l-.2.31-.15.33a9.75,9.75,0,0,0-.56,6.34,8.64,8.64,0,0,0,4.37,5.62l26.58,14.53.49.15c.22.07.7.19,1.42.37a8.54,8.54,0,0,0,6.14-1.31l25.27-15.2.29-.19a8.58,8.58,0,0,0,2.81-3.26,9.67,9.67,0,0,0,1-3.72,8.68,8.68,0,0,0-.79-4.31A8.38,8.38,0,0,0,161.72,871.93Z"/><path class="cls-2" d="M286.76,850.78v29.68c1.73,1,3.42,1.93,5,2.87l5.18,3,5.25,3.1,3.53,2v-51.9c-3,1.76-5.91,3.47-8.62,5.1C293.88,846.67,290.4,848.71,286.76,850.78Z"/><path class="cls-2" d="M205.84,850.43v29.69c1.76,1,3.45,1.94,5,2.86q2.67,1.57,5.24,3.15c1.71,1,3.45,2.1,5.19,3.11l3.53,2.06v-52c-3,1.73-5.85,3.44-8.62,5.1C212.93,846.34,209.45,848.38,205.84,850.43Z"/><path class="cls-2" d="M752.58,835.69l-13,7.43q-6.3,3.61-13.06,7.43v29.93l26,14.85,25.67-15V850.65q-6.56-3.81-12.78-7.48C761.41,840.79,757.19,838.34,752.58,835.69Z"/><path class="cls-2" d="M482.69,839.4v14.22l1.87-1.07,4-2.31c1.31-.77,2.65-1.57,4-2.42.71-.43,1.46-.88,2.25-1.33-2.09-1.19-4-2.32-5.82-3.38S485,840.77,482.69,839.4Z"/><path class="cls-2" d="M556.7,835.69l-19,10.83c2.92,1.71,5.8,3.36,8.58,4.92,3.28,1.84,6.76,3.8,10.41,5.88l19-10.84c-3-1.73-5.83-3.38-8.57-4.92Q562.19,838.8,556.7,835.69Z"/><path class="cls-2" d="M1.15,741.28v248.4H867.74V741.28ZM185.38,889.1a19.29,19.29,0,0,1-6.75,11.63l-40.76,23.42a19.19,19.19,0,0,1-13.44,0L83.76,900.53a19.29,19.29,0,0,1-6.7-11.65l.1-47a19.26,19.26,0,0,1,6.75-11.62l40.76-23.42a19.25,19.25,0,0,1,13.44,0l40.67,23.59a19.28,19.28,0,0,1,6.69,11.66Zm75.47-10.82a6.34,6.34,0,0,1,5.15-.73,6.87,6.87,0,0,1,4.18,3.27,7,7,0,0,1,.58,5.08,6.3,6.3,0,0,1-3.13,4.05L234.85,909c-.51.21-.93.36-1.39.5a6.41,6.41,0,0,1-1.84.24,8.39,8.39,0,0,1-3.16-.7l-.11-.06-32.76-19a7.58,7.58,0,0,1-2.37-2.53,6.59,6.59,0,0,1-1-3.35V846.39a6.41,6.41,0,0,1,1-3.24,7.5,7.5,0,0,1,2.28-2.48c2.58-1.46,5.16-2.94,8-4.57l8.46-4.93,8.46-4.93c2.76-1.61,5.42-3.13,7.9-4.53a7,7,0,0,1,6.56-.05l32.79,19a6.31,6.31,0,0,1,3.12,4,7.32,7.32,0,0,1-.51,5.07,6.53,6.53,0,0,1-4.31,3.12,7,7,0,0,1-5.05-.55c-2.29-1.34-4.41-2.58-6.42-3.74l-6-3.41-6-3.42-4.12-2.37v51.82Zm75.25-6.84q6.07,3.48,12.45,7.07a7,7,0,0,1,3.18,4.2,6.23,6.23,0,0,1-.46,4.68,1.83,1.83,0,0,1-.14.32,6.32,6.32,0,0,1-2.6,2.6,7.21,7.21,0,0,1-6.58.19l-.11-.06-22.5-13V903.3a6.41,6.41,0,0,1-3,5.61,7.15,7.15,0,0,1-3.76,1.18,6.57,6.57,0,0,1-3.66-1.19l-.09-.06-31.92-18.31a7.16,7.16,0,0,1-2.31-2,6.9,6.9,0,0,1-1.38-4V846.62a5.48,5.48,0,0,1,1-3.63,19.84,19.84,0,0,1,1.84-1.84,1.62,1.62,0,0,1,.28-.2l32.86-18.86a6.39,6.39,0,0,1,2.57-.84,5.75,5.75,0,0,1,4.19.84L349,841.19a5.57,5.57,0,0,1,2.25,2.4,6.92,6.92,0,0,1,.74,3.09,7.15,7.15,0,0,1-.73,3.11h0a6.5,6.5,0,0,1-2.43,2.68L326,865.63Q331.16,868.62,336.1,871.44Zm97.19,12.85a6.49,6.49,0,0,1-1,3.35,7.41,7.41,0,0,1-2.28,2.48l-33,19.12a8.06,8.06,0,0,1-3.12.74,8.65,8.65,0,0,1-3.28-.7l-.11-.06-32.2-18.78-.19-.08a6,6,0,0,1-2.75-2.57,7.09,7.09,0,0,1-.95-3.5V846.62a6.92,6.92,0,0,1,.95-3.39,6,6,0,0,1,2.75-2.57l.2-.07L390.47,822a7,7,0,0,1,6.57-.06l32.94,19a6.83,6.83,0,0,1,2.41,2.48,6.54,6.54,0,0,1,.9,3.28Zm78.28-6.14a1.26,1.26,0,0,1,.41.17,6.68,6.68,0,0,1,3.28,5.85,6.13,6.13,0,0,1-3.7,6l-.2.08L479.12,909a6.9,6.9,0,0,1-3.1.85h-.3a5.85,5.85,0,0,1-2.91-.73l-32.37-18.79c-.67-.47-1.36-1-2.19-1.62a5.3,5.3,0,0,1-1.84-4.5V846.5a7,7,0,0,1,3.49-6l32.54-18.72a7.46,7.46,0,0,1,6.54-.06l32.82,18.84a6.8,6.8,0,0,1,3.46,5.89,6.13,6.13,0,0,1-3.69,6l-.22.09-22.09,12.74Zm280.26,6.14a6.59,6.59,0,0,1-1,3.35,7.51,7.51,0,0,1-2.28,2.48l-33,19.12a8.1,8.1,0,0,1-3.12.74,8.64,8.64,0,0,1-3.27-.7l-.11-.06-32.2-18.78-.19-.08a5.93,5.93,0,0,1-2.75-2.57,7,7,0,0,1-1-3.5V850.82l-3.49-2c-2-1.16-4-2.3-6-3.42s-4-2.26-6-3.42l-4.12-2.36v63.58a6.73,6.73,0,0,1-1.93,4.67,6.62,6.62,0,0,1-9.73,0,6.73,6.73,0,0,1-1.93-4.67V839.62l-22.66,13a7.27,7.27,0,0,1-5.68.32,7.68,7.68,0,0,1-1.2-.4l-.1-.05c-2.3-1.35-4.43-2.58-6.43-3.74l-6-3.42q-3-1.68-6-3.42l-4.12-2.36v63.58a6.73,6.73,0,0,1-1.93,4.67,6.63,6.63,0,0,1-9.74,0,6.73,6.73,0,0,1-1.93-4.67V839.62l-18.27,10.53v43a6.8,6.8,0,1,1-13.59,0V858.27c-3.25,1.87-6.56,3.75-9.88,5.61-4.15,2.33-8.26,4.66-12.21,6.94a5.77,5.77,0,0,1-3.7,1,8.42,8.42,0,0,1-3.3-1l-6.41-3.67-5.73-3.3-9.86-5.61v34.92a6.8,6.8,0,1,1-13.59,0V845.34c0-1.83,1.12-3.41,3.32-4.72L553.48,822a6.36,6.36,0,0,1,3-.85,6.77,6.77,0,0,1,3.49.83l28.74,16.57,28.94-16.67a7.14,7.14,0,0,1,2.82-.72,6.11,6.11,0,0,1,4.06,1l29.2,16.79,29.64-17.08a7.19,7.19,0,0,1,2.82-.72,6,6,0,0,1,4.06,1L719.63,839,749,822a7,7,0,0,1,6.58-.06l32.91,19a6.88,6.88,0,0,1,2.44,2.5h0a6.57,6.57,0,0,1,.9,3.28Z"/><path class="cls-1" d="M318.18,1119.58v14.27c2.07-1.18,4-2.32,5.85-3.4s4-2.38,6.42-3.74c-2.07-1.18-4-2.32-5.84-3.4S320.58,1121,318.18,1119.58Z"/><path class="cls-1" d="M392.89,1115.66l-12.95,7.43q-6.3,3.62-13.06,7.44v29.92l26,14.86,25.67-15v-29.71q-6.54-3.83-12.78-7.49C401.73,1120.77,397.4,1118.26,392.89,1115.66Z"/><path class="cls-1" d="M204.69,1130.41v29.68c1.76,1,3.44,2,5,2.87q2.69,1.57,5.25,3.15c1.7,1,3.45,2.09,5.18,3.11l3.54,2v-52c-3,1.73-5.85,3.44-8.62,5.1C211.78,1126.32,208.29,1128.35,204.69,1130.41Z"/><path class="cls-1" d="M160.57,1151.91l-38.38-21,1.31-.8,4.07-2.5c.62-.39,1.28-.79,2-1.2l21.39,11.64.26.13a9.07,9.07,0,0,0,6.46.53,8.61,8.61,0,0,0,5.36-4.32l.06-.12a9.2,9.2,0,0,0,.67-6.66,8.6,8.6,0,0,0-4.29-5.34l-25.26-13.75a6.82,6.82,0,0,0-2.68-1.2,8.37,8.37,0,0,0-2.3-.25,8.65,8.65,0,0,0-2,.3,6.65,6.65,0,0,0-2.85,1.26l-24.57,15a8.17,8.17,0,0,0-3.5,4.21,10.62,10.62,0,0,0-.66,3.93,9.44,9.44,0,0,0,1.08,4.18,7.69,7.69,0,0,0,3.27,3.29l38,20.71-1.31.82-4,2.48-2,1.19-21.57-11.87-.3-.12a10.36,10.36,0,0,0-4-.74,8.92,8.92,0,0,0-7.52,4.26l-.19.31-.15.34a9.82,9.82,0,0,0-.57,6.34,8.73,8.73,0,0,0,4.38,5.62l26.58,14.52.48.15c.23.07.7.2,1.43.37,2.78.66,5.27-.8,6.14-1.3l25.27-15.2.28-.19a8.64,8.64,0,0,0,2.82-3.27,9.62,9.62,0,0,0,1-3.72,8.83,8.83,0,0,0-.79-4.31A8.47,8.47,0,0,0,160.57,1151.91Z"/><path class="cls-1" d="M285.61,1130.76v29.68c1.73,1,3.41,1.93,5,2.87l5.18,3,5.25,3.09,3.53,2.06V1119.6c-3,1.77-5.91,3.48-8.62,5.1C292.73,1126.65,289.24,1128.68,285.61,1130.76Z"/><path class="cls-1" d="M448.85,1160.09c1.76,1,3.45,2,5,2.87,1.78,1,3.54,2.09,5.28,3.14l5.26,3.12,3.54,2v-51.91l-19.1,11Z"/><path class="cls-1" d="M555.55,1115.66l-19,10.84c2.91,1.71,5.79,3.36,8.58,4.92l10.41,5.87,19-10.83c-2.95-1.73-5.83-3.38-8.58-4.92Q561,1118.78,555.55,1115.66Z"/><path class="cls-1" d="M751.43,1115.66l-12.95,7.43q-6.3,3.62-13.06,7.44v29.92l26,14.86,25.67-15v-29.71q-6.55-3.83-12.79-7.49C760.26,1120.77,756,1118.32,751.43,1115.66Z"/><path class="cls-1" d="M481.54,1157v14.21l12.17-7.08c-2.1-1.2-4.06-2.35-5.86-3.42Z"/><path class="cls-1" d="M0,1021.26v248.4H866.59v-248.4Zm184.22,147.82a19.22,19.22,0,0,1-6.74,11.62l-40.76,23.43a19.33,19.33,0,0,1-13.45,0l-40.66-23.59a19.27,19.27,0,0,1-6.7-11.66l.1-47a19.27,19.27,0,0,1,6.74-11.63l40.77-23.42a19.3,19.3,0,0,1,13.44,0l40.67,23.59a19.28,19.28,0,0,1,6.69,11.65Zm75.48-10.82a6.3,6.3,0,0,1,5.15-.73,6.87,6.87,0,0,1,4.18,3.27,7,7,0,0,1,.58,5.08,6.3,6.3,0,0,1-3.14,4L233.69,1189c-.5.2-.93.35-1.38.49a6.53,6.53,0,0,1-1.85.24,8.2,8.2,0,0,1-3.15-.7l-.11,0-32.77-19a7.59,7.59,0,0,1-2.36-2.54,6.47,6.47,0,0,1-1-3.35v-37.67a6.37,6.37,0,0,1,1-3.24,7.6,7.6,0,0,1,2.28-2.48c2.58-1.45,5.16-2.93,8-4.57l8.47-4.93,8.46-4.92c2.75-1.61,5.41-3.14,7.9-4.53a7,7,0,0,1,6.55,0l32.8,18.95a6.27,6.27,0,0,1,3.12,4,7.32,7.32,0,0,1-.51,5.07,6.52,6.52,0,0,1-4.31,3.12,6.91,6.91,0,0,1-5.05-.55l-6.42-3.73-6-3.41-6-3.43-4.12-2.36v51.81Zm75.25-6.84q6.07,3.46,12.45,7.06a7,7,0,0,1,3.18,4.2,6.23,6.23,0,0,1-.47,4.68,1.2,1.2,0,0,1-.13.33,6.38,6.38,0,0,1-2.6,2.6,7.18,7.18,0,0,1-6.58.18l-.11,0-22.51-13v25.89a6.45,6.45,0,0,1-3,5.62,7.18,7.18,0,0,1-3.76,1.18,6.57,6.57,0,0,1-3.66-1.19l-.09-.07-31.93-18.31a7.12,7.12,0,0,1-2.3-2,6.94,6.94,0,0,1-1.39-4v-37.88a5.45,5.45,0,0,1,1-3.62,17.61,17.61,0,0,1,1.84-1.85,1.26,1.26,0,0,1,.28-.19L308,1102.07a6.3,6.3,0,0,1,2.58-.85,5.82,5.82,0,0,1,4.19.85l33.11,19.1a5.52,5.52,0,0,1,2.24,2.39,6.86,6.86,0,0,1,.75,3.09,7.29,7.29,0,0,1-.73,3.11h0a6.52,6.52,0,0,1-2.44,2.68l-22.84,13.16Q330,1148.59,335,1151.42Zm97.19,12.84a6.62,6.62,0,0,1-1,3.36,7.61,7.61,0,0,1-2.28,2.48l-33,19.11a8.1,8.1,0,0,1-3.12.74,8.46,8.46,0,0,1-3.28-.7l-.11,0-32.2-18.79-.19-.07a6,6,0,0,1-2.75-2.58,7,7,0,0,1-1-3.5v-37.67a6.79,6.79,0,0,1,1-3.38,6,6,0,0,1,2.75-2.58l.19-.07,32.13-18.63a7,7,0,0,1,6.57-.06l32.94,19a6.86,6.86,0,0,1,2.41,2.49,6.53,6.53,0,0,1,.9,3.27Zm78.27-6.14a1.6,1.6,0,0,1,.42.17,6.71,6.71,0,0,1,3.28,5.86,6.12,6.12,0,0,1-3.7,5.95l-.2.08L478,1188.93a6.9,6.9,0,0,1-3.1.85h-.3a5.89,5.89,0,0,1-2.91-.72l-32.37-18.79c-.67-.48-1.36-1-2.19-1.62a5.32,5.32,0,0,1-1.84-4.5v-37.67a7,7,0,0,1,3.48-6l32.55-18.72a7.5,7.5,0,0,1,6.54-.07l32.82,18.85a6.78,6.78,0,0,1,3.46,5.89,6.12,6.12,0,0,1-3.7,6l-.22.08-22.09,12.74Zm280.27,6.14a6.57,6.57,0,0,1-1,3.36,7.5,7.5,0,0,1-2.28,2.48l-33,19.11a7.92,7.92,0,0,1-3.12.74,8.41,8.41,0,0,1-3.27-.7l-.11,0-32.2-18.79-.19-.07a5.91,5.91,0,0,1-2.75-2.58,7,7,0,0,1-1-3.5V1130.8l-3.5-2c-2-1.16-4-2.29-6-3.41s-4-2.27-6-3.43l-4.13-2.36v63.59a6.75,6.75,0,0,1-1.92,4.67,6.65,6.65,0,0,1-9.74,0,6.73,6.73,0,0,1-1.93-4.67v-63.57L656,1132.65a7.27,7.27,0,0,1-5.68.31,6.86,6.86,0,0,1-1.21-.4l-.09,0-6.44-3.74c-2-1.16-4-2.29-6-3.41s-4-2.27-6-3.43l-4.13-2.36v63.59a6.73,6.73,0,0,1-1.93,4.67,6.64,6.64,0,0,1-9.73,0,6.73,6.73,0,0,1-1.93-4.67v-63.57l-18.27,10.53v43a6.8,6.8,0,1,1-13.6,0v-34.91c-3.24,1.86-6.56,3.74-9.87,5.6-4.16,2.33-8.27,4.67-12.21,7a5.73,5.73,0,0,1-3.71,1,8.16,8.16,0,0,1-3.29-1c-2.34-1.32-4.47-2.54-6.41-3.67l-5.73-3.3-9.86-5.61v34.93a6.8,6.8,0,1,1-13.6,0v-47.84c0-1.83,1.12-3.42,3.33-4.72l32.59-18.68a6.18,6.18,0,0,1,3-.84,6.71,6.71,0,0,1,3.48.83l28.75,16.57,28.93-16.67a7,7,0,0,1,2.83-.72,6.05,6.05,0,0,1,4.06,1l29.2,16.78,29.64-17.07a7,7,0,0,1,2.82-.72,6,6,0,0,1,4.06,1L718.48,1119l29.37-17a7,7,0,0,1,6.58-.06l32.91,19a6.78,6.78,0,0,1,2.43,2.5h0a6.64,6.64,0,0,1,.9,3.27Z"/><path class="cls-1" d="M481.54,1119.37v14.22l1.87-1.07q2-1.14,4-2.3c1.3-.77,2.65-1.58,4-2.42.71-.44,1.46-.88,2.24-1.33-2.08-1.19-4-2.33-5.82-3.39Z"/><path class="cls-1" d="M1130.17,1121.7l6,3.43c2,1.12,4,2.25,6,3.41l6.42,3.73a6.91,6.91,0,0,0,5,.55,6.49,6.49,0,0,0,4.31-3.12,7.32,7.32,0,0,0,.51-5.07,6.27,6.27,0,0,0-3.12-4l-32.79-18.95a7,7,0,0,0-6.56,0c-2.48,1.39-5.14,2.92-7.9,4.53l-8.46,4.92-8.46,4.93c-2.81,1.64-5.39,3.12-8,4.57a7.6,7.6,0,0,0-2.28,2.48,6.46,6.46,0,0,0-1,3.24V1164a6.56,6.56,0,0,0,1,3.35,7.52,7.52,0,0,0,2.37,2.54l32.76,19,.11,0a8.2,8.2,0,0,0,3.16.7,6.41,6.41,0,0,0,1.84-.24c.46-.14.88-.29,1.39-.49l32.78-19.06a6.32,6.32,0,0,0,3.13-4,7,7,0,0,0-.58-5.08,6.87,6.87,0,0,0-4.18-3.27,6.3,6.3,0,0,0-5.15.73l-22.44,12.89v-51.81Zm-17.71,49.57c-1.25-.72-2.43-1.4-3.53-2-1.74-1-3.48-2.07-5.19-3.11s-3.46-2.1-5.24-3.15c-1.57-.92-3.26-1.88-5-2.87v-29.68c3.61-2.06,7.09-4.09,10.36-6.06,2.77-1.66,5.66-3.37,8.62-5.1Z"/><path class="cls-1" d="M1238.93,1129.77h0a7.15,7.15,0,0,0,.73-3.11,7,7,0,0,0-.74-3.09,5.6,5.6,0,0,0-2.25-2.39l-33.11-19.1a5.8,5.8,0,0,0-4.19-.85,6.16,6.16,0,0,0-2.57.85l-32.86,18.86a1.54,1.54,0,0,0-.28.19,19.81,19.81,0,0,0-1.84,1.85,5.45,5.45,0,0,0-1,3.62v37.88a6.87,6.87,0,0,0,1.38,4,7,7,0,0,0,2.31,2l31.92,18.31.09.07a6.57,6.57,0,0,0,3.66,1.19,7.15,7.15,0,0,0,3.76-1.18,6.43,6.43,0,0,0,3-5.62v-25.89l22.5,13,.11,0a7.18,7.18,0,0,0,6.58-.18,6.38,6.38,0,0,0,2.6-2.6,1.64,1.64,0,0,0,.14-.33,6.22,6.22,0,0,0,.46-4.68,7,7,0,0,0-3.18-4.2q-6.37-3.59-12.45-7.06-5-2.84-10.09-5.81l22.85-13.16A6.56,6.56,0,0,0,1238.93,1129.77Zm-45.55,41.74-3.53-2.06-5.25-3.09-5.18-3c-1.6-.94-3.29-1.91-5-2.87v-29.68c3.64-2.08,7.12-4.11,10.36-6.06,2.71-1.62,5.6-3.33,8.62-5.1Zm19.44-41.06c-1.82,1.08-3.78,2.22-5.84,3.4v-14.27c2.39,1.37,4.55,2.63,6.42,3.73s3.77,2.22,5.84,3.4C1216.86,1128.07,1214.71,1129.33,1212.82,1130.45Z"/><path class="cls-1" d="M1317.62,1120.83l-32.94-19a7,7,0,0,0-6.57.06L1246,1120.56l-.2.07a6.05,6.05,0,0,0-2.75,2.58,6.88,6.88,0,0,0-1,3.38v37.67a7.06,7.06,0,0,0,1,3.5,6,6,0,0,0,2.75,2.58l.19.07,32.2,18.79.11,0a8.46,8.46,0,0,0,3.28.7,8.06,8.06,0,0,0,3.12-.74l33-19.11a7.5,7.5,0,0,0,2.28-2.48,6.53,6.53,0,0,0,1-3.36v-37.67a6.53,6.53,0,0,0-.9-3.27A6.86,6.86,0,0,0,1317.62,1120.83Zm-10.28,39.51-25.66,15-26-14.86v-29.92q6.75-3.83,13-7.44l13-7.43c4.52,2.6,8.85,5.11,12.88,7.48s8.42,4.94,12.78,7.49Z"/><path class="cls-1" d="M1399.21,1132.43a6.13,6.13,0,0,0,3.69-6,6.78,6.78,0,0,0-3.46-5.89l-32.82-18.85a7.5,7.5,0,0,0-6.54.07l-32.54,18.72a7,7,0,0,0-3.49,6v37.67a5.32,5.32,0,0,0,1.84,4.5c.83.63,1.52,1.14,2.2,1.62l32.36,18.79a6,6,0,0,0,2.91.72h.3a6.9,6.9,0,0,0,3.1-.85l32.24-18.75.2-.08a6.12,6.12,0,0,0,3.7-5.95,6.69,6.69,0,0,0-3.28-5.86,1.53,1.53,0,0,0-.41-.17l-22.31-12.87,22.09-12.74Zm-42.47,38.84c-1.25-.72-2.43-1.4-3.53-2q-2.67-1.56-5.26-3.12c-1.75-1-3.51-2.09-5.29-3.14-1.57-.92-3.25-1.88-5-2.87V1130.4l19.1-11Zm25.76-7.1-12.17,7.08V1157l6.31,3.71C1378.44,1161.82,1380.41,1163,1382.5,1164.17Zm-2.29-36.37q-2.07,1.26-4,2.42t-4,2.3l-1.87,1.07v-14.22l6.31,3.71c1.78,1.06,3.73,2.2,5.82,3.39C1381.67,1126.92,1380.92,1127.36,1380.21,1127.8Z"/><path class="cls-1" d="M1678.57,1123.32h0a6.8,6.8,0,0,0-2.44-2.5l-32.91-19a7,7,0,0,0-6.58.06l-29.37,17-29.34-16.87a6,6,0,0,0-4.06-1,7,7,0,0,0-2.82.72l-29.64,17.07-29.2-16.78a6.05,6.05,0,0,0-4.06-1,7,7,0,0,0-2.82.72l-28.94,16.67-28.74-16.57a6.77,6.77,0,0,0-3.49-.83,6.25,6.25,0,0,0-3,.84l-32.59,18.68c-2.2,1.3-3.32,2.89-3.32,4.72v47.84a6.8,6.8,0,1,0,13.59,0v-34.93l9.86,5.61,5.73,3.3c1.94,1.13,4.07,2.35,6.41,3.67a8.25,8.25,0,0,0,3.3,1,5.7,5.7,0,0,0,3.7-1c4-2.28,8.06-4.62,12.21-7,3.32-1.86,6.63-3.74,9.88-5.6v34.91a6.8,6.8,0,1,0,13.59,0v-43l18.27-10.53v63.57a6.73,6.73,0,0,0,1.93,4.67,6.65,6.65,0,0,0,9.74,0,6.73,6.73,0,0,0,1.93-4.67v-63.59l4.12,2.36c2,1.16,4,2.31,6,3.43l6,3.41,6.43,3.74.1,0a6.76,6.76,0,0,0,1.2.4,7.27,7.27,0,0,0,5.68-.31l22.66-13.06v63.57a6.73,6.73,0,0,0,1.93,4.67,6.64,6.64,0,0,0,9.73,0,6.76,6.76,0,0,0,1.93-4.67v-63.59l4.12,2.36c2,1.16,4,2.31,6,3.43l6,3.41,3.49,2v33.46a7,7,0,0,0,1,3.5,6,6,0,0,0,2.75,2.58l.19.07,32.2,18.79.11,0a8.45,8.45,0,0,0,3.27.7,7.92,7.92,0,0,0,3.12-.74l33-19.11a7.61,7.61,0,0,0,2.28-2.48,6.65,6.65,0,0,0,1-3.36v-37.67A6.53,6.53,0,0,0,1678.57,1123.32Zm-234.23,14c-3.65-2.07-7.13-4-10.41-5.87-2.78-1.56-5.66-3.21-8.58-4.92l19-10.84q5.49,3.12,10.42,5.88c2.74,1.54,5.62,3.19,8.57,4.92Zm221.54,23-25.67,15-26-14.86v-29.92q6.76-3.83,13.06-7.44l13-7.43c4.61,2.66,8.83,5.11,12.88,7.48s8.41,4.94,12.78,7.49Z"/><path class="cls-1" d="M1066.42,1110.41l-40.67-23.59a19.3,19.3,0,0,0-13.44,0l-40.76,23.42a19.29,19.29,0,0,0-6.75,11.63l-.1,47a19.32,19.32,0,0,0,6.7,11.66l40.67,23.59a19.3,19.3,0,0,0,13.44,0l40.76-23.43a19.24,19.24,0,0,0,6.75-11.62l.09-47A19.23,19.23,0,0,0,1066.42,1110.41Zm-12.89,49.53a9.62,9.62,0,0,1-1,3.72,8.61,8.61,0,0,1-2.81,3.27l-.29.19-25.27,15.2a8.55,8.55,0,0,1-6.14,1.3c-.72-.17-1.2-.3-1.42-.37l-.49-.15-26.58-14.52a8.69,8.69,0,0,1-4.37-5.62,9.75,9.75,0,0,1,.56-6.34l.15-.34.2-.31a8.91,8.91,0,0,1,7.52-4.26,10.32,10.32,0,0,1,4,.74l.3.12,21.57,11.87,1.95-1.19,4-2.48,1.32-.82-38-20.71a7.66,7.66,0,0,1-3.28-3.29,9.3,9.3,0,0,1-1.07-4.18,10.82,10.82,0,0,1,.65-3.93,8.27,8.27,0,0,1,3.5-4.21l24.57-15a6.63,6.63,0,0,1,2.86-1.26,8.57,8.57,0,0,1,2-.3,8.25,8.25,0,0,1,2.29.25,6.92,6.92,0,0,1,2.69,1.2l25.25,13.75a8.57,8.57,0,0,1,4.29,5.34,9.1,9.1,0,0,1-.67,6.66l-.06.12a8.61,8.61,0,0,1-5.36,4.32,9.08,9.08,0,0,1-6.46-.53l-.26-.13-21.38-11.64c-.69.41-1.34.81-2,1.2l-4.07,2.5-1.31.8,38.38,21a8.36,8.36,0,0,1,3.38,3.72A8.72,8.72,0,0,1,1053.53,1159.94Z"/><path class="cls-2" d="M1130.17,841.73l6,3.42,6,3.41c2,1.16,4.13,2.4,6.42,3.74a7,7,0,0,0,5,.55,6.53,6.53,0,0,0,4.31-3.12,7.32,7.32,0,0,0,.51-5.07,6.31,6.31,0,0,0-3.12-4l-32.79-19a7,7,0,0,0-6.56.05c-2.48,1.4-5.14,2.92-7.9,4.53l-8.46,4.93-8.46,4.93c-2.81,1.63-5.39,3.11-8,4.57a7.5,7.5,0,0,0-2.28,2.48,6.41,6.41,0,0,0-1,3.24v37.67a6.59,6.59,0,0,0,1,3.35,7.58,7.58,0,0,0,2.37,2.53L1116,909l.11.06a8.39,8.39,0,0,0,3.16.7,6.41,6.41,0,0,0,1.84-.24c.46-.14.88-.29,1.39-.5L1155.27,890a6.3,6.3,0,0,0,3.13-4.05,7,7,0,0,0-.58-5.08,6.87,6.87,0,0,0-4.18-3.27,6.34,6.34,0,0,0-5.15.73l-22.44,12.9V839.36Zm-17.71,49.57-3.53-2.06c-1.74-1-3.48-2.06-5.19-3.11s-3.46-2.1-5.24-3.15c-1.57-.92-3.26-1.88-5-2.86V850.43c3.61-2,7.09-4.09,10.36-6,2.77-1.66,5.66-3.37,8.62-5.1Z"/><path class="cls-2" d="M1238.93,849.79h0a7.15,7.15,0,0,0,.73-3.11,6.92,6.92,0,0,0-.74-3.09,5.57,5.57,0,0,0-2.25-2.4l-33.11-19.1a5.75,5.75,0,0,0-4.19-.84,6.39,6.39,0,0,0-2.57.84L1163.94,841a1.62,1.62,0,0,0-.28.2,19.84,19.84,0,0,0-1.84,1.84,5.48,5.48,0,0,0-1,3.63V884.5a6.9,6.9,0,0,0,1.38,4,7.16,7.16,0,0,0,2.31,2l31.92,18.31.09.06a6.57,6.57,0,0,0,3.66,1.19,7.15,7.15,0,0,0,3.76-1.18,6.41,6.41,0,0,0,3-5.61V877.41l22.5,13,.11.06a7.21,7.21,0,0,0,6.58-.19,6.32,6.32,0,0,0,2.6-2.6,1.83,1.83,0,0,0,.14-.32,6.23,6.23,0,0,0,.46-4.68,7,7,0,0,0-3.18-4.2q-6.37-3.59-12.45-7.07-5-2.82-10.09-5.81l22.85-13.16A6.5,6.5,0,0,0,1238.93,849.79Zm-45.55,41.74-3.53-2-5.25-3.1-5.18-3c-1.6-.94-3.29-1.9-5-2.87V850.78c3.64-2.07,7.12-4.11,10.36-6,2.71-1.63,5.6-3.34,8.62-5.1Zm19.44-41c-1.82,1.08-3.78,2.22-5.84,3.39V839.6c2.39,1.38,4.55,2.63,6.42,3.74s3.77,2.22,5.84,3.4C1216.86,848.1,1214.71,849.35,1212.82,850.48Z"/><path class="cls-2" d="M1317.62,840.86l-32.94-19a7,7,0,0,0-6.57.06L1246,840.59l-.2.07a6,6,0,0,0-2.75,2.57,6.92,6.92,0,0,0-1,3.39v37.67a7.09,7.09,0,0,0,1,3.5,6,6,0,0,0,2.75,2.57l.19.08,32.2,18.78.11.06a8.65,8.65,0,0,0,3.28.7,8.06,8.06,0,0,0,3.12-.74l33-19.12a7.41,7.41,0,0,0,2.28-2.48,6.49,6.49,0,0,0,1-3.35V846.62a6.54,6.54,0,0,0-.9-3.28A6.83,6.83,0,0,0,1317.62,840.86Zm-10.28,39.51-25.66,15-26-14.85V850.55q6.75-3.81,13-7.43l13-7.43c4.52,2.59,8.85,5.11,12.88,7.48s8.42,4.94,12.78,7.48Z"/><path class="cls-2" d="M1399.21,852.45a6.13,6.13,0,0,0,3.69-6,6.8,6.8,0,0,0-3.46-5.89l-32.82-18.84a7.46,7.46,0,0,0-6.54.06l-32.54,18.72a7,7,0,0,0-3.49,6v37.67a5.3,5.3,0,0,0,1.84,4.5c.83.64,1.52,1.15,2.2,1.62l32.36,18.79a5.85,5.85,0,0,0,2.91.73h.3a6.9,6.9,0,0,0,3.1-.85L1399,890.21l.2-.08a6.13,6.13,0,0,0,3.7-6,6.68,6.68,0,0,0-3.28-5.85,1.26,1.26,0,0,0-.41-.17l-22.31-12.87L1399,852.54Zm-42.47,38.85-3.53-2.06q-2.67-1.56-5.26-3.12l-5.29-3.14c-1.57-.92-3.25-1.88-5-2.86V850.43l19.1-11Zm25.76-7.11-12.17,7.09V877.07c2.34,1.37,4.45,2.6,6.31,3.71S1380.41,883,1382.5,884.19Zm-2.29-36.37c-1.38.85-2.72,1.65-4,2.42l-4,2.31-1.87,1.07V839.4c2.34,1.37,4.45,2.6,6.31,3.71s3.73,2.19,5.82,3.38C1381.67,846.94,1380.92,847.39,1380.21,847.82Z"/><path class="cls-2" d="M1678.57,843.34h0a6.88,6.88,0,0,0-2.44-2.5l-32.91-19a7,7,0,0,0-6.58.06l-29.37,17-29.34-16.87a6,6,0,0,0-4.06-1,7.19,7.19,0,0,0-2.82.72l-29.64,17.08-29.2-16.79a6.11,6.11,0,0,0-4.06-1,7.14,7.14,0,0,0-2.82.72l-28.94,16.67-28.74-16.57a6.77,6.77,0,0,0-3.49-.83,6.36,6.36,0,0,0-3,.85l-32.59,18.67c-2.2,1.31-3.32,2.89-3.32,4.72v47.84a6.8,6.8,0,1,0,13.59,0V858.26l9.86,5.61,5.73,3.3,6.41,3.67a8.42,8.42,0,0,0,3.3,1,5.77,5.77,0,0,0,3.7-1c4-2.28,8.06-4.61,12.21-6.94,3.32-1.86,6.63-3.74,9.88-5.61v34.91a6.8,6.8,0,1,0,13.59,0v-43l18.27-10.53v63.56a6.73,6.73,0,0,0,1.93,4.67,6.63,6.63,0,0,0,9.74,0,6.73,6.73,0,0,0,1.93-4.67V839.6l4.12,2.36q3,1.74,6,3.42l6,3.42c2,1.16,4.13,2.39,6.43,3.74l.1.05a7.68,7.68,0,0,0,1.2.4,7.27,7.27,0,0,0,5.68-.32l22.66-13v63.56a6.73,6.73,0,0,0,1.93,4.67,6.62,6.62,0,0,0,9.73,0,6.73,6.73,0,0,0,1.93-4.67V839.6l4.12,2.36q3,1.74,6,3.42c2,1.12,3.95,2.26,6,3.42l3.49,2v33.47a7,7,0,0,0,1,3.5,5.93,5.93,0,0,0,2.75,2.57l.19.08,32.2,18.78.11.06a8.64,8.64,0,0,0,3.27.7,8.1,8.1,0,0,0,3.12-.74l33-19.12a7.51,7.51,0,0,0,2.28-2.48,6.59,6.59,0,0,0,1-3.35V846.62A6.57,6.57,0,0,0,1678.57,843.34Zm-234.23,14c-3.65-2.08-7.13-4-10.41-5.88-2.78-1.56-5.66-3.21-8.58-4.92l19-10.83q5.49,3.1,10.42,5.87c2.74,1.54,5.62,3.19,8.57,4.92Zm221.54,23-25.67,15-26-14.85V850.55q6.76-3.81,13.06-7.43l13-7.43c4.61,2.65,8.83,5.1,12.88,7.48s8.41,4.94,12.78,7.48Z"/><path class="cls-2" d="M1066.42,830.43l-40.67-23.59a19.25,19.25,0,0,0-13.44,0l-40.76,23.42a19.26,19.26,0,0,0-6.75,11.62l-.1,47a19.29,19.29,0,0,0,6.7,11.65l40.67,23.59a19.19,19.19,0,0,0,13.44,0l40.76-23.42A19.29,19.29,0,0,0,1073,889.1l.09-47A19.28,19.28,0,0,0,1066.42,830.43ZM1053.53,880a9.67,9.67,0,0,1-1,3.72,8.58,8.58,0,0,1-2.81,3.26l-.29.19-25.27,15.2a8.54,8.54,0,0,1-6.14,1.31c-.72-.18-1.2-.3-1.42-.37l-.49-.15L989.53,888.6a8.64,8.64,0,0,1-4.37-5.62,9.75,9.75,0,0,1,.56-6.34l.15-.33.2-.31a8.89,8.89,0,0,1,7.52-4.26,10.13,10.13,0,0,1,4,.74l.3.11,21.57,11.87c.68-.41,1.33-.8,1.95-1.19l4-2.47,1.32-.82-38-20.72a7.61,7.61,0,0,1-3.28-3.29,9.25,9.25,0,0,1-1.07-4.17,10.87,10.87,0,0,1,.65-3.94,8.35,8.35,0,0,1,3.5-4.21l24.57-14.94a6.54,6.54,0,0,1,2.86-1.27,8.07,8.07,0,0,1,2-.29,7.89,7.89,0,0,1,2.29.25,6.64,6.64,0,0,1,2.69,1.2l25.25,13.75a8.55,8.55,0,0,1,4.29,5.34,9.07,9.07,0,0,1-.67,6.65l-.06.12a8.59,8.59,0,0,1-5.36,4.33,9.18,9.18,0,0,1-6.46-.53l-.26-.13-21.38-11.64-2,1.19c-1.37.85-2.73,1.69-4.07,2.5l-1.31.8,38.38,20.95a8.38,8.38,0,0,1,3.38,3.73A8.68,8.68,0,0,1,1053.53,880Z"/></g></g></svg>