<svg xmlns="http://www.w3.org/2000/svg" viewBox="0 0 1755.36 1269.45"><defs><style>.cls-1{fill:#898888;}</style></defs><g id="Capa_2" data-name="Capa 2"><g id="Capa_1-2" data-name="Capa 1"><path class="cls-1" d="M242.53,505c2,1.16,4,2.3,6,3.42l6,3.41c2,1.16,4.13,2.4,6.42,3.74a7,7,0,0,0,5.05.55,6.53,6.53,0,0,0,4.31-3.13,7.29,7.29,0,0,0,.51-5.06,6.31,6.31,0,0,0-3.12-4l-32.8-19a7,7,0,0,0-6.55.05c-2.49,1.4-5.15,2.92-7.9,4.53l-8.46,4.93-8.47,4.93c-2.8,1.63-5.38,3.11-8,4.57a7.5,7.5,0,0,0-2.28,2.48,6.3,6.3,0,0,0-1,3.23V547.3a6.49,6.49,0,0,0,1,3.35,7.65,7.65,0,0,0,2.36,2.53l32.77,19.05.11,0a8.2,8.2,0,0,0,3.15.7,6.53,6.53,0,0,0,1.85-.24,14.51,14.51,0,0,0,1.38-.49l32.78-19.06a6.28,6.28,0,0,0,3.14-4.05,7,7,0,0,0-.58-5.08,6.87,6.87,0,0,0-4.18-3.27,6.34,6.34,0,0,0-5.15.73l-22.44,12.9V502.6Zm-17.71,49.57-3.54-2.06c-1.73-1-3.47-2.06-5.18-3.11s-3.46-2.1-5.25-3.15c-1.56-.92-3.25-1.88-5-2.87V513.67c3.6-2,7.09-4.09,10.36-6,2.77-1.66,5.66-3.37,8.62-5.1Z"/><path class="cls-1" d="M351.29,513h0a7.34,7.34,0,0,0,.73-3.12,6.79,6.79,0,0,0-.75-3.08,5.5,5.5,0,0,0-2.24-2.4l-33.11-19.1a5.82,5.82,0,0,0-4.19-.85,6.65,6.65,0,0,0-2.58.85L276.3,504.19a1.31,1.31,0,0,0-.28.2,17.63,17.63,0,0,0-1.84,1.84,5.46,5.46,0,0,0-1,3.63v37.88a7,7,0,0,0,1.39,4,7.37,7.37,0,0,0,2.3,2l31.93,18.31.09.06a6.57,6.57,0,0,0,3.66,1.19,7.18,7.18,0,0,0,3.76-1.18,6.42,6.42,0,0,0,3-5.61V540.65l22.51,13,.11.06a7.21,7.21,0,0,0,6.58-.19,6.44,6.44,0,0,0,2.6-2.6,1.27,1.27,0,0,0,.13-.32,6.23,6.23,0,0,0,.47-4.68,7,7,0,0,0-3.18-4.2q-6.37-3.6-12.45-7.07-5-2.83-10.09-5.81l22.84-13.16A6.52,6.52,0,0,0,351.29,513Zm-45.55,41.74-3.53-2.06L297,549.62l-5.18-3c-1.61-.94-3.29-1.9-5-2.87V514c3.63-2.07,7.12-4.11,10.36-6.06,2.71-1.62,5.6-3.33,8.62-5.09Zm19.44-41.06c-1.82,1.08-3.78,2.22-5.85,3.4V502.84c2.4,1.38,4.56,2.63,6.43,3.74s3.77,2.22,5.84,3.4C329.22,511.34,327.07,512.59,325.18,513.71Z"/><path class="cls-1" d="M430,504.1l-32.93-19a7,7,0,0,0-6.58.06l-32.12,18.63-.19.08a5.93,5.93,0,0,0-2.75,2.57,6.8,6.8,0,0,0-1,3.39v37.67a7,7,0,0,0,1,3.5,5.93,5.93,0,0,0,2.75,2.57l.19.07,32.2,18.79.11.06a8.64,8.64,0,0,0,3.27.7,8.24,8.24,0,0,0,3.12-.74l33-19.12a7.51,7.51,0,0,0,2.28-2.48,6.59,6.59,0,0,0,1-3.35V509.86a6.54,6.54,0,0,0-.9-3.28A6.77,6.77,0,0,0,430,504.1ZM419.7,543.61l-25.67,15-26-14.86V513.79q6.77-3.81,13.06-7.43l13-7.43c4.51,2.59,8.84,5.11,12.88,7.48s8.41,4.94,12.78,7.48Z"/><path class="cls-1" d="M511.56,515.69a6.12,6.12,0,0,0,3.7-6,6.8,6.8,0,0,0-3.46-5.89L479,485a7.5,7.5,0,0,0-6.54.07l-32.55,18.72a7,7,0,0,0-3.48,5.95v37.67a5.32,5.32,0,0,0,1.84,4.5c.83.63,1.52,1.15,2.19,1.62l32.37,18.79a5.9,5.9,0,0,0,2.91.73h.3a6.9,6.9,0,0,0,3.1-.85l32.24-18.75.19-.07a6.12,6.12,0,0,0,3.71-6,6.69,6.69,0,0,0-3.29-5.85,1.41,1.41,0,0,0-.41-.18l-22.31-12.86,22.09-12.74A1.45,1.45,0,0,0,511.56,515.69ZM469.1,554.54l-3.54-2.06-5.26-3.12c-1.74-1.05-3.5-2.09-5.29-3.14-1.56-.92-3.25-1.88-5-2.87V513.67l19.1-11Zm25.76-7.11-12.17,7.09V540.31c2.34,1.37,4.44,2.6,6.3,3.71S492.76,546.23,494.86,547.43Zm-2.29-36.37c-1.38.85-2.73,1.65-4,2.42s-2.64,1.54-4,2.31l-1.86,1.07V502.64c2.34,1.37,4.44,2.6,6.3,3.71s3.73,2.19,5.82,3.38C494,510.18,493.28,510.63,492.57,511.06Z"/><path class="cls-1" d="M790.92,506.58h0a6.88,6.88,0,0,0-2.44-2.5l-32.91-18.95a7,7,0,0,0-6.57.06l-29.37,17-29.35-16.87a6,6,0,0,0-4.06-1,7.19,7.19,0,0,0-2.82.72l-29.64,17.08-29.2-16.79a6.1,6.1,0,0,0-4.06-1,7.19,7.19,0,0,0-2.82.72l-28.94,16.67L560,485.17a6.75,6.75,0,0,0-3.49-.83,6.07,6.07,0,0,0-3,.85l-32.59,18.67c-2.21,1.3-3.33,2.89-3.33,4.72v47.84a6.8,6.8,0,1,0,13.59,0V521.49L541,527.1l5.73,3.31c1.93,1.12,4.06,2.34,6.41,3.67a8.32,8.32,0,0,0,3.29,1,5.75,5.75,0,0,0,3.7-1c4-2.28,8.06-4.62,12.22-6.95,3.31-1.86,6.62-3.74,9.87-5.6v34.91a6.8,6.8,0,1,0,13.59,0v-43l18.28-10.54v63.57a6.73,6.73,0,0,0,1.93,4.67,6.62,6.62,0,0,0,9.73,0,6.73,6.73,0,0,0,1.93-4.67V502.84l4.12,2.36c2,1.16,4,2.3,6,3.42s4,2.26,6,3.42,4.13,2.39,6.43,3.73l.1.05a7.5,7.5,0,0,0,1.21.41,7.25,7.25,0,0,0,5.67-.32l22.66-13.06v63.57a6.73,6.73,0,0,0,1.93,4.67,6.62,6.62,0,0,0,9.73,0,6.73,6.73,0,0,0,1.93-4.67V502.84l4.12,2.36c2,1.16,4,2.3,6,3.42s4,2.26,6,3.42l3.49,2v33.47a7.1,7.1,0,0,0,1,3.5,6,6,0,0,0,2.75,2.57l.19.07,32.2,18.79.11.06a8.65,8.65,0,0,0,3.28.7,8.14,8.14,0,0,0,3.12-.74l33-19.12a7.41,7.41,0,0,0,2.28-2.48,6.49,6.49,0,0,0,1-3.35V509.86A6.54,6.54,0,0,0,790.92,506.58Zm-234.22,14q-5.49-3.12-10.41-5.88c-2.79-1.56-5.67-3.21-8.58-4.92l19-10.84q5.47,3.12,10.41,5.88c2.75,1.54,5.63,3.19,8.58,4.92Zm221.53,23.05-25.67,15-26-14.86V513.79q6.77-3.81,13.06-7.43l13-7.43c4.61,2.65,8.83,5.1,12.88,7.48s8.42,4.94,12.78,7.48Z"/><path class="cls-1" d="M178.78,493.67l-40.67-23.59a19.3,19.3,0,0,0-13.44,0L83.91,493.48a19.26,19.26,0,0,0-6.75,11.62l-.1,47a19.25,19.25,0,0,0,6.7,11.65l40.67,23.59a19.3,19.3,0,0,0,13.44,0L178.63,564a19.29,19.29,0,0,0,6.75-11.63l.09-47A19.3,19.3,0,0,0,178.78,493.67Zm-12.89,49.54a9.58,9.58,0,0,1-1,3.71,8.61,8.61,0,0,1-2.81,3.27l-.29.19-25.27,15.2a8.51,8.51,0,0,1-6.14,1.3c-.72-.17-1.2-.3-1.42-.36l-.49-.15-26.58-14.53a8.66,8.66,0,0,1-4.37-5.62,9.75,9.75,0,0,1,.56-6.34l.15-.34.2-.3a8.9,8.9,0,0,1,7.51-4.27,10.16,10.16,0,0,1,4,.75l.3.11,21.57,11.87c.68-.41,1.33-.8,1.95-1.19l4-2.47c.43-.28.87-.55,1.32-.82L101.12,522.5a7.61,7.61,0,0,1-3.28-3.29A9.26,9.26,0,0,1,96.77,515a10.85,10.85,0,0,1,.65-3.93,8.25,8.25,0,0,1,3.5-4.21L125.49,492a6.56,6.56,0,0,1,2.85-1.27,8.73,8.73,0,0,1,2-.3,8,8,0,0,1,2.3.26,6.65,6.65,0,0,1,2.68,1.19l25.26,13.76a8.59,8.59,0,0,1,4.29,5.33,9.2,9.2,0,0,1-.67,6.66l-.06.12a8.62,8.62,0,0,1-5.36,4.33,9.18,9.18,0,0,1-6.46-.53l-.26-.13-21.38-11.65-2,1.2-4.07,2.5-1.31.8,38.38,20.95a8.47,8.47,0,0,1,3.38,3.72A8.85,8.85,0,0,1,165.89,543.21Z"/><path class="cls-1" d="M522.06,378.32,580.5,276.89a47.92,47.92,0,0,0,0-33.46L521.86,142.09a48,48,0,0,0-29-16.7l-117.06.1a47.91,47.91,0,0,0-29,16.76L288.39,243.67a48,48,0,0,0,0,33.46L347,378.47a48,48,0,0,0,29,16.71l117.05-.1A48,48,0,0,0,522.06,378.32ZM490.65,334a16.41,16.41,0,0,1-4.76,6.15,20.48,20.48,0,0,1-4.05,3,19.92,19.92,0,0,1-5.32,2.16,16.77,16.77,0,0,1-7.3.56l-71.6-.22a21.33,21.33,0,0,1-15.72-6.61,22.75,22.75,0,0,1-6.41-15.37v-.33a21.36,21.36,0,0,1,6.61-15.82,22.75,22.75,0,0,1,14.78-6.49l.72,0,60.62.17c1-1.71,2-3.36,2.89-4.95q3-5.22,6-10.3l1.92-3.3-108.87-.43a21,21,0,0,1-11.81-4.16,22,22,0,0,1-6.85-8.5,24.53,24.53,0,0,1-2.21-9.33,21.58,21.58,0,0,1,2.3-10.49L342,249l37.35-63.22c1.3-2.14,5-8.27,11.9-10.12,1.79-.48,3-.77,3.55-.89l1.25-.25,75.42.34A21.66,21.66,0,0,1,487.65,182a24.27,24.27,0,0,1,6.27,14.55l.07.91-.06.91a22.2,22.2,0,0,1-11.42,18.24,25.63,25.63,0,0,1-9.63,3.11l-.79.09-61.31-.45q-1.5,2.55-2.86,4.91-3,5.19-5.8,10.15-1,1.67-1.92,3.36l107.65.43a19.16,19.16,0,0,1,11.08,3.33,23.07,23.07,0,0,1,7.29,7.88,26.6,26.6,0,0,1,3.22,9.38,20.55,20.55,0,0,1-2.67,13.37Z"/><path class="cls-1" d="M1641.9,171.33a23.28,23.28,0,0,0-7.3-7.88,19.11,19.11,0,0,0-11.07-3.33l-107.65-.43,1.91-3.36,5.81-10.15q1.37-2.35,2.86-4.91l61.31.46.79-.1a25.52,25.52,0,0,0,9.62-3.11,22.19,22.19,0,0,0,11.43-18.23l.06-.92-.07-.91a24.32,24.32,0,0,0-6.27-14.55,21.7,21.7,0,0,0-16.23-7.14l-75.42-.34-1.25.26c-.58.11-1.76.4-3.56.88-6.87,1.85-10.59,8-11.9,10.13l-37.34,63.21-.41.75a21.6,21.6,0,0,0-2.3,10.49,24.35,24.35,0,0,0,2.21,9.33A22.09,22.09,0,0,0,1464,200a21.06,21.06,0,0,0,11.81,4.15l108.88.43q-1,1.67-1.92,3.3-3,5.08-6,10.3c-.91,1.59-1.88,3.24-2.89,5l-60.62-.17-.72,0a22.8,22.8,0,0,0-14.79,6.49,21.41,21.41,0,0,0-6.6,15.82v.33a22.74,22.74,0,0,0,6.42,15.37,21.33,21.33,0,0,0,15.72,6.61l71.6.22a16.57,16.57,0,0,0,7.29-.56,19.52,19.52,0,0,0,5.33-2.16,20.48,20.48,0,0,0,4-3,16.43,16.43,0,0,0,4.76-6.15l36.12-61.83a20.53,20.53,0,0,0,2.67-13.36A26.65,26.65,0,0,0,1641.9,171.33Z"/><path class="cls-1" d="M1344.88,0V364.47h410.48V0Zm351.3,198.82-58.45,101.42a48,48,0,0,1-29,16.76l-117.06.1a48,48,0,0,1-29-16.71l-58.62-101.33a48.06,48.06,0,0,1,0-33.47l58.45-101.42a48,48,0,0,1,29-16.76l117.06-.1a48,48,0,0,1,29,16.71l58.62,101.33A48,48,0,0,1,1696.18,198.82Z"/><path class="cls-1" d="M1637.53,423a48,48,0,0,0-29-16.71l-117.06.1a48,48,0,0,0-29,16.76l-58.45,101.42a48.06,48.06,0,0,0,0,33.47l58.62,101.33a48,48,0,0,0,29,16.71l117.06-.1a47.89,47.89,0,0,0,29-16.76l58.45-101.42a48,48,0,0,0,0-33.47ZM1642.45,553l-36.12,61.83a16.43,16.43,0,0,1-4.76,6.15,20.48,20.48,0,0,1-4,3,19.89,19.89,0,0,1-5.33,2.17,16.72,16.72,0,0,1-7.29.56l-71.6-.22a21.37,21.37,0,0,1-15.72-6.61,22.78,22.78,0,0,1-6.42-15.38v-.32a21.43,21.43,0,0,1,6.6-15.83,22.85,22.85,0,0,1,14.79-6.49l.72,0,60.62.18c1-1.72,2-3.37,2.89-5q3-5.24,6-10.3l1.92-3.31-108.88-.43a21.06,21.06,0,0,1-11.81-4.15,22,22,0,0,1-6.84-8.51,24.35,24.35,0,0,1-2.21-9.33,21.62,21.62,0,0,1,2.3-10.49l.41-.75L1495,466.65c1.31-2.14,5-8.28,11.9-10.13,1.8-.48,3-.76,3.56-.88l1.25-.26,75.42.34a21.73,21.73,0,0,1,16.23,7.14,24.38,24.38,0,0,1,6.27,14.56l.07.91-.06.91a22.17,22.17,0,0,1-11.43,18.23,25.35,25.35,0,0,1-9.62,3.11l-.79.1-61.31-.45q-1.5,2.53-2.86,4.91l-5.81,10.15-1.91,3.35,107.65.44a19,19,0,0,1,11.07,3.33,23.25,23.25,0,0,1,7.3,7.87,26.65,26.65,0,0,1,3.22,9.39A20.52,20.52,0,0,1,1642.45,553Z"/><path d="M1185.8,171.33a23.25,23.25,0,0,0-7.29-7.88,19.16,19.16,0,0,0-11.08-3.33l-107.65-.43,1.92-3.36q2.83-5,5.81-10.15c.9-1.57,1.86-3.21,2.86-4.91l61.3.46.79-.1a25.63,25.63,0,0,0,9.63-3.11,22.2,22.2,0,0,0,11.42-18.23l.06-.92-.07-.91a24.31,24.31,0,0,0-6.26-14.55A21.7,21.7,0,0,0,1131,96.77l-75.42-.34-1.24.26c-.58.11-1.77.4-3.56.88-6.88,1.85-10.6,8-11.9,10.13l-37.35,63.21-.41.75a21.48,21.48,0,0,0-2.29,10.49,24.16,24.16,0,0,0,2.21,9.33,21.91,21.91,0,0,0,6.84,8.51,21,21,0,0,0,11.81,4.15l108.88.43-1.93,3.3q-3,5.08-6,10.3-1.37,2.39-2.88,5l-60.63-.17-.72,0a22.77,22.77,0,0,0-14.78,6.49,21.41,21.41,0,0,0-6.61,15.82v.33a22.69,22.69,0,0,0,6.42,15.37,21.29,21.29,0,0,0,15.71,6.61l71.6.22a16.62,16.62,0,0,0,7.3-.56,19.65,19.65,0,0,0,5.33-2.16,20.77,20.77,0,0,0,4-3,16.31,16.31,0,0,0,4.75-6.15l36.12-61.83a20.54,20.54,0,0,0,2.68-13.36A26.67,26.67,0,0,0,1185.8,171.33Z"/><path d="M888.78,0V364.47h410.49V0Zm351.3,198.82-58.44,101.42a48,48,0,0,1-29,16.76l-117.06.1a48,48,0,0,1-29-16.71L948,199.06a48,48,0,0,1,0-33.47l58.44-101.42a48,48,0,0,1,29-16.76l117.06-.1a48,48,0,0,1,29,16.71l58.62,101.33A48,48,0,0,1,1240.08,198.82Z"/><path d="M1181.44,423a48,48,0,0,0-29-16.71l-117.06.1a48,48,0,0,0-29,16.76L948,524.54A48,48,0,0,0,948,558l58.62,101.33a48,48,0,0,0,29,16.71l117.06-.1a47.91,47.91,0,0,0,29-16.76l58.44-101.42a48,48,0,0,0,0-33.47ZM1186.35,553l-36.12,61.83a16.31,16.31,0,0,1-4.75,6.15,20.77,20.77,0,0,1-4,3,20,20,0,0,1-5.33,2.17,16.77,16.77,0,0,1-7.3.56l-71.6-.22a21.33,21.33,0,0,1-15.71-6.61,22.74,22.74,0,0,1-6.42-15.38v-.32a21.44,21.44,0,0,1,6.61-15.83,22.8,22.8,0,0,1,14.78-6.49l.72,0,60.63.18q1.52-2.58,2.88-5,3-5.24,6-10.3l1.93-3.31-108.88-.43a21,21,0,0,1-11.81-4.15,21.93,21.93,0,0,1-6.84-8.51,24.16,24.16,0,0,1-2.21-9.33,21.5,21.5,0,0,1,2.29-10.49l.41-.75,37.35-63.21c1.3-2.14,5-8.28,11.9-10.13,1.79-.48,3-.76,3.56-.88l1.24-.26,75.42.34a21.74,21.74,0,0,1,16.24,7.14,24.37,24.37,0,0,1,6.26,14.56l.07.91-.06.91a22.19,22.19,0,0,1-11.42,18.23,25.45,25.45,0,0,1-9.63,3.11l-.79.1-61.3-.45c-1,1.69-2,3.33-2.86,4.91q-3,5.17-5.81,10.15c-.63,1.11-1.27,2.22-1.92,3.35l107.65.44a19,19,0,0,1,11.08,3.33,23.13,23.13,0,0,1,7.29,7.87,26.67,26.67,0,0,1,3.23,9.39A20.53,20.53,0,0,1,1186.35,553Z"/><path d="M319.33,839.59v14.28c2.07-1.18,4-2.32,5.85-3.4s4-2.38,6.42-3.74c-2.07-1.18-4-2.32-5.84-3.4S321.73,841,319.33,839.59Z"/><path d="M394,835.68l-13,7.43q-6.3,3.61-13.06,7.44v29.92l26,14.85,25.67-15V850.65q-6.56-3.82-12.78-7.49C402.88,840.79,398.55,838.27,394,835.68Z"/><path d="M482.69,877.06v14.21l12.17-7.09c-2.1-1.2-4.07-2.34-5.87-3.41Z"/><path d="M450,880.11c1.76,1,3.45,1.95,5,2.87,1.79,1,3.55,2.09,5.29,3.13l5.26,3.12c1.11.65,2.28,1.34,3.54,2.06V839.38l-19.1,11Z"/><path d="M161.72,871.92,123.34,851l1.31-.8,4.07-2.5c.63-.39,1.28-.79,2-1.2l21.38,11.64.26.13a9.18,9.18,0,0,0,6.46.53,8.59,8.59,0,0,0,5.36-4.33l.06-.11a9.21,9.21,0,0,0,.67-6.66,8.6,8.6,0,0,0-4.29-5.34l-25.26-13.75a6.68,6.68,0,0,0-2.68-1.2,8,8,0,0,0-2.3-.25,7.77,7.77,0,0,0-2,.3,6.53,6.53,0,0,0-2.85,1.26l-24.57,14.94a8.25,8.25,0,0,0-3.5,4.21,10.87,10.87,0,0,0-.65,3.94A9.25,9.25,0,0,0,97.84,856a7.61,7.61,0,0,0,3.28,3.29L139.07,880l-1.32.82-4,2.47c-.62.39-1.27.79-1.95,1.19l-21.57-11.87-.3-.11a10.33,10.33,0,0,0-4-.74A8.87,8.87,0,0,0,98.43,876l-.2.31-.15.33a9.75,9.75,0,0,0-.56,6.34,8.64,8.64,0,0,0,4.37,5.62l26.58,14.53.49.15c.22.07.7.19,1.42.37a8.51,8.51,0,0,0,6.14-1.31l25.27-15.2.29-.19a8.51,8.51,0,0,0,2.81-3.26,9.67,9.67,0,0,0,1-3.72,8.79,8.79,0,0,0-.79-4.31A8.44,8.44,0,0,0,161.72,871.92Z"/><path d="M286.76,850.77v29.68c1.73,1,3.41,1.93,5,2.87l5.18,3,5.25,3.1,3.53,2v-51.9c-3,1.76-5.91,3.48-8.62,5.1C293.88,846.66,290.39,848.7,286.76,850.77Z"/><path d="M205.84,850.43v29.68c1.76,1,3.45,1.95,5,2.87q2.68,1.56,5.25,3.14c1.71,1,3.45,2.1,5.18,3.11l3.54,2.06v-52c-3,1.73-5.85,3.44-8.62,5.1C212.93,846.33,209.44,848.37,205.84,850.43Z"/><path d="M752.57,835.68l-13,7.43q-6.3,3.61-13.06,7.44v29.92l26,14.85,25.67-15V850.65l-12.78-7.49C761.4,840.78,757.18,838.33,752.57,835.68Z"/><path d="M482.69,839.39v14.22l1.86-1.07q2-1.15,4-2.31c1.3-.77,2.65-1.57,4-2.42.71-.43,1.46-.88,2.24-1.33-2.09-1.19-4-2.32-5.82-3.38S485,840.76,482.69,839.39Z"/><path d="M556.7,835.68l-19,10.83c2.91,1.71,5.79,3.36,8.58,4.92q4.92,2.76,10.41,5.88l19-10.84c-3-1.73-5.83-3.38-8.58-4.92Q562.18,838.79,556.7,835.68Z"/><path d="M1.15,741.28V989.67H867.73V741.28ZM185.38,889.1a19.29,19.29,0,0,1-6.75,11.62l-40.76,23.42a19.19,19.19,0,0,1-13.44,0L83.76,900.52a19.25,19.25,0,0,1-6.7-11.65l.1-47a19.29,19.29,0,0,1,6.75-11.62l40.76-23.42a19.25,19.25,0,0,1,13.44,0l40.67,23.6a19.28,19.28,0,0,1,6.69,11.65Zm75.47-10.83a6.34,6.34,0,0,1,5.15-.73,6.87,6.87,0,0,1,4.18,3.27,7,7,0,0,1,.58,5.08,6.28,6.28,0,0,1-3.14,4.05L234.84,909c-.5.21-.93.36-1.38.5a6.53,6.53,0,0,1-1.85.24,8.38,8.38,0,0,1-3.15-.7l-.11-.06-32.77-19.05a7.56,7.56,0,0,1-2.36-2.53,6.49,6.49,0,0,1-1-3.35V846.38a6.31,6.31,0,0,1,1-3.24,7.5,7.5,0,0,1,2.28-2.48c2.58-1.46,5.16-2.94,8-4.57l8.47-4.93,8.46-4.92c2.75-1.61,5.41-3.14,7.9-4.54a7,7,0,0,1,6.55-.05l32.8,19a6.31,6.31,0,0,1,3.12,4,7.32,7.32,0,0,1-.51,5.07,6.55,6.55,0,0,1-4.31,3.12,7,7,0,0,1-5.05-.55c-2.29-1.34-4.41-2.58-6.42-3.73s-4-2.3-6-3.42-4-2.26-6-3.42l-4.12-2.36v51.81Zm75.25-6.84q6.07,3.48,12.45,7.07a7,7,0,0,1,3.18,4.2,6.23,6.23,0,0,1-.47,4.68,1.27,1.27,0,0,1-.13.32,6.38,6.38,0,0,1-2.6,2.6,7.21,7.21,0,0,1-6.58.19l-.11,0-22.51-13v25.89a6.42,6.42,0,0,1-3,5.61,7.18,7.18,0,0,1-3.76,1.18,6.57,6.57,0,0,1-3.66-1.19l-.09-.06-31.93-18.31a7.25,7.25,0,0,1-2.3-2,7,7,0,0,1-1.39-4V846.61a5.48,5.48,0,0,1,1-3.63,17.63,17.63,0,0,1,1.84-1.84,1.31,1.31,0,0,1,.28-.2l32.85-18.85a6.3,6.3,0,0,1,2.58-.85,5.81,5.81,0,0,1,4.19.84L349,841.18a5.5,5.5,0,0,1,2.24,2.4,6.8,6.8,0,0,1,.75,3.09,7.29,7.29,0,0,1-.73,3.11h0a6.46,6.46,0,0,1-2.44,2.68L326,865.62Q331.14,868.61,336.1,871.43Zm97.19,12.85a6.59,6.59,0,0,1-1,3.35,7.51,7.51,0,0,1-2.28,2.48l-33,19.12a8.06,8.06,0,0,1-3.12.74,8.64,8.64,0,0,1-3.27-.7l-.11-.06-32.2-18.78-.19-.08a5.93,5.93,0,0,1-2.75-2.57,7,7,0,0,1-1-3.5V846.61a6.85,6.85,0,0,1,1-3.39,6,6,0,0,1,2.75-2.57l.19-.07,32.12-18.64a7,7,0,0,1,6.58-.05l32.93,19a6.77,6.77,0,0,1,2.42,2.48,6.57,6.57,0,0,1,.9,3.28Zm78.27-6.14a1.41,1.41,0,0,1,.41.17,6.69,6.69,0,0,1,3.29,5.85,6.12,6.12,0,0,1-3.71,6l-.19.08-32.24,18.74a6.9,6.9,0,0,1-3.1.85h-.3a5.8,5.8,0,0,1-2.91-.73l-32.37-18.79c-.67-.47-1.36-1-2.19-1.62a5.3,5.3,0,0,1-1.84-4.5V846.49a7,7,0,0,1,3.48-6l32.55-18.72a7.5,7.5,0,0,1,6.54-.06L511.8,840.6a6.8,6.8,0,0,1,3.46,5.89,6.14,6.14,0,0,1-3.7,6l-.22.08-22.09,12.74Zm280.26,6.14a6.49,6.49,0,0,1-1,3.35,7.41,7.41,0,0,1-2.28,2.48l-33,19.12a8.14,8.14,0,0,1-3.12.74,8.65,8.65,0,0,1-3.28-.7l-.11-.06-32.2-18.78-.19-.08a6,6,0,0,1-2.75-2.57,7.1,7.1,0,0,1-1-3.5V850.81l-3.49-2c-2-1.16-4-2.3-6-3.42s-4-2.26-6-3.42l-4.12-2.36v63.58a6.73,6.73,0,0,1-1.93,4.67,6.62,6.62,0,0,1-9.73,0,6.73,6.73,0,0,1-1.93-4.67V839.61l-22.66,13.06a7.28,7.28,0,0,1-5.67.31,6.6,6.6,0,0,1-1.21-.4l-.1-.05c-2.3-1.35-4.42-2.58-6.43-3.74s-4-2.3-6-3.42-4-2.26-6-3.42l-4.12-2.36v63.58a6.73,6.73,0,0,1-1.93,4.67,6.62,6.62,0,0,1-9.73,0,6.73,6.73,0,0,1-1.93-4.67V839.61l-18.28,10.53v43a6.8,6.8,0,1,1-13.59,0V858.26c-3.25,1.87-6.56,3.75-9.87,5.61-4.16,2.33-8.27,4.66-12.22,6.94a5.75,5.75,0,0,1-3.7,1,8.16,8.16,0,0,1-3.29-1c-2.35-1.33-4.48-2.55-6.41-3.67l-5.73-3.3-9.87-5.61v34.92a6.8,6.8,0,1,1-13.59,0V845.33c0-1.83,1.12-3.41,3.33-4.72l32.59-18.67a6.28,6.28,0,0,1,3-.85,6.84,6.84,0,0,1,3.49.83l28.74,16.57,28.94-16.66a7,7,0,0,1,2.82-.73,6.1,6.1,0,0,1,4.06,1l29.2,16.79,29.64-17.07a7,7,0,0,1,2.82-.73,6,6,0,0,1,4.06,1L719.63,839l29.37-17a7,7,0,0,1,6.57-.05l32.91,19a6.78,6.78,0,0,1,2.44,2.49h0a6.59,6.59,0,0,1,.9,3.28Z"/><path class="cls-1" d="M318.18,1119.37v14.27c2.06-1.18,4-2.32,5.84-3.4s4.05-2.37,6.42-3.73c-2.06-1.18-4-2.32-5.84-3.4S320.58,1120.75,318.18,1119.37Z"/><path class="cls-1" d="M392.89,1115.46l-12.95,7.43q-6.3,3.61-13.06,7.43v29.92l26,14.86,25.67-15v-29.72q-6.56-3.81-12.79-7.48C401.73,1120.57,397.4,1118.05,392.89,1115.46Z"/><path class="cls-1" d="M204.69,1130.2v29.68c1.76,1,3.44,1.95,5,2.87,1.79,1,3.53,2.1,5.24,3.15s3.46,2.09,5.19,3.11l3.53,2.06v-52c-2.95,1.73-5.85,3.44-8.61,5.1C211.77,1126.11,208.29,1128.15,204.69,1130.2Z"/><path class="cls-1" d="M160.57,1151.7l-38.39-21,1.32-.8,4.07-2.5,2-1.2,21.39,11.65.26.13a9.18,9.18,0,0,0,6.46.53,8.62,8.62,0,0,0,5.36-4.33l.05-.12a9.1,9.1,0,0,0,.67-6.66,8.52,8.52,0,0,0-4.29-5.33l-25.25-13.76a6.65,6.65,0,0,0-2.68-1.19,8.36,8.36,0,0,0-2.3-.26,8.65,8.65,0,0,0-2,.3,6.51,6.51,0,0,0-2.85,1.27l-24.57,14.94a8.25,8.25,0,0,0-3.5,4.21,10.65,10.65,0,0,0-.66,3.93,9.4,9.4,0,0,0,1.08,4.18A7.64,7.64,0,0,0,100,1139l38,20.72-1.32.82-4,2.47-1.94,1.19-21.58-11.87-.29-.11a10.2,10.2,0,0,0-4-.75,8.93,8.93,0,0,0-7.52,4.27l-.19.31-.15.33a9.75,9.75,0,0,0-.57,6.34,8.72,8.72,0,0,0,4.37,5.62l26.58,14.53.49.15c.23.06.7.19,1.43.36a8.51,8.51,0,0,0,6.14-1.3l25.27-15.2.28-.19a8.73,8.73,0,0,0,2.82-3.27,9.75,9.75,0,0,0,1-3.71,9,9,0,0,0-.79-4.32A8.53,8.53,0,0,0,160.57,1151.7Z"/><path class="cls-1" d="M285.61,1130.55v29.68c1.73,1,3.41,1.93,5,2.87l5.18,3.05,5.26,3.09,3.53,2.06v-51.9c-3,1.76-5.92,3.47-8.62,5.09C292.72,1126.44,289.24,1128.48,285.61,1130.55Z"/><path class="cls-1" d="M448.85,1159.88c1.76,1,3.44,1.95,5,2.87,1.78,1,3.55,2.09,5.29,3.14s3.49,2.08,5.26,3.12l3.53,2.06v-51.91l-19.09,11Z"/><path class="cls-1" d="M555.55,1115.45l-19,10.84c2.92,1.71,5.8,3.36,8.58,4.92q4.93,2.76,10.41,5.88l19-10.84c-2.95-1.73-5.83-3.38-8.57-4.92Q561,1118.57,555.55,1115.45Z"/><path class="cls-1" d="M751.42,1115.46l-12.95,7.43q-6.3,3.61-13.06,7.43v29.92l26,14.86,25.67-15v-29.72q-6.55-3.81-12.79-7.48C760.25,1120.56,756,1118.11,751.42,1115.46Z"/><path class="cls-1" d="M481.53,1156.84v14.21l12.18-7.09c-2.1-1.2-4.07-2.34-5.87-3.41S483.88,1158.21,481.53,1156.84Z"/><path class="cls-1" d="M0,1021.05v248.4H866.58v-248.4Zm184.22,147.82a19.27,19.27,0,0,1-6.74,11.63l-40.77,23.42a19.3,19.3,0,0,1-13.44,0L82.61,1180.3a19.25,19.25,0,0,1-6.7-11.65l.1-47A19.25,19.25,0,0,1,82.75,1110l40.77-23.43a19.3,19.3,0,0,1,13.44,0l40.66,23.59a19.27,19.27,0,0,1,6.7,11.66Zm75.47-10.82a6.35,6.35,0,0,1,5.16-.73,6.87,6.87,0,0,1,4.18,3.27,7,7,0,0,1,.57,5.08,6.26,6.26,0,0,1-3.13,4l-32.78,19.06a11.65,11.65,0,0,1-1.39.49,6.41,6.41,0,0,1-1.84.24,8.28,8.28,0,0,1-3.15-.69l-.12-.06-32.76-19a7.65,7.65,0,0,1-2.36-2.53,6.51,6.51,0,0,1-1-3.35v-37.68a6.32,6.32,0,0,1,1-3.23,7.4,7.4,0,0,1,2.28-2.48c2.57-1.46,5.16-2.94,8-4.57l8.46-4.93,8.46-4.93c2.76-1.61,5.42-3.13,7.91-4.53a7,7,0,0,1,6.55,0l32.8,19a6.3,6.3,0,0,1,3.11,4,7.34,7.34,0,0,1-.5,5.06,6.53,6.53,0,0,1-4.31,3.13,7,7,0,0,1-5.05-.55l-6.42-3.74-6-3.41q-3-1.68-6-3.42l-4.12-2.37V1171Zm75.25-6.84q6.09,3.48,12.46,7.07a7.07,7.07,0,0,1,3.18,4.2,6.28,6.28,0,0,1-.47,4.68,1.79,1.79,0,0,1-.13.32,6.44,6.44,0,0,1-2.6,2.6,7.21,7.21,0,0,1-6.58.19l-.11-.06-22.51-13v25.89a6.41,6.41,0,0,1-3,5.61,7.15,7.15,0,0,1-3.76,1.18,6.52,6.52,0,0,1-3.65-1.19l-.09-.06-31.93-18.31a7.37,7.37,0,0,1-2.3-2,6.93,6.93,0,0,1-1.39-4v-37.88a5.46,5.46,0,0,1,1-3.63,18.45,18.45,0,0,1,1.83-1.84,1.68,1.68,0,0,1,.29-.2L308,1101.86a6.46,6.46,0,0,1,2.57-.84,5.75,5.75,0,0,1,4.19.84l33.11,19.1a5.46,5.46,0,0,1,2.25,2.4,6.79,6.79,0,0,1,.75,3.08,7.17,7.17,0,0,1-.74,3.12h0a6.43,6.43,0,0,1-2.43,2.68l-22.85,13.16Q330,1148.39,334.94,1151.21Zm97.2,12.85a6.51,6.51,0,0,1-1,3.35,7.41,7.41,0,0,1-2.28,2.48l-33,19.12a8.24,8.24,0,0,1-3.12.74,8.64,8.64,0,0,1-3.27-.7l-.11-.06-32.2-18.79-.2-.07a5.91,5.91,0,0,1-2.74-2.57,7,7,0,0,1-1-3.5v-37.67a6.8,6.8,0,0,1,1-3.39,5.89,5.89,0,0,1,2.75-2.57l.19-.07,32.12-18.64a7,7,0,0,1,6.58-.06l32.93,19a6.75,6.75,0,0,1,2.41,2.48,6.55,6.55,0,0,1,.91,3.28Zm78.27-6.15a1.54,1.54,0,0,1,.41.18,6.68,6.68,0,0,1,3.28,5.85,6.13,6.13,0,0,1-3.7,6l-.2.07L478,1188.72a6.93,6.93,0,0,1-3.1.85h-.31a6,6,0,0,1-2.91-.73l-32.36-18.79c-.68-.47-1.37-1-2.2-1.62a5.3,5.3,0,0,1-1.84-4.5v-37.67a7,7,0,0,1,3.49-6l32.54-18.72a7.5,7.5,0,0,1,6.54-.07l32.83,18.85a6.79,6.79,0,0,1,3.45,5.89,6.11,6.11,0,0,1-3.69,6,2,2,0,0,1-.22.09l-22.09,12.74Zm280.26,6.15a6.59,6.59,0,0,1-1,3.35,7.51,7.51,0,0,1-2.28,2.48l-33,19.12a8.1,8.1,0,0,1-3.12.74,8.64,8.64,0,0,1-3.27-.7l-.11-.06-32.2-18.79-.19-.07a5.93,5.93,0,0,1-2.75-2.57,7,7,0,0,1-1-3.5v-33.47l-3.49-2c-2-1.16-4-2.3-6-3.42s-4-2.26-6-3.42l-4.12-2.36V1183a6.73,6.73,0,0,1-1.93,4.67,6.62,6.62,0,0,1-9.73,0,6.73,6.73,0,0,1-1.93-4.67v-63.57L656,1132.44a7.27,7.27,0,0,1-5.68.32,7.73,7.73,0,0,1-1.2-.41l-.1,0c-2.3-1.34-4.43-2.58-6.43-3.73l-6-3.42q-3-1.68-6-3.42l-4.12-2.36V1183a6.73,6.73,0,0,1-1.93,4.67,6.63,6.63,0,0,1-9.74,0A6.73,6.73,0,0,1,613,1183v-63.57l-18.27,10.54v43a6.8,6.8,0,1,1-13.59,0V1138c-3.25,1.86-6.56,3.74-9.88,5.6-4.15,2.33-8.26,4.67-12.21,6.95a5.77,5.77,0,0,1-3.7,1,8.42,8.42,0,0,1-3.3-1l-6.41-3.67q-2.88-1.68-5.73-3.3L530,1138V1173a6.8,6.8,0,1,1-13.59,0v-47.84c0-1.83,1.12-3.42,3.33-4.72l32.59-18.67a6.18,6.18,0,0,1,3-.85,6.77,6.77,0,0,1,3.49.83l28.74,16.57,28.94-16.67a7.14,7.14,0,0,1,2.82-.72,6.11,6.11,0,0,1,4.06,1l29.2,16.79,29.64-17.08a7.14,7.14,0,0,1,2.82-.72,6,6,0,0,1,4.06,1l29.34,16.87,29.37-17a7,7,0,0,1,6.58-.06l32.91,18.95a6.85,6.85,0,0,1,2.43,2.5h0a6.57,6.57,0,0,1,.9,3.28Z"/><path class="cls-1" d="M481.53,1119.17v14.22l1.87-1.07c1.35-.77,2.67-1.54,4-2.31s2.65-1.57,4-2.42c.71-.43,1.46-.88,2.25-1.33-2.09-1.19-4-2.33-5.82-3.38S483.88,1120.54,481.53,1119.17Z"/><path class="cls-1" d="M1130.16,1121.69c2,1.16,4,2.3,6,3.42s3.95,2.26,6,3.42l6.42,3.73a7,7,0,0,0,5,.55,6.55,6.55,0,0,0,4.31-3.12,7.32,7.32,0,0,0,.51-5.07,6.27,6.27,0,0,0-3.12-4l-32.8-18.95a7,7,0,0,0-6.55,0c-2.49,1.4-5.15,2.93-7.9,4.54l-8.46,4.92-8.47,4.93c-2.8,1.63-5.38,3.12-8,4.57a7.6,7.6,0,0,0-2.28,2.48,6.41,6.41,0,0,0-1,3.24V1164a6.59,6.59,0,0,0,1,3.35,7.68,7.68,0,0,0,2.36,2.54l32.77,19,.11.06a8.38,8.38,0,0,0,3.15.7,6.49,6.49,0,0,0,1.85-.24c.45-.14.88-.29,1.38-.5l32.79-19a6.31,6.31,0,0,0,3.13-4.06,7,7,0,0,0-.58-5.07,6.86,6.86,0,0,0-4.18-3.28,6.34,6.34,0,0,0-5.15.74L1126,1171.14v-51.81Zm-17.71,49.57-3.53-2c-1.74-1-3.48-2.07-5.19-3.12s-3.46-2.09-5.25-3.14c-1.56-.92-3.25-1.89-5-2.87V1130.4c3.6-2.06,7.09-4.09,10.36-6.06,2.77-1.66,5.66-3.37,8.62-5.1Z"/><path class="cls-1" d="M1238.92,1129.75h0a7.29,7.29,0,0,0,.73-3.11,6.83,6.83,0,0,0-.75-3.09,5.47,5.47,0,0,0-2.24-2.39l-33.11-19.11a5.86,5.86,0,0,0-4.19-.84,6.3,6.3,0,0,0-2.58.85l-32.85,18.85a1.79,1.79,0,0,0-.28.2,18.66,18.66,0,0,0-1.84,1.84,5.5,5.5,0,0,0-1,3.63v37.88a7,7,0,0,0,1.39,4,7.25,7.25,0,0,0,2.3,2l31.93,18.31.09.06a6.51,6.51,0,0,0,3.66,1.2,7.2,7.2,0,0,0,3.76-1.19,6.42,6.42,0,0,0,3-5.61v-25.89l22.51,13,.11,0a7.21,7.21,0,0,0,6.58-.19,6.36,6.36,0,0,0,2.6-2.59,1.51,1.51,0,0,0,.13-.33,6.23,6.23,0,0,0,.47-4.68,7,7,0,0,0-3.18-4.2q-6.37-3.59-12.45-7.06-4.95-2.84-10.09-5.81l22.84-13.16A6.48,6.48,0,0,0,1238.92,1129.75Zm-45.55,41.74c-1.25-.72-2.43-1.4-3.53-2l-5.25-3.09-5.18-3.06c-1.61-.94-3.29-1.9-5-2.86v-29.68c3.63-2.08,7.12-4.11,10.36-6.06,2.71-1.62,5.6-3.33,8.62-5.1Zm19.44-41c-1.82,1.08-3.78,2.22-5.85,3.4v-14.28c2.4,1.38,4.56,2.63,6.43,3.74s3.77,2.22,5.84,3.4C1216.85,1128.06,1214.7,1129.32,1212.81,1130.44Z"/><path class="cls-1" d="M1317.61,1120.82l-32.94-19a7,7,0,0,0-6.57.06L1246,1120.55l-.19.07a6,6,0,0,0-2.75,2.58,6.79,6.79,0,0,0-1,3.38v37.67a7,7,0,0,0,1,3.5,5.88,5.88,0,0,0,2.75,2.57l.19.08,32.2,18.78.11.06a8.45,8.45,0,0,0,3.27.7,8.06,8.06,0,0,0,3.12-.74l33-19.11a7.71,7.71,0,0,0,2.28-2.48,6.65,6.65,0,0,0,1-3.36v-37.67a6.5,6.5,0,0,0-.9-3.27A6.78,6.78,0,0,0,1317.61,1120.82Zm-10.28,39.51-25.67,15-26-14.85v-29.92q6.77-3.82,13.06-7.44l13-7.43c4.51,2.6,8.84,5.11,12.88,7.48s8.42,4.94,12.78,7.49Z"/><path class="cls-1" d="M1399.19,1132.42a6.13,6.13,0,0,0,3.7-6,6.8,6.8,0,0,0-3.46-5.89l-32.82-18.84a7.46,7.46,0,0,0-6.54.07l-32.55,18.71a7,7,0,0,0-3.48,6v37.68a5.33,5.33,0,0,0,1.84,4.5c.83.63,1.52,1.14,2.19,1.62l32.37,18.79a5.89,5.89,0,0,0,2.91.72h.3a7.16,7.16,0,0,0,3.1-.85l32.24-18.75.19-.08a6.12,6.12,0,0,0,3.71-5.95,6.7,6.7,0,0,0-3.28-5.86,1.6,1.6,0,0,0-.42-.17l-22.31-12.87L1399,1132.5Zm-42.46,38.84-3.54-2-5.26-3.12q-2.61-1.58-5.28-3.14c-1.57-.92-3.26-1.89-5-2.87v-29.69l19.1-11Zm25.76-7.11-12.17,7.09V1157l6.3,3.71C1378.42,1161.81,1380.39,1163,1382.49,1164.15Zm-2.29-36.37c-1.38.85-2.73,1.66-4,2.42s-2.64,1.54-4,2.31l-1.86,1.07v-14.22l6.3,3.71c1.78,1.06,3.74,2.19,5.82,3.39C1381.66,1126.91,1380.91,1127.35,1380.2,1127.78Z"/><path class="cls-1" d="M1678.55,1123.31h0a6.73,6.73,0,0,0-2.44-2.5l-32.91-19a7,7,0,0,0-6.57.06l-29.37,17-29.35-16.86a6,6,0,0,0-4.06-1,7.16,7.16,0,0,0-2.82.73l-29.64,17.07-29.2-16.78a6,6,0,0,0-4.06-1,7.16,7.16,0,0,0-2.82.73l-28.93,16.67-28.75-16.58a6.84,6.84,0,0,0-3.49-.82,6.17,6.17,0,0,0-3,.84l-32.59,18.67c-2.21,1.31-3.33,2.9-3.33,4.73v47.83a6.8,6.8,0,1,0,13.6,0v-34.92l9.86,5.61,5.73,3.3c1.93,1.12,4.06,2.34,6.41,3.67a8.16,8.16,0,0,0,3.29,1,5.75,5.75,0,0,0,3.7-1c4-2.28,8.06-4.61,12.22-6.94,3.31-1.86,6.63-3.74,9.87-5.6v34.9a6.8,6.8,0,1,0,13.59,0v-43l18.28-10.53v63.57a6.68,6.68,0,0,0,1.93,4.66,6.62,6.62,0,0,0,9.73,0,6.72,6.72,0,0,0,1.93-4.66v-63.59l4.12,2.36,6,3.43,6,3.41,6.44,3.74.09,0a6.86,6.86,0,0,0,1.21.4,7.27,7.27,0,0,0,5.68-.31l22.65-13.06v63.57a6.68,6.68,0,0,0,1.93,4.66,6.62,6.62,0,0,0,9.73,0,6.72,6.72,0,0,0,1.93-4.66v-63.59l4.12,2.36,6,3.43,6,3.41c1.12.65,2.29,1.32,3.49,2v33.46a7.1,7.1,0,0,0,1,3.5,6,6,0,0,0,2.75,2.58l.19.07,32.2,18.78.11.06a8.46,8.46,0,0,0,3.28.7,7.92,7.92,0,0,0,3.12-.74l33-19.11a7.6,7.6,0,0,0,2.28-2.48,6.55,6.55,0,0,0,1-3.36v-37.67A6.53,6.53,0,0,0,1678.55,1123.31Zm-234.22,14-10.41-5.88c-2.79-1.56-5.67-3.21-8.58-4.91l19-10.84q5.48,3.12,10.41,5.88c2.75,1.54,5.63,3.19,8.58,4.91Zm221.53,23-25.67,15-26-14.85v-29.92q6.76-3.82,13.06-7.44l13-7.43c4.61,2.65,8.83,5.1,12.88,7.48s8.42,4.94,12.78,7.49Z"/><path class="cls-1" d="M1066.41,1110.4l-40.67-23.59a19.19,19.19,0,0,0-13.44,0l-40.76,23.42a19.29,19.29,0,0,0-6.75,11.63l-.1,47a19.29,19.29,0,0,0,6.7,11.65l40.67,23.6a19.25,19.25,0,0,0,13.44,0l40.76-23.42a19.26,19.26,0,0,0,6.75-11.62l.09-47A19.23,19.23,0,0,0,1066.41,1110.4Zm-12.89,49.53a9.62,9.62,0,0,1-1,3.72,8.61,8.61,0,0,1-2.81,3.27l-.29.18-25.27,15.2a8.49,8.49,0,0,1-6.14,1.31c-.72-.18-1.2-.3-1.42-.37l-.49-.15-26.58-14.52a8.68,8.68,0,0,1-4.37-5.63,9.71,9.71,0,0,1,.56-6.33l.15-.34.2-.31a8.87,8.87,0,0,1,7.52-4.26,10.32,10.32,0,0,1,4,.74l.3.12,21.57,11.87,1.95-1.19,4-2.48,1.32-.82-38-20.71a7.68,7.68,0,0,1-3.28-3.3,9.25,9.25,0,0,1-1.07-4.17,10.78,10.78,0,0,1,.65-3.93,8.27,8.27,0,0,1,3.5-4.21l24.57-14.95a6.51,6.51,0,0,1,2.86-1.26,7.64,7.64,0,0,1,2-.3,7.89,7.89,0,0,1,2.29.25,6.82,6.82,0,0,1,2.68,1.2l25.26,13.75a8.57,8.57,0,0,1,4.29,5.34,9.2,9.2,0,0,1-.67,6.66l-.06.11a8.59,8.59,0,0,1-5.36,4.33,9.13,9.13,0,0,1-6.46-.53l-.26-.13-21.38-11.64c-.69.41-1.34.81-2,1.2l-4.07,2.5-1.31.8,38.38,20.94a8.44,8.44,0,0,1,3.38,3.73A8.7,8.7,0,0,1,1053.52,1159.93Z"/><path d="M1130.16,841.72c2,1.16,4,2.3,6,3.42s3.95,2.26,6,3.42,4.13,2.39,6.42,3.73a7,7,0,0,0,5,.55,6.55,6.55,0,0,0,4.31-3.12,7.32,7.32,0,0,0,.51-5.07,6.31,6.31,0,0,0-3.12-4l-32.8-19a7,7,0,0,0-6.55.05c-2.49,1.4-5.15,2.93-7.9,4.54l-8.46,4.92-8.47,4.93c-2.8,1.63-5.38,3.11-8,4.57a7.5,7.5,0,0,0-2.28,2.48,6.41,6.41,0,0,0-1,3.24v37.67a6.59,6.59,0,0,0,1,3.35,7.56,7.56,0,0,0,2.36,2.53L1116,909l.11.06a8.38,8.38,0,0,0,3.15.7,6.49,6.49,0,0,0,1.85-.24c.45-.14.88-.29,1.38-.5l32.79-19.06a6.3,6.3,0,0,0,3.13-4.05,7,7,0,0,0-.58-5.08,6.87,6.87,0,0,0-4.18-3.27,6.34,6.34,0,0,0-5.15.73L1126,891.17V839.36Zm-17.71,49.57-3.53-2.06c-1.74-1-3.48-2.06-5.19-3.11s-3.46-2.1-5.25-3.14c-1.56-.92-3.25-1.89-5-2.87V850.43c3.6-2.06,7.09-4.1,10.36-6.06,2.77-1.66,5.66-3.37,8.62-5.1Z"/><path d="M1238.92,849.78h0a7.29,7.29,0,0,0,.73-3.11,6.8,6.8,0,0,0-.75-3.09,5.5,5.5,0,0,0-2.24-2.4l-33.11-19.1a5.81,5.81,0,0,0-4.19-.84,6.3,6.3,0,0,0-2.58.85l-32.85,18.85a1.31,1.31,0,0,0-.28.2,17.63,17.63,0,0,0-1.84,1.84,5.48,5.48,0,0,0-1,3.63v37.88a7,7,0,0,0,1.39,4,7.25,7.25,0,0,0,2.3,2l31.93,18.31.09.06a6.57,6.57,0,0,0,3.66,1.19,7.18,7.18,0,0,0,3.76-1.18,6.42,6.42,0,0,0,3-5.61V877.4l22.51,13,.11,0a7.21,7.21,0,0,0,6.58-.19,6.32,6.32,0,0,0,2.6-2.6,1.27,1.27,0,0,0,.13-.32,6.23,6.23,0,0,0,.47-4.68,7,7,0,0,0-3.18-4.2q-6.37-3.59-12.45-7.07-4.95-2.82-10.09-5.81l22.84-13.16A6.46,6.46,0,0,0,1238.92,849.78Zm-45.55,41.74-3.53-2-5.25-3.1-5.18-3c-1.61-.94-3.29-1.9-5-2.87V850.77c3.63-2.07,7.12-4.11,10.36-6,2.71-1.62,5.6-3.34,8.62-5.1Zm19.44-41c-1.82,1.08-3.78,2.22-5.85,3.4V839.59c2.4,1.38,4.56,2.63,6.43,3.74s3.77,2.22,5.84,3.4C1216.85,848.09,1214.7,849.35,1212.81,850.47Z"/><path d="M1317.61,840.85l-32.94-19a7,7,0,0,0-6.57.05L1246,840.58l-.19.07a6,6,0,0,0-2.75,2.57,6.85,6.85,0,0,0-1,3.39v37.67a7,7,0,0,0,1,3.5,5.93,5.93,0,0,0,2.75,2.57l.19.08,32.2,18.78.11.06a8.64,8.64,0,0,0,3.27.7,8.06,8.06,0,0,0,3.12-.74l33-19.12a7.51,7.51,0,0,0,2.28-2.48,6.59,6.59,0,0,0,1-3.35V846.61a6.57,6.57,0,0,0-.9-3.28A6.83,6.83,0,0,0,1317.61,840.85Zm-10.28,39.51-25.67,15-26-14.85V850.55q6.77-3.82,13.06-7.44l13-7.43c4.51,2.59,8.84,5.11,12.88,7.48l12.78,7.49Z"/><path d="M1399.19,852.45a6.14,6.14,0,0,0,3.7-6,6.8,6.8,0,0,0-3.46-5.89l-32.82-18.84a7.5,7.5,0,0,0-6.54.06l-32.55,18.72a7,7,0,0,0-3.48,6v37.67a5.3,5.3,0,0,0,1.84,4.5c.83.64,1.52,1.15,2.19,1.62l32.37,18.79a5.8,5.8,0,0,0,2.91.73h.3a6.9,6.9,0,0,0,3.1-.85L1399,890.2l.19-.08a6.12,6.12,0,0,0,3.71-6,6.7,6.7,0,0,0-3.28-5.85,1.6,1.6,0,0,0-.42-.17l-22.31-12.87L1399,852.53Zm-42.46,38.84c-1.26-.72-2.43-1.41-3.54-2.06l-5.26-3.12c-1.74-1-3.5-2.09-5.28-3.13-1.57-.92-3.26-1.89-5-2.87V850.42l19.1-11Zm25.76-7.11-12.17,7.09V877.06l6.3,3.71C1378.42,881.84,1380.39,883,1382.49,884.18Zm-2.29-36.37c-1.38.85-2.73,1.65-4,2.42s-2.64,1.54-4,2.31l-1.86,1.07V839.39c2.34,1.37,4.44,2.6,6.3,3.71s3.74,2.19,5.82,3.38C1381.66,846.93,1380.91,847.38,1380.2,847.81Z"/><path d="M1678.55,843.33h0a6.78,6.78,0,0,0-2.44-2.49l-32.91-19a7,7,0,0,0-6.57.05l-29.37,17-29.35-16.87a6,6,0,0,0-4.06-1,7,7,0,0,0-2.82.73l-29.64,17.07-29.2-16.79a6.08,6.08,0,0,0-4.06-1,7,7,0,0,0-2.82.73l-28.93,16.66-28.75-16.57a6.84,6.84,0,0,0-3.49-.83,6.28,6.28,0,0,0-3,.85l-32.59,18.67c-2.21,1.31-3.33,2.89-3.33,4.72v47.84a6.8,6.8,0,1,0,13.6,0V858.25l9.86,5.61,5.73,3.3c1.93,1.12,4.06,2.34,6.41,3.67a8.16,8.16,0,0,0,3.29,1,5.75,5.75,0,0,0,3.7-1c4-2.28,8.06-4.61,12.22-6.94,3.31-1.86,6.63-3.74,9.87-5.61v34.91a6.8,6.8,0,1,0,13.59,0v-43l18.28-10.53v63.56a6.73,6.73,0,0,0,1.93,4.67,6.62,6.62,0,0,0,9.73,0,6.73,6.73,0,0,0,1.93-4.67V839.59l4.12,2.36c2,1.16,4,2.3,6,3.42s4,2.26,6,3.42l6.44,3.74.09.05a6.86,6.86,0,0,0,1.21.4,7.31,7.31,0,0,0,5.68-.31l22.65-13.06v63.56a6.73,6.73,0,0,0,1.93,4.67,6.62,6.62,0,0,0,9.73,0,6.73,6.73,0,0,0,1.93-4.67V839.59l4.12,2.36c2,1.16,4,2.3,6,3.42s3.95,2.26,6,3.42l3.49,2v33.47a7.1,7.1,0,0,0,1,3.5,6,6,0,0,0,2.75,2.57l.19.08,32.2,18.78.11.06a8.65,8.65,0,0,0,3.28.7,8.1,8.1,0,0,0,3.12-.74l33-19.12a7.41,7.41,0,0,0,2.28-2.48,6.49,6.49,0,0,0,1-3.35V846.61A6.59,6.59,0,0,0,1678.55,843.33Zm-234.22,14q-5.49-3.12-10.41-5.88c-2.79-1.56-5.67-3.21-8.58-4.92l19-10.83q5.48,3.12,10.41,5.87c2.75,1.54,5.63,3.19,8.58,4.92Zm221.53,23.05-25.67,15-26-14.85V850.55q6.76-3.82,13.06-7.44l13-7.43c4.61,2.65,8.83,5.1,12.88,7.48l12.78,7.49Z"/><path d="M1066.41,830.43l-40.67-23.6a19.25,19.25,0,0,0-13.44,0l-40.76,23.42a19.29,19.29,0,0,0-6.75,11.62l-.1,47a19.29,19.29,0,0,0,6.7,11.65l40.67,23.59a19.19,19.19,0,0,0,13.44,0l40.76-23.42A19.29,19.29,0,0,0,1073,889.1l.09-47A19.23,19.23,0,0,0,1066.41,830.43ZM1053.52,880a9.67,9.67,0,0,1-1,3.72,8.51,8.51,0,0,1-2.81,3.26l-.29.19-25.27,15.2a8.49,8.49,0,0,1-6.14,1.31c-.72-.18-1.2-.3-1.42-.37l-.49-.15-26.58-14.53a8.64,8.64,0,0,1-4.37-5.62,9.75,9.75,0,0,1,.56-6.34l.15-.33.2-.31a8.87,8.87,0,0,1,7.52-4.26,10.32,10.32,0,0,1,4,.74l.3.11,21.57,11.87c.68-.4,1.33-.8,1.95-1.19l4-2.47,1.32-.82-38-20.72a7.61,7.61,0,0,1-3.28-3.29,9.25,9.25,0,0,1-1.07-4.17,10.87,10.87,0,0,1,.65-3.94,8.35,8.35,0,0,1,3.5-4.21l24.57-14.94a6.51,6.51,0,0,1,2.86-1.26,7.64,7.64,0,0,1,2-.3,7.89,7.89,0,0,1,2.29.25,6.68,6.68,0,0,1,2.68,1.2l25.26,13.75a8.57,8.57,0,0,1,4.29,5.34,9.21,9.21,0,0,1-.67,6.66l-.06.11a8.59,8.59,0,0,1-5.36,4.33,9.18,9.18,0,0,1-6.46-.53l-.26-.13-21.38-11.64c-.69.41-1.34.81-2,1.2l-4.07,2.5-1.31.8,38.38,20.94a8.44,8.44,0,0,1,3.38,3.73A8.68,8.68,0,0,1,1053.52,880Z"/></g></g></svg>